<svg id="Layer_1" data-name="Layer 1" xmlns="http://www.w3.org/2000/svg" viewBox="0 0 401.25 195.61"><defs><style>.cls-1{fill:#bc2421;}.cls-2{fill:#c1322f;}.cls-3{fill:#ad0d0a;}.cls-4{fill:#9b0c09;}.cls-5{fill:#fd7a7e;}.cls-6{fill:#ca5a5d;}.cls-7{fill:#730907;}.cls-8{fill:#eb686c;}.cls-9{fill:#8c1615;}.cls-10{fill:#fd8c8f;}.cls-11{fill:#d71f22;}.cls-12{fill:#e74245;}.cls-13{fill:#ba1a17;}.cls-14{fill:#fdaeb1;}.cls-15{fill:#f09fa2;}.cls-16{fill:#fdb5b7;}.cls-17{fill:#e6999b;}.cls-18{fill:#d78f91;}.cls-19{fill:#e33438;}.cls-20{fill:#fd7c80;}.cls-21{fill:#a50d0a;}.cls-22{fill:#fdacaf;}.cls-23{fill:#600082;}.cls-24{fill:#731794;}.cls-25{fill:#560075;}.cls-26{fill:#7c269a;}.cls-27{fill:#d2c4fb;}.cls-28{fill:#a599c9;}.cls-29{fill:#33014a;}.cls-30{fill:#c0b2e9;}.cls-31{fill:#460e60;}.cls-32{fill:#d8ccfc;}.cls-33{fill:#7f00ae;}.cls-34{fill:#9826c2;}.cls-35{fill:#9a55e5;}.cls-36{fill:#9352db;}.cls-37{fill:#6d0d8f;}.cls-38{fill:#aa69f2;}.cls-39{fill:#a761f2;}.cls-40{fill:#8a4dcd;}.cls-41{fill:#b072f3;}.cls-42{fill:#5e0080;}.cls-43{fill:#da8ffb;}.cls-44{fill:#d3c6fb;}.cls-45{fill:#741896;}.cls-46{fill:#731795;}.cls-47{fill:#8b4dcd;}.cls-48{fill:#a762f2;}.cls-49{fill:#d81794;}.cls-50{fill:#da269a;}.cls-51{fill:#e78cd4;}.cls-52{fill:#c90082;}.cls-53{fill:#b40075;}.cls-54{fill:#dc9dfe;}.cls-55{fill:#ad79cb;}.cls-56{fill:#930069;}.cls-57{fill:#ca8bec;}.cls-58{fill:#b10d82;}.cls-59{fill:#e0abfe;}.cls-60{fill:#e3009f;}.cls-61{fill:#f126b5;}.cls-62{fill:#eea8fe;}.cls-63{fill:#c987d8;}.cls-64{fill:#e097f1;}.cls-65{fill:#d791e7;}.cls-66{fill:#d817af;}.cls-67{fill:#e40daa;}.cls-68{fill:#e726b3;}.cls-69{fill:#b617db;}.cls-70{fill:#e518af;}.cls-71{fill:#ce0097;}.cls-72{fill:#c1008e;}.cls-73{fill:#d7009d;}.cls-74{fill:#efadfe;}.cls-75{fill:#eda4fe;}.cls-76{fill:#2cb9c0;}.cls-77{fill:#3abdc4;}.cls-78{fill:#72c9ab;}.cls-79{fill:#16a9b0;}.cls-80{fill:#14979e;}.cls-81{fill:#f2da3c;}.cls-82{fill:#c1ac24;}.cls-83{fill:#14656d;}.cls-84{fill:#e0c82a;}.cls-85{fill:#237e85;}.cls-86{fill:#f4df57;}.cls-87{fill:#57e7f1;}.cls-88{fill:#74f5fe;}.cls-89{fill:#f2db40;}.cls-90{fill:#f2d938;}.cls-91{fill:#f3dd4c;}.cls-92{fill:#dbc429;}.cls-93{fill:#e5cc2b;}.cls-94{fill:#cdb726;}.cls-95{fill:#2c838a;}.cls-96{fill:#23b6bd;}.cls-97{fill:#6af4fd;}.cls-98{fill:#15a2a9;}.cls-99{fill:#f3dd4b;}</style></defs><path class="cls-1" d="M150,143.13c-.73.22-.51.85-.54,1.34-.77,17.47-1.49,34.95-2.35,52.41-.13,2.74.21,5.57-.94,8.21a.57.57,0,0,1-.71.09c-5.6-4.23-11.88-7.42-17.71-11.31-1.77-1.18-3.84-2-5.19-3.74-.11-1.09.58-1.86,1.07-2.7,6.89-11.88,7.73-24.13,2.2-36.75a5.84,5.84,0,0,1-.72-2.3,3.42,3.42,0,0,1,2-2.67c6.66-4.13,13.2-8.46,19.91-12.51.89-.53,1.71-1.42,2.94-.95Z" transform="translate(-30.76 -74.77)"/><path class="cls-2" d="M150,132.25q-11.62,7.2-23.24,14.43a6.2,6.2,0,0,0-1.21,1.41.68.68,0,0,1-.76-.08c-3.92-6.08-8.68-11.3-15.07-14.87a41.43,41.43,0,0,0-15.39-4.82c-1.24-.46-2.77.1-3.79-1.09-1-4.25-.55-8.44.42-12.63a1.66,1.66,0,0,1,.69-.7c.35-.09-.11-.09.25-.1,8.62-.09,17.24-1.77,25.87-.23,4.53,1.42,8.35,4.26,12.48,6.47,5.9,3.15,11.65,6.58,17.52,9.81a8.08,8.08,0,0,1,1.7,1.32H150Z" transform="translate(-30.76 -74.77)"/><path class="cls-3" d="M91.31,114.35c-.15,4.33-.7,8.63-.48,13-1.35,1.15-3.08.92-4.62,1.12-13.43,1.75-23,9-29.71,20.51-5.7,11.84-5.89,23.69-.11,35.57.63,1.29,1.52,2.49,1.55,4-2.1,2.47-5.11,3.63-7.72,5.35-4.24,2.77-8.56,5.41-12.86,8.07-.9.55-1.8,1.37-2.94.47q-.91-16.63-1.81-33.27-.95-17.58-1.85-35.16a4.49,4.49,0,0,1,.31-1.25c1.71-2.29,4.37-3.19,6.7-4.5,7.82-4.37,15.54-8.91,23.37-13.26a8.71,8.71,0,0,1,3.5-1.41c8-.29,16-.09,24-.1A3.24,3.24,0,0,1,91.31,114.35Z" transform="translate(-30.76 -74.77)"/><path class="cls-4" d="M34.42,202.42c2.51-.33,4.25-2.16,6.28-3.38,5.06-3,10-6.29,15-9.43a11.74,11.74,0,0,1,2-.79,1.86,1.86,0,0,1,1.17.33A53.44,53.44,0,0,0,66.28,197a39.72,39.72,0,0,0,20.42,8.61,6.24,6.24,0,0,1,1.58.36,2.4,2.4,0,0,1,2.17,2.41c.09,5,.49,9.93-.23,14.88a1.71,1.71,0,0,1-.67.74c-1.79.72-3.56-.08-5.34-.07-6.4.05-12.79-.06-19.18.07a5,5,0,0,1-3.23-1.18c-8.36-5.5-16.93-10.69-25.34-16.12a4.29,4.29,0,0,1-2-2.12Z" transform="translate(-30.76 -74.77)"/><path class="cls-5" d="M145.65,205l.52.05a57.79,57.79,0,0,1-4.07,13.67c-1,2.4-3.67,4.13-5.67,6.08-10.36,10.06-20.68,20.17-31.16,30.1-5,4.77-9.72,9.91-15.1,14.3-.57-1.18.19-2.11.68-3C98.33,252.15,105.6,238,113.28,224c2.83-2.72,6.43-4.29,9.73-6.29,6.39-3.88,12.94-7.51,19.23-11.57C143.23,205.53,144.19,204.41,145.65,205Z" transform="translate(-30.76 -74.77)"/><path class="cls-6" d="M34.48,204.56q13.2,8.4,26.39,16.8c1.14.72,2.22,1.53,3.32,2.29a8.28,8.28,0,0,1,2.51,3.46c7,13.29,14,26.49,21.11,39.72.41.78,1,1.56.32,2.5-5.28-5.33-10.58-10.63-15.84-16q-17-17.31-34.06-34.64a6.08,6.08,0,0,1-1.76-3.52C35.92,211.63,35.16,208.1,34.48,204.56Z" transform="translate(-30.76 -74.77)"/><path class="cls-7" d="M88.13,269.33c-3.24-6.23-6.46-12.46-9.72-18.67q-7.08-13.51-14.22-27c.79-.89,1.84-.55,2.78-.55,5.82,0,11.65,0,17.47,0,1.77,0,3.53.34,5.3.53,1.08,1.1.85,2.51.88,3.84.28,12.9-.89,25.78-.58,38.69,0,1.29.26,2.9-1.37,3.68Z" transform="translate(-30.76 -74.77)"/><path class="cls-8" d="M63.72,114.3,31.07,132.74c1.14-3.42,2.24-6.86,3.46-10.25a5,5,0,0,1,1.55-1.83Q62.84,98.4,89.64,76.18a4.38,4.38,0,0,1,.7-.4c.64,1.13-.22,1.89-.75,2.65q-11.9,16.91-23.74,33.86A6.39,6.39,0,0,1,63.72,114.3Z" transform="translate(-30.76 -74.77)"/><path class="cls-9" d="M88.67,269.86a1.65,1.65,0,0,0,.54-1.46v-.55c-.38-14.74.89-29.46.53-44.2l0-.06a4.66,4.66,0,0,1,3.31-.83c5.74,0,11.48,0,17.22,0,1.24,0,2.76-.33,3.36,1.38-4.38,8.39-8.79,16.77-13.14,25.17-3.44,6.64-7.26,13.08-10.35,19.9C89.68,269.48,89.73,271,88.67,269.86Z" transform="translate(-30.76 -74.77)"/><path class="cls-10" d="M149.47,131.17c-4.74-1.77-8.86-4.69-13.28-7.07-5.93-3.21-11.8-6.53-17.7-9.8a7.19,7.19,0,0,1-2.69-2.59l-21.93-33c-.56-.85-1.54-1.65-.91-2.91,5.43,4.61,10.89,9.18,16.27,13.83,11,9.51,21.93,19.1,33,28.56C146.25,121.65,147.62,126.52,149.47,131.17Z" transform="translate(-30.76 -74.77)"/><path class="cls-11" d="M63.72,114.3q13-18.55,25.9-37.11a11.68,11.68,0,0,0,.72-1.41l1-.88c1,1.13.91,2.5.91,3.86q0,15.83,0,31.66c0,1.34.13,2.74-.87,3.86l-.08.07Z" transform="translate(-30.76 -74.77)"/><path class="cls-12" d="M91.39,114.28q0-19.68,0-39.38c1-.51,1.08.57,1.61.88,3.26,5.92,7.33,11.33,11,17,4.73,7.25,9.66,14.37,14.51,21.55C109.46,112.85,100.42,114.87,91.39,114.28Z" transform="translate(-30.76 -74.77)"/><path class="cls-13" d="M113.66,224.17c-.8-.87-1.86-.52-2.8-.52-7,0-14.06,0-21.09-.06,0-4.68-.13-9.37,0-14.05.07-1.87-.55-2.8-2.24-3.21a2.28,2.28,0,0,1,2-.81c12.51.38,22.8-4.25,30.94-13.75.58-.68,1.15-1.41,2.18-1.41,3.29,1.12,5.92,3.39,8.84,5.15,3.78,2.28,7.59,4.52,11.32,6.89,1.08.68,2.62,1,2.84,2.64Z" transform="translate(-30.76 -74.77)"/><path class="cls-14" d="M122.65,190.36c-6.66,8.47-15.16,13.89-25.88,15.6a25.5,25.5,0,0,1-7,.19c-1.33-1.76-.5-3.45.18-5.15a3,3,0,0,1,2.45-.9c13.23-1,22.66-7.58,28.37-19.56.39-.82.78-1.63,1.14-2.46a25.67,25.67,0,0,0,1.81-11.53,24.14,24.14,0,0,0-.92-8.11c-.64-2.37-1.78-4.57-2.49-6.92a2.08,2.08,0,0,1,.15-.78,11.52,11.52,0,0,1,4.6-2.79,4.19,4.19,0,0,1,.47.14,45.25,45.25,0,0,1,4.5,16.56,39.89,39.89,0,0,1-6.11,23.65Z" transform="translate(-30.76 -74.77)"/><path class="cls-15" d="M56.13,148.57c5.49-10.74,14.33-17.2,25.87-20a78.12,78.12,0,0,1,8.83-1.2c1.28.26,2.67-.21,3.88.54-2.52.56-3.45,2.29-3.44,4.72-.63,1.26-1.81,1.35-3,1.44a32,32,0,0,0-25,14.57A7,7,0,0,1,61.13,151C58.81,151.53,57.48,150,56.13,148.57Z" transform="translate(-30.76 -74.77)"/><path class="cls-16" d="M90.73,133c0-.36.08-.71.09-1.06.13-4,.13-4,3.89-4.1,13.58,1.45,23.75,8.08,30.37,20.09a9.58,9.58,0,0,1-4.46,2.82c-2.33-1.1-3.1-3.58-4.67-5.36-6.14-7-13.69-10.9-23-11.39a4.8,4.8,0,0,1-1.84-.33A.68.68,0,0,1,90.73,133Z" transform="translate(-30.76 -74.77)"/><path class="cls-17" d="M56.13,148.57c1.84.21,2.81,2.37,4.83,2.17a2.1,2.1,0,0,1,0,1.7c-4.55,10.62-4.2,21,1.28,31.26a6,6,0,0,1,.74,2c-.53,2.54-2.54,3.14-4.67,3.58l-.61-.48c-2.41-4.74-4.82-9.48-5.64-14.84C50.68,165.07,51.56,156.52,56.13,148.57Z" transform="translate(-30.76 -74.77)"/><path class="cls-18" d="M58.29,189.3c1.35-1.24,3.37-1.59,4.37-3.3a.89.89,0,0,1,.78,0c2.5,2.58,4.79,5.37,7.64,7.58a33.28,33.28,0,0,0,16.63,6.45,5.12,5.12,0,0,1,2.34.48l.24.33c.08,1.78-.83,3.47-.5,5.27l-2.21.18A39.42,39.42,0,0,1,58.29,189.3Z" transform="translate(-30.76 -74.77)"/><path class="cls-19" d="M124.46,166.55a22.5,22.5,0,0,1-2,12,33.22,33.22,0,0,1-13.66,1.13c-3.77-.58-7.49.34-11.26.3-8.75-.09-7.26-.31-7.47-7.26a27.2,27.2,0,0,1,0-3.61c0-2.13,1.28-2.75,3.16-2.76,3.78,0,7.56,0,11.33,0a10.68,10.68,0,0,0,3.47-.35,17.25,17.25,0,0,1,4.12-.22c3.11-.14,6.21-.06,9.31,0A4,4,0,0,1,124.46,166.55Z" transform="translate(-30.76 -74.77)"/><path class="cls-13" d="M108.73,179c4.59.37,9.13-.69,13.71-.52-5.87,14.46-16.63,21.85-32.15,22.37l0-.22c-1.58-3.77-.87-7.63-.47-11.47.74-1.33,2.18-.91,3.28-1.32a21.42,21.42,0,0,0,13.25-7.12A4.18,4.18,0,0,1,108.73,179Z" transform="translate(-30.76 -74.77)"/><path class="cls-2" d="M90.84,133.34c13.4-.15,22.91,6.37,29.78,17.43a1.35,1.35,0,0,1,0,.53c-3.48,2.09-6.65,4.68-10.48,6.16-1-.34-1.5-1.25-2-2.07-3.5-5.41-8.63-8.19-14.81-9.32-1.11-.2-2.4,0-3-1.4C90.07,140.87,89.25,137.05,90.84,133.34Z" transform="translate(-30.76 -74.77)"/><path class="cls-20" d="M124.46,166.55,112,166.5c-1.18-2.42-1.27-5.11-2-7.66a1,1,0,0,1,.62-1.31c4.23-.8,8.44-1.1,12.63.18C124.55,160.54,124.58,163.54,124.46,166.55Z" transform="translate(-30.76 -74.77)"/><path class="cls-1" d="M123.3,157.71l-12.93.14a.34.34,0,0,1-.12-.31c0-.12,0-.17.08-.17,3.21-2.4,6.35-4.93,10.31-6.07C122,153.24,122.45,155.56,123.3,157.71Z" transform="translate(-30.76 -74.77)"/><path class="cls-3" d="M90.84,133.34l0,11.89-.25.32c-2.27.88-4.77.85-7,1.76A21.87,21.87,0,0,0,71.79,158a1.19,1.19,0,0,1-1,.47c-3.1-2.63-6.79-4.36-10.11-6.66l.31-1.09c6.77-11.23,16.65-17.19,29.77-17.72A.76.76,0,0,0,90.84,133.34Z" transform="translate(-30.76 -74.77)"/><path class="cls-21" d="M60.65,151.83c3.87,1.41,7.53,3.14,10.12,6.55a1.66,1.66,0,0,1,.2,1.77c-2.25,6.81-.74,13.08,2.7,19.07a1.56,1.56,0,0,1,0,.83c-2.77,2.32-6,3.89-9,5.93a1.53,1.53,0,0,1-1.55.14,3.74,3.74,0,0,1-.45-.12c-5.42-8.87-7-18.34-4.34-28.45A22.56,22.56,0,0,1,60.65,151.83Z" transform="translate(-30.76 -74.77)"/><path class="cls-4" d="M63.11,186.12c3.59-1.77,6.48-4.74,10.36-6,1.13-.21,1.49.81,2.11,1.37,3.52,3.21,7.4,5.66,12.29,6.1.95.08,2,0,2.41,1.28q0,5.9,0,11.79C78.74,200.53,69.71,195.62,63.11,186.12Z" transform="translate(-30.76 -74.77)"/><path class="cls-16" d="M110.33,157.37a1.56,1.56,0,0,0,0,.48c.78,2.84,1.94,5.6,1.63,8.65l-3.74.05c-5.64.52-11.3.08-17,.24-1.19,0-1.52-.75-1.71-1.68a9,9,0,0,1,0-3.23c.68-4.21.26-8.45.39-12.68,0-1.33-.14-2.73.9-3.84l-.06-.13C99.62,145.55,106,149.85,110.33,157.37Z" transform="translate(-30.76 -74.77)"/><path class="cls-15" d="M90.87,145.36c-.16,6.2.32,12.43-.57,18.6-.3,2,.56,2.64,2.57,2.6,5.13-.12,10.26,0,15.39,0-2.45.92-5,.26-7.49.39a73.43,73.43,0,0,1-7.85.09c-1.78-.1-2.23.69-2.18,2.19a1.26,1.26,0,0,1-1.09.4c-6-3.2-11.55-7-17.32-10.54a2.25,2.25,0,0,1-1-1.26A21,21,0,0,1,90.87,145.36Z" transform="translate(-30.76 -74.77)"/><path class="cls-18" d="M89.76,169.24l1,0c0,1.12,0,2.24,0,3.35-.71,4.42.66,8.77.45,13.17-.08,1.68,1.71,1.64,2.44,2.59-1,.69-2.23.32-3.34.54-4.86-.76-9.58-1.87-13.35-5.34-1.19-1.1-2.31-2.28-3.46-3.41,0-.18,0-.35,0-.53,1.46-2.31,4.08-3.08,6.2-4.48C82.89,173,86,170.45,89.76,169.24Z" transform="translate(-30.76 -74.77)"/><path class="cls-22" d="M93.62,188.33c-2.66.35-3.67-.68-3.37-3.45.45-4.08-.49-8.23.48-12.31.34,2-.83,4.69.56,6s4.13.21,6.25.46c3.73.44,7.46-1,11.19,0C105,184.18,100.13,187.64,93.62,188.33Z" transform="translate(-30.76 -74.77)"/><path class="cls-17" d="M89.76,169.24c-5.32,3.66-10.78,7.07-16.33,10.35C69.17,174,68.21,167.71,70,161c.23-.86.49-1.72.74-2.58l.58-.56Z" transform="translate(-30.76 -74.77)"/><path class="cls-23" d="M127.93,203q-.92-16.77-1.82-33.53c-.56-10.91-1.09-21.83-1.65-32.74,0-.59.27-1.28-.41-1.73v-2.17l.51-.08c1.54-2.18,4-3,6.22-4.22,8.12-4.55,16.16-9.23,24.28-13.79a7.63,7.63,0,0,1,3-1.13c8-.29,16-.09,24-.11a4.53,4.53,0,0,1,2.59.6,2.66,2.66,0,0,1,.85,2.46c-.47,3.4-.23,6.84-.73,10.23-.49,1.27-1.66,1.21-2.72,1.33a43.35,43.35,0,0,0-16.23,4.8A39,39,0,0,0,150,149.06c-5.76,12.17-5.77,24.28.34,36.35a6.91,6.91,0,0,1,1.22,3c-.27,1.42-1.47,2-2.53,2.67-6,3.79-12.14,7.53-18.15,11.4C130,203,129.08,203.86,127.93,203Z" transform="translate(-30.76 -74.77)"/><path class="cls-24" d="M243.37,132.27c-.48,11.3-.93,22.6-1.44,33.9-.55,12.21-1.15,24.41-1.71,36.62,0,.8.1,1.64-.58,2.27a.54.54,0,0,1-.69.14c-5.53-4.23-11.75-7.38-17.54-11.21-1.79-1.19-3.77-2.1-5.33-3.65a1.83,1.83,0,0,1-.06-.84c1-2.41,2.68-4.48,3.64-6.94,4.18-10.76,4.34-21.45-.46-32.08a5.5,5.5,0,0,1-.63-2,3.37,3.37,0,0,1,2-2.69c6.65-4.13,13.17-8.44,19.87-12.48C241.32,132.72,242.16,131.89,243.37,132.27Z" transform="translate(-30.76 -74.77)"/><path class="cls-25" d="M127.93,203c2.58-.27,4.23-2.27,6.27-3.5,5.7-3.45,11.29-7.08,16.93-10.64a1.89,1.89,0,0,1,1.17.32,56.14,56.14,0,0,0,7.43,7.83,40.18,40.18,0,0,0,20.43,8.62,5.84,5.84,0,0,1,1.58.36,2.42,2.42,0,0,1,2.18,2.41c.09,5,.49,9.93-.24,14.88a1.75,1.75,0,0,1-.66.74c-2.06.85-4.1-.11-6.15-.08-6.13.07-12.26-.05-18.38.08a4.64,4.64,0,0,1-3-1c-8.44-5.57-17.08-10.81-25.58-16.28a4.56,4.56,0,0,1-2-2.13Z" transform="translate(-30.76 -74.77)"/><path class="cls-26" d="M243.37,132.27q-11.56,7.18-23.12,14.39a6.24,6.24,0,0,0-1.23,1.41.68.68,0,0,1-.76,0c-2.79-4.11-5.73-8.1-9.66-11.21a40,40,0,0,0-20.74-8.49c-1.15-.47-2.6.09-3.58-1-.25-4.35.45-8.65.5-13l.35-.36a2.55,2.55,0,0,1,1.27-.41c7.37.06,14.7-1,22.07-.6a7.06,7.06,0,0,1,2.37.44c4,1,7.29,3.5,10.82,5.46,6.31,3.51,12.64,7,18.89,10.56a6.68,6.68,0,0,1,2.34,1.81Z" transform="translate(-30.76 -74.77)"/><path class="cls-27" d="M239.12,205a3,3,0,0,0,.52,0,55.49,55.49,0,0,1-4.06,13.7c-1.07,2.56-3.83,4.5-6.06,6.45q-2.25,2-4.38,4c-8.92,8.73-17.71,17.59-26.79,26.14-4.48,4.21-8.81,8.57-13.23,12.83-.45.44-.84,1-1.54,1-.48-1.19.25-2.11.74-3C191.8,252.14,199.07,238,206.74,224c2.84-2.73,6.43-4.3,9.73-6.3,6.4-3.88,12.95-7.5,19.24-11.57C236.7,205.52,237.66,204.42,239.12,205Z" transform="translate(-30.76 -74.77)"/><path class="cls-28" d="M127.91,204.54q13.22,8.4,26.43,16.8c1.13.73,2.2,1.55,3.3,2.32,1.36.88,2,2.35,2.65,3.69,6.9,13.2,14,26.32,21,39.47.41.77,1,1.54.35,2.48-3.93-3.86-7.9-7.68-11.77-11.61-10.93-11.08-21.6-22.43-32.82-33.21-5-4.76-8.07-9.94-8.61-16.74C128.33,206.67,128.08,205.61,127.91,204.54Z" transform="translate(-30.76 -74.77)"/><path class="cls-29" d="M181.61,269.3l-14.05-26.75q-5-9.45-9.92-18.89c.77-.9,1.83-.56,2.77-.56,5.65,0,11.3,0,16.94,0,2,0,3.91.35,5.86.53.95.93.84,2.16.87,3.32.26,13.14-.9,26.26-.58,39.41,0,1.23.17,2.72-1.33,3.46Z" transform="translate(-30.76 -74.77)"/><path class="cls-30" d="M157.23,114.29l-32.67,18.42c1.12-3.42,2.14-6.88,3.41-10.24.77-2,2.91-2.93,4.47-4.23Q155.45,99,178.63,80c1.73-1.43,3.49-2.82,5.23-4.23.57,1.26-.38,2.06-1,2.9q-11.25,16-22.39,32.07C159.57,112.05,158.73,113.48,157.23,114.29Z" transform="translate(-30.76 -74.77)"/><path class="cls-31" d="M182.17,269.85a4.54,4.54,0,0,0,.46-.94,4.31,4.31,0,0,0,0-1.08c-.39-14.73.87-29.44.54-44.17l0-.1a3.64,3.64,0,0,1,2.51-.78c6.28-.05,12.56-.09,18.84,0,1,0,2.26-.11,2.55,1.37q-8.8,16.77-17.61,33.52c-2,3.83-4,7.69-5.95,11.53C183.06,269.34,183.22,271,182.17,269.85Z" transform="translate(-30.76 -74.77)"/><path class="cls-32" d="M242.89,131.24c-7.54-3.66-14.65-8.09-22-12.06q-4.63-2.49-9.26-5a6.56,6.56,0,0,1-2.52-2.75c-7.15-10.77-14.34-21.5-21.47-32.29-.66-1-1.81-1.88-1.28-3.36,4.74,3.43,8.9,7.56,13.37,11.32,6.26,5.28,12.45,10.65,18.62,16,6.45,5.63,13.07,11.09,19.18,17.08C240.44,123.06,241.79,127.21,242.89,131.24Z" transform="translate(-30.76 -74.77)"/><path class="cls-33" d="M157.23,114.29q12.32-17.67,24.63-35.36a10.75,10.75,0,0,0,2-3.18c.44-.37.82-.89,1.52-.55a3.65,3.65,0,0,1,.53,2.33c-.43,10.86-.07,21.73-.2,32.59,0,1.43.21,2.93-.86,4.15l-.07.07Z" transform="translate(-30.76 -74.77)"/><path class="cls-34" d="M184.85,114.27c0-11.51,0-23,0-34.52a41.39,41.39,0,0,1,.51-4.55l1,.56q7.49,11.42,15,22.83,5.13,7.8,10.29,15.57a75.38,75.38,0,0,0-15.75,0A109.41,109.41,0,0,1,184.85,114.27Z" transform="translate(-30.76 -74.77)"/><path class="cls-35" d="M184.28,127.32c1.29.23,2.68-.34,3.88.52a1.34,1.34,0,0,1-.37.38c-.9.59-2.47.1-2.7,1.76s1.13,2,2.19,2.6a.64.64,0,0,1,.26.91,4.51,4.51,0,0,1-2.87.58c-11.73-.26-20.82,4.67-27.65,14.08a9,9,0,0,1-2.44,2.85c-2.31.53-3.64-1-5-2.43,6.13-11.73,15.94-18.33,28.78-20.63C180.32,127.59,182.31,127.52,184.28,127.32Z" transform="translate(-30.76 -74.77)"/><path class="cls-36" d="M149.59,148.57c1.83.2,2.78,2.34,4.78,2.16.56,1.14-.09,2.13-.48,3.1a33.44,33.44,0,0,0,1.3,28.86,10.27,10.27,0,0,1,1.23,3c-.5,2.57-2.56,3.13-4.68,3.62l-.61-.5c-2.38-4.84-5-9.62-5.61-15.1C144.49,165,144.92,156.41,149.59,148.57Z" transform="translate(-30.76 -74.77)"/><path class="cls-37" d="M207.14,224.18c-.8-.88-1.86-.53-2.8-.54-7,0-14.07,0-21.1-.08,0-4.59-.11-9.19,0-13.79.06-1.85-.37-3.05-2.24-3.49a2.42,2.42,0,0,1,2-.77c12.52.39,22.81-4.27,31-13.77.58-.68,1.15-1.43,2.2-1.37,3.27,1.15,5.9,3.39,8.81,5.15,3.77,2.29,7.58,4.52,11.31,6.87,1.08.68,2.6,1,2.84,2.63Z" transform="translate(-30.76 -74.77)"/><path class="cls-38" d="M218.55,148a3.55,3.55,0,0,1,.47.08,41.76,41.76,0,0,1,4.4,22,36.86,36.86,0,0,1-7.23,19.8c-2.52.32-3.68-1.26-4.55-3.26.35-2.19,2-3.77,2.76-5.76a20.43,20.43,0,0,0,.88-2.82c1.12-3.76,2.23-7.51,1.93-11.51a30.31,30.31,0,0,0-1.06-8.09,29.57,29.57,0,0,0-2.51-6.8,1.9,1.9,0,0,1-.07-1.58C215.17,149.23,216.46,147.64,218.55,148Z" transform="translate(-30.76 -74.77)"/><path class="cls-39" d="M212,186.59a7.78,7.78,0,0,0,4.22,3.3,1.3,1.3,0,0,1,0,.48c-5.48,6.83-12.17,11.91-20.68,14.38a31.24,31.24,0,0,1-12.22,1.39c-1.34-1.76-.5-3.45.18-5.15a2.65,2.65,0,0,1,2.18-.87c10.18-.53,18.36-4.94,24.74-12.82a3.49,3.49,0,0,1,.81-.72A.79.79,0,0,1,212,186.59Z" transform="translate(-30.76 -74.77)"/><path class="cls-40" d="M183.76,200.88c.08,1.78-.87,3.46-.5,5.26l-2.23.14c-12.34-1.2-22.06-6.91-29.29-17,1.34-1.26,3.36-1.6,4.37-3.3a.83.83,0,0,1,.78,0c2.51,2.56,4.8,5.36,7.65,7.58a33.32,33.32,0,0,0,16.63,6.45,5.14,5.14,0,0,1,2.35.48Z" transform="translate(-30.76 -74.77)"/><path class="cls-41" d="M218.55,148c-1.72.51-2.92,2.18-4.87,2.2-1.81-.73-2.44-2.58-3.53-3.93a33.21,33.21,0,0,0-19.62-11.9c-1-.21-2.18-.15-2.95-1.09-.8-1.15-3.22.54-3.32-2.08-.11-3.09-.14-3.2,3.9-3.35C201.73,129.35,212,135.91,218.55,148Z" transform="translate(-30.76 -74.77)"/><path class="cls-42" d="M156.6,186.13a3.88,3.88,0,0,1-.49-.11,36.41,36.41,0,0,1-5.5-22.15c.37-4.67,2-8.91,3.76-13.14,4.16-6.77,9.6-12.09,17.07-15.09a29.27,29.27,0,0,1,12.87-2.33c1.54,3.7.76,7.51.53,11.28-.54,1.38-1.81,1.28-3,1.47-7.57,1.2-13.18,5.1-16.56,12.08-3,6.75-2.48,13.29,1.11,19.67a6.93,6.93,0,0,1,.7,1.45,1.49,1.49,0,0,1,0,.81C163.55,182,160.46,184.74,156.6,186.13Z" transform="translate(-30.76 -74.77)"/><path class="cls-26" d="M184.3,145.18c0-4,0-7.91,0-11.87l3.27,0c11.49,1.31,20.12,7.07,26.1,16.92l.44,1.1c-3.4,2.1-6.63,4.47-10.25,6.22a1.45,1.45,0,0,1-.76-.18c-2.65-3.94-5.68-7.44-10.17-9.44a32.33,32.33,0,0,0-8.08-2.17A1.22,1.22,0,0,1,184.3,145.18Z" transform="translate(-30.76 -74.77)"/><path class="cls-43" d="M217.92,166.49c.39,4.22-.68,8.18-2.15,12.08-1.06.87-2.34.74-3.58.74a62.1,62.1,0,0,0-10.11.49c-5,.18-9.93.14-14.89.06-3-.05-3.58-.67-3.64-3.73,0-2.26,0-4.52,0-6.78s1.12-3.09,3.16-3.11c3.68,0,7.37.11,11.06,0a11.74,11.74,0,0,0,3.73-.35,20.67,20.67,0,0,1,4.65-.22c2.92-.13,5.84-.05,8.77,0A4.06,4.06,0,0,1,217.92,166.49Z" transform="translate(-30.76 -74.77)"/><path class="cls-44" d="M217.92,166.49l-11.89,0c-1.71-2-1.76-4.64-2.29-7-.38-1.68,1.12-1.74,2.29-1.82,2.84-.2,5.72.26,8.55-.33a2.83,2.83,0,0,1,2.27.51C217.27,160.7,218.3,163.51,217.92,166.49Z" transform="translate(-30.76 -74.77)"/><path class="cls-45" d="M202.13,179c4.54-.56,9.09-.34,13.64-.4-.48,3.05-2.46,5.38-3.8,8l-.48.06a1.21,1.21,0,0,1-1.5.07c-3.05-1.85-6.35-3.3-8.94-5.85C200.66,179.81,201.65,179.53,202.13,179Z" transform="translate(-30.76 -74.77)"/><path class="cls-46" d="M216.85,157.82l-2.17.1c-3.22.34-6.45.07-9.67.15-.53,0-1.11,0-1.19-.73,3.21-2.39,6.35-4.92,10.3-6.05C215.44,153.29,216,155.63,216.85,157.82Z" transform="translate(-30.76 -74.77)"/><path class="cls-37" d="M201.16,180.66c3.5,1.9,6.61,4.48,10.33,6-5,7.46-12.11,11.67-20.75,13.56a41.88,41.88,0,0,1-7,.67v-.23c-1.56-3.77-.87-7.63-.45-11.48.76-1.32,2.21-.89,3.32-1.32,4.69-.83,8.91-2.58,12.25-6.14C199.47,181.09,200.07,180.28,201.16,180.66Z" transform="translate(-30.76 -74.77)"/><path class="cls-25" d="M183.74,188.87l0,11.78c-11.6-.06-20.56-5.09-27.17-14.52,3.25-2.35,6.37-4.92,10.35-6,1.92.32,2.77,2.1,4.14,3.15a20.21,20.21,0,0,0,10.24,4.32C182.28,187.69,183.36,187.64,183.74,188.87Z" transform="translate(-30.76 -74.77)"/><path class="cls-35" d="M164.81,157.82c3.86-8.3,10.63-12.09,19.49-12.64v.23c1,1,.82,2.34.84,3.58a100.57,100.57,0,0,1-1.1,19.39,1.51,1.51,0,0,1-.23.85c-.83.58-1.55.1-2.23-.32-5.1-3.2-10.24-6.34-15.35-9.52A2.86,2.86,0,0,1,164.81,157.82Z" transform="translate(-30.76 -74.77)"/><path class="cls-36" d="M164.81,157.82l18.41,11.41c.21,1.07-.67,1.42-1.31,1.8-4.23,2.54-8.28,5.36-12.52,7.88-.76.46-1.49,1.06-2.48.67C162,172.74,161.23,165.49,164.81,157.82Z" transform="translate(-30.76 -74.77)"/><path class="cls-47" d="M166.91,179.58c5.54-3.28,11-6.69,16.31-10.35h.53l.24.41c-.29,5,.65,10,.54,15,0,2,1.28,2.75,2.55,3.68-1,.82-2.23.33-3.34.54-1.28-.84-2.79-.45-4.17-.76a22.7,22.7,0,0,1-12.62-8C166.94,179.93,166.93,179.76,166.91,179.58Z" transform="translate(-30.76 -74.77)"/><path class="cls-41" d="M183.75,169.24c.07-8,.9-15.87.54-23.83,7.69-.41,15.79,4.61,19,11.81.16,1.33-1,1.53-1.78,2.05-3.05,2.13-6.37,3.85-9.58,6.22,3.39.94,6.72-.57,9.71,1-1.47,1.06-3.15.44-4.72.49-3.52.1-7.05.12-10.57,0-1.73-.06-2.27.67-2.13,2.23-.17.24-.33.22-.48,0Z" transform="translate(-30.76 -74.77)"/><path class="cls-38" d="M201.68,166.52c-3,0-6,0-9,0-.75,0-1.89.46-2.14-.55s1-1.17,1.61-1.58c3.68-2.42,7.42-4.77,11.13-7.14a3.89,3.89,0,0,1,.49.12c2.4,1,4.92.17,7.37.43,1.16.12,2.33.1,3.49.15-3.41.93-6.92-.08-10.55.63a48,48,0,0,1,1.9,8Z" transform="translate(-30.76 -74.77)"/><path class="cls-48" d="M183.78,169.23l.48,0c0,2.44.14,4.88,0,7.32-.09,1.87.5,2.53,2.43,2.48,5.14-.13,10.28-.06,15.42-.08-.32.57-.65,1.13-1,1.69-3.41,3.4-7.11,6.33-12,7.37-.69.15-1.41.2-2.12.3-2.69.38-3.52-.7-3.39-3.45C183.94,179.68,183.77,174.45,183.78,169.23Z" transform="translate(-30.76 -74.77)"/><path class="cls-49" d="M337.45,143.23q-1.38,30.06-2.75,60.13a2.49,2.49,0,0,1-.55,1.75c-2.27,2.27-5.2,3.56-7.9,5.17-7.2,4.3-14.44,8.55-21.65,12.84-1.15.69-2.26,1.53-3.73,1.41-6.31-.11-12.62,0-18.92-.05a11.24,11.24,0,0,1-3.74-.33,1.82,1.82,0,0,1-.77-.6c-1.06-3.89-.37-7.86-.48-11.79,0-1.95-.22-3.74-1.51-5.28.4-.85,1.21-.85,2-.94a38.24,38.24,0,0,0,39.81-39.36,37.37,37.37,0,0,0-3.79-16.24,3.3,3.3,0,0,1-.37-1.57,3.26,3.26,0,0,1,1.85-2.49c6.87-4.26,13.62-8.72,20.54-12.9.75-.45,1.5-1,2.49-.67v4.9C337.2,139.17,338.09,141.26,337.45,143.23Z" transform="translate(-30.76 -74.77)"/><path class="cls-50" d="M338,132.31q-11.62,7.2-23.22,14.42a6.18,6.18,0,0,0-1.22,1.4c-1.05.08-1.32-.82-1.73-1.46-7-10.67-16.79-16.8-29.47-18.27-1.24-.47-2.77.09-3.8-1.1-1.08-4.28-.41-8.49.46-12.69a1.68,1.68,0,0,1,.73-.69,12.27,12.27,0,0,1,4.55-.39c6.94,0,13.87-.11,20.8.07,3,.24,5.32,2.11,7.82,3.5,7.4,4.12,14.8,8.23,22.17,12.41a7.32,7.32,0,0,1,2.35,1.78l.56.48Z" transform="translate(-30.76 -74.77)"/><path class="cls-51" d="M337.45,143.23c0-2-.46-4.08.5-6v6A1.69,1.69,0,0,0,337.45,143.23Z" transform="translate(-30.76 -74.77)"/><path class="cls-52" d="M279.3,114.39c0,4.34-.83,8.65-.5,13-1.35,1.14-3.08.92-4.62,1.12-13.42,1.76-23,9-29.69,20.52-6,13.08-5.77,25.9,1.52,38.45a5.07,5.07,0,0,1,.44,1,1.6,1.6,0,0,1,0,.84c-4.12,3.21-8.73,5.67-13.08,8.54-2.47,1.63-5,3.16-7.5,4.8-1,.65-2,1.69-3.41.9l-1.83-33.8q-.94-17.84-1.87-35.68a4.88,4.88,0,0,1,.3-1.27c1.7-2.29,4.37-3.18,6.7-4.49,7.81-4.37,15.53-8.9,23.35-13.25a8.71,8.71,0,0,1,3.49-1.4c8-.29,16-.1,23.94-.11A3.38,3.38,0,0,1,279.3,114.39Z" transform="translate(-30.76 -74.77)"/><path class="cls-53" d="M222.48,203.54c4.16-1.56,7.42-4.64,11.27-6.73,4.25-2.3,7.9-5.6,12.45-7.4,1.1-.36,1.38.62,1.84,1.19a39.29,39.29,0,0,0,24.27,14.69c1.11.21,2.4,0,3.25,1.05,1.68.42,2.32,1.34,2.24,3.22-.18,4.69-.06,9.38-.06,14.08a2,2,0,0,1-1.71.64c-7.79-.74-15.61,0-23.4-.44-4-1.12-7-4-10.51-6-5.88-3.53-11.63-7.29-17.42-11a4.64,4.64,0,0,1-2.23-2.25Z" transform="translate(-30.76 -74.77)"/><path class="cls-54" d="M301.63,224.21q15.75-9.37,31.52-18.75a5.13,5.13,0,0,1,1-.35,63.08,63.08,0,0,1-4.08,13.68c-.94,2.33-3.44,4.12-5.48,5.89-5.11,4.45-9.7,9.44-14.58,14.14q-15.3,14.75-30.56,29.54a8.61,8.61,0,0,1-1.32.87c-.52-1.07.12-1.94.57-2.79,6.87-13.19,14-26.26,20.84-39.46A6.08,6.08,0,0,1,301.63,224.21Z" transform="translate(-30.76 -74.77)"/><path class="cls-55" d="M222.47,204.6l29.24,18.5c1.54,1,2.22,2.59,3,4.08,6.94,13.26,14,26.44,21.07,39.65.41.78,1,1.56.32,2.49-7.34-6.71-13.92-14.17-21-21.18-8.46-8.43-16.67-17.1-25.25-25.39-3.7-3.57-6-7.45-6.44-12.57A56.17,56.17,0,0,0,222.47,204.6Z" transform="translate(-30.76 -74.77)"/><path class="cls-56" d="M276.1,269.32c-4-7.59-7.92-15.2-11.92-22.77Q258,234.81,251.71,223.1c8.68.22,17.37-.48,26,.54h0c.91,1.06.82,2.36.84,3.62.28,13-.9,26-.56,39.06a8.33,8.33,0,0,1-.87,3.93C276.46,270.33,276.49,269.58,276.1,269.32Z" transform="translate(-30.76 -74.77)"/><path class="cls-57" d="M251.75,114.37l-32.67,18.42c1.13-3.41,2.18-6.86,3.43-10.23.73-2,2.76-2.81,4.25-4.06q23-19.2,46.16-38.26c1.8-1.48,3.63-2.93,5.44-4.39.57,1.14-.26,1.9-.8,2.68q-11.49,16.32-22.85,32.72A8.93,8.93,0,0,1,251.75,114.37Z" transform="translate(-30.76 -74.77)"/><path class="cls-58" d="M277.16,270.24c-.33-15.54.81-31.06.59-46.61,7,0,14.05,0,21.08,0,.95,0,2-.35,2.8.55q-6.57,12.57-13.14,25.14-5.19,9.93-10.36,19.88C277.69,269.46,277.81,270.22,277.16,270.24Z" transform="translate(-30.76 -74.77)"/><path class="cls-59" d="M337.39,131.29c-7.48-3.56-14.5-8-21.79-11.9l-9.5-5.12a5.53,5.53,0,0,1-2.2-2.32C296.61,101,289.26,90,282,79c-.61-.93-1.67-1.77-1.12-3.14,4.78,3.52,9,7.66,13.55,11.5Q305.82,97.1,317.1,107c5,4.31,10.08,8.48,14.74,13.1C334.85,123,336.11,127.25,337.39,131.29Z" transform="translate(-30.76 -74.77)"/><path class="cls-60" d="M251.75,114.37q12.4-17.76,24.8-35.53c.67-1,1.21-2,1.81-3,.55-.21.68-1.35,1.6-.73a5.35,5.35,0,0,1,.49,2.36c-.49,11-.08,22-.23,33,0,1.34.13,2.73-.86,3.86l-.06,0Z" transform="translate(-30.76 -74.77)"/><path class="cls-61" d="M279.36,114.36c0-11.48,0-23,0-34.43a41.25,41.25,0,0,1,.58-4.81l.91.74,15,22.82,10.26,15.59Z" transform="translate(-30.76 -74.77)"/><path class="cls-62" d="M282.67,127.93c12.85,1.15,22.46,7.6,29.52,18.19l1.32,2A43.49,43.49,0,0,1,318,169.84c-.94,17.26-14.56,32.82-31.58,35.85a29.85,29.85,0,0,1-8.59.48c-1.24-1.75-.25-3.43.16-5.13a2.6,2.6,0,0,1,2.16-.89c14-1,23.68-8.07,29.24-20.92a24.43,24.43,0,0,0,2.34-12.65,22.18,22.18,0,0,0-1-8.09,30.45,30.45,0,0,0-2.66-6.82,32.42,32.42,0,0,0-23.26-17.19c-1.15-.22-2.3-.45-3.44-.71-2.92-.66-3.8-1.8-3.2-4.37C278.82,126.5,281,127.92,282.67,127.93Z" transform="translate(-30.76 -74.77)"/><path class="cls-63" d="M278.27,200.91c-.16,1.76-.32,3.51-.47,5.26l-2.24.17c-12.36-1.16-22-7-29.36-16.93a3.13,3.13,0,0,0,0-.53,16.17,16.17,0,0,1,4.47-3,1.47,1.47,0,0,1,.77.16c2.48,2.59,4.78,5.39,7.64,7.58a33.87,33.87,0,0,0,16.63,6.46,5.1,5.1,0,0,1,2.34.48Z" transform="translate(-30.76 -74.77)"/><path class="cls-64" d="M282.67,127.93c-3.95.12-4.16.41-3.89,3.48.22,2.45,2.5.77,3.3,1.91-.78,1-1.87.77-2.9.82-12.08-.22-21.35,4.91-28.13,14.81-.55.81-.93,1.78-1.91,2.22-2.28.36-3.69-1-5-2.54,5.59-10.76,14.42-17.35,26.12-20.08,2.79-.65,5.7-.79,8.56-1.16C280.08,127.65,281.47,127.14,282.67,127.93Z" transform="translate(-30.76 -74.77)"/><path class="cls-65" d="M244.12,148.63c1.84.21,2.81,2.37,4.83,2.16a2.15,2.15,0,0,1,.07,1.72q-7.11,16,1.27,31.28c.38.69.9,1.41.35,2.27a7.54,7.54,0,0,1-4.45,2.82C238.15,178,237.2,159.55,244.12,148.63Z" transform="translate(-30.76 -74.77)"/><path class="cls-66" d="M312.39,166.56a23.09,23.09,0,0,1-2.45,13.11c-4.31,1.5-8.7.85-13.08.43a4.48,4.48,0,0,0-3.1-.54c-3.92.59-7.86.34-11.8.32-3.37,0-3.85-.57-3.9-3.95,0-1.08,0-2.16,0-3.23a25.31,25.31,0,0,1,.05-3.59c0-2.14,1.29-2.75,3.17-2.75,3.77,0,7.55,0,11.32,0A11,11,0,0,0,296,166a21,21,0,0,1,4.62-.21c2.92-.14,5.83-.06,8.75-.05A4,4,0,0,1,312.39,166.56Z" transform="translate(-30.76 -74.77)"/><path class="cls-67" d="M296.53,179.54l13.41.13c-6.05,13.83-16.7,20.76-31.67,21.24v-.22c-1.54-3.77-.86-7.62-.44-11.47.74-1.32,2.18-.91,3.28-1.32a19.79,19.79,0,0,0,12.62-6.48C294.47,180.58,295.19,179.55,296.53,179.54Z" transform="translate(-30.76 -74.77)"/><path class="cls-68" d="M278.83,133.36l3.25,0c11.85,1.56,20.84,7.35,26.52,18-3.47,2.09-6.65,4.68-10.48,6.16-1.12-.41-1.51-1.5-2.11-2.36a21.78,21.78,0,0,0-14.73-9c-1.12-.19-2.4-.06-3-1.42C278,140.91,277.24,137.08,278.83,133.36Z" transform="translate(-30.76 -74.77)"/><path class="cls-69" d="M312.39,166.56l-12-.07c-1.3-2.71-2.4-5.47-1.87-8.59a20.67,20.67,0,0,1,12.71,0A18,18,0,0,1,312.39,166.56Z" transform="translate(-30.76 -74.77)"/><path class="cls-70" d="M311.21,157.86c-3.28,0-6.57,0-9.86,0a4.22,4.22,0,0,0-2.82.52c-.48-.24-.47-.59-.23-1,3.22-2.39,6.35-4.93,10.3-6.06A23.87,23.87,0,0,1,311.21,157.86Z" transform="translate(-30.76 -74.77)"/><path class="cls-71" d="M250.64,186.06c-3.49-6-5.72-12.3-5.57-19.4a32.55,32.55,0,0,1,3.55-14.77c.07,0,.14-.15.22-.16,2.77-.31,9.53,4.11,10.45,6.84-1.5,5.28-2.1,10.55,0,15.86.67,1.69,1.69,3.18,2.35,4.85a1.52,1.52,0,0,1,0,.82c-2.76,2.35-6,3.92-9,5.92a1.55,1.55,0,0,1-1.55.14A3.78,3.78,0,0,1,250.64,186.06Z" transform="translate(-30.76 -74.77)"/><path class="cls-72" d="M251.1,186.16c3.57-1.79,6.55-4.61,10.35-6a1.08,1.08,0,0,1,1.18.43,23.45,23.45,0,0,0,13.48,7.31,3,3,0,0,1,2.13,1l0,11.79C266.7,200.58,257.71,195.6,251.1,186.16Z" transform="translate(-30.76 -74.77)"/><path class="cls-73" d="M258.74,158.41c-.1-.33-.09-.84-.32-1-3.2-2-6-4.7-9.8-5.54l.33-1.1c5-8.37,12-14.17,21.62-16.59a26.44,26.44,0,0,1,8.26-.84c0,4,0,7.95-.05,11.93l-.24.31c-2.4.75-4.93.89-7.29,1.86A21.81,21.81,0,0,0,259.8,158,.93.93,0,0,1,258.74,158.41Z" transform="translate(-30.76 -74.77)"/><path class="cls-74" d="M298.3,157.41c.08.33.15.66.23,1a35,35,0,0,1,1.84,8.09l-4.15.1c-5.64.53-11.29.09-16.94.25-1.19,0-1.52-.75-1.71-1.68a9,9,0,0,1,0-3.23c.67-4.21.25-8.45.38-12.67.05-1.34-.14-2.74.9-3.84l-.06-.13C287.6,145.59,293.93,149.91,298.3,157.41Z" transform="translate(-30.76 -74.77)"/><path class="cls-64" d="M278.84,145.42c-.15,6.2.32,12.42-.57,18.59-.3,2,.56,2.64,2.57,2.6,5.12-.12,10.25,0,15.38,0-2.45.93-5,.27-7.48.4a73.64,73.64,0,0,1-7.86.08c-1.77-.1-2.22.7-2.17,2.2a1.31,1.31,0,0,1-1.09.4c-6-3.2-11.55-7-17.31-10.54a2.16,2.16,0,0,1-1-1.26A21,21,0,0,1,278.84,145.42Z" transform="translate(-30.76 -74.77)"/><path class="cls-63" d="M277.73,169.29l1,0v3.35c-.72,4.41.66,8.75.44,13.14-.09,1.67,1.68,1.67,2.4,2.62-1,.73-2.21.3-3.31.52-6.73-.73-12.45-3.4-16.79-8.75a4.53,4.53,0,0,0,0-.52c1.41-2.29,4-3,6.06-4.38C270.78,173.08,273.88,170.52,277.73,169.29Z" transform="translate(-30.76 -74.77)"/><path class="cls-75" d="M281.55,188.38c-2.73.4-3.6-.79-3.32-3.47.42-4.08-.49-8.22.48-12.29.33,2-.84,4.69.56,6s4.13.37,6.27.42a59.8,59.8,0,0,0,8.35-.26c.81-.09,2.22-.9,2.64.8-3.21,3.67-6.71,6.93-11.58,8.22C283.84,188.06,282.69,188.18,281.55,188.38Z" transform="translate(-30.76 -74.77)"/><path class="cls-65" d="M277.73,169.29c-5.31,3.65-10.77,7.06-16.31,10.34A20.5,20.5,0,0,1,258,161c.23-.87.49-1.73.73-2.59l.6-.54Z" transform="translate(-30.76 -74.77)"/><path class="cls-76" d="M432,143.13c-1.22,3.43-.7,7.05-.9,10.56-.8,14.4-1.26,28.83-2,43.23-.14,2.64.16,5.38-.84,8a6.33,6.33,0,0,1-2.58,2.31q-12.93,7.6-25.84,15.29c-1.51.9-3,2.1-4.92,2-6.27-.11-12.53,0-18.79,0a11,11,0,0,1-4-.38,1.6,1.6,0,0,1-.74-.67,70.57,70.57,0,0,1-.14-16.56c.53-1.22,1.64-1.28,2.73-1.31,12.42-.42,22.34-5.67,29.87-15.53,8.67-12.48,9.89-25.68,3.86-39.59a7.58,7.58,0,0,1-.56-1.53c-.2-1.49.68-2.36,1.79-3,6.88-4.28,13.64-8.73,20.57-12.92.76-.46,1.5-1,2.49-.67v2.18a13.71,13.71,0,0,0,0,6Z" transform="translate(-30.76 -74.77)"/><path class="cls-77" d="M432,132.25l-23.12,14.33a2.33,2.33,0,0,0-1.29,1.94c-.49.22-.78-.08-1.06-.41-5.89-10.43-14.83-16.65-26.44-19.18a32,32,0,0,0-4-.39c-1.43-.13-2.91-.25-3.72-1.76a26.61,26.61,0,0,1,1-12.71,5.39,5.39,0,0,1,3.16-.53c7.5,0,15,0,22.5,0,3,.15,5.32,2.09,7.83,3.45,7.44,4,14.78,8.25,22.16,12.4a5.86,5.86,0,0,1,2.48,2l.49.3Z" transform="translate(-30.76 -74.77)"/><path class="cls-78" d="M432,140.41a7.07,7.07,0,0,1,0-6Z" transform="translate(-30.76 -74.77)"/><path class="cls-79" d="M373.34,114.37c.22,4.34-.95,8.61-.49,13a3.88,3.88,0,0,0-.26.31,7,7,0,0,1-3.11.88c-14.17,1-24,8.57-31,20.45-5.67,11.82-6,23.66-.1,35.52a15.42,15.42,0,0,1,1.7,4c0,1.54-1.24,2.12-2.29,2.78-6.14,3.84-12.3,7.63-18.37,11.57-.86.55-1.73,1.46-2.94.69-.55-9.64-1.14-19.28-1.66-28.93q-1.06-20.15-2-40.29a6.41,6.41,0,0,1,.28-1.54c1.69-2.27,4.33-3.18,6.65-4.47,7.85-4.39,15.6-9,23.45-13.31a8.72,8.72,0,0,1,3.48-1.4c8-.29,16-.1,24-.1A3.16,3.16,0,0,1,373.34,114.37Z" transform="translate(-30.76 -74.77)"/><path class="cls-80" d="M316.48,203.51c4.6-2.08,8.58-5.17,12.83-7.82,3.54-2.22,7.41-4,10.45-7a.85.85,0,0,1,.79,0,54.79,54.79,0,0,0,8.78,9,40.43,40.43,0,0,0,21.93,8,.89.89,0,0,1,.52.6q0,8.58,0,17.16c-1.62,1.44-3.63,1-5.43.85-6.56-.66-13.14-.32-19.7-.6-4.08-1.13-7.18-4-10.71-6.15-5.8-3.46-11.45-7.17-17.15-10.79a4.8,4.8,0,0,1-2.29-2.2Z" transform="translate(-30.76 -74.77)"/><path class="cls-81" d="M395.69,224.15l32.56-19.28a63,63,0,0,1-4.18,14c-.92,2.25-3.46,3.86-5.34,5.68Q396.32,246.27,373.86,268a19.83,19.83,0,0,1-1.91,1.48c-.2-2.45,1.38-4.24,2.41-6.17Q383.21,246.67,392,230C393.05,228,393.94,225.79,395.69,224.15Z" transform="translate(-30.76 -74.77)"/><path class="cls-82" d="M316.51,204.68l29.24,18.41c1.53,1,2.21,2.6,3,4.1,7,13.28,14.05,26.48,21.1,39.71.42.78,1,1.57.37,2.51-5.28-5.32-10.58-10.63-15.84-16q-17-17.31-34.06-34.63a6.37,6.37,0,0,1-1.86-3.76C317.91,211.58,317.17,208.14,316.51,204.68Z" transform="translate(-30.76 -74.77)"/><path class="cls-83" d="M370.21,269.41c-4.65-8.84-9.27-17.7-13.93-26.53-3.49-6.61-7-13.2-10.53-19.79,8.69-.42,17.35.63,26,.48l0,0c1,1.14.83,2.53.86,3.87.27,12.9-.9,25.78-.59,38.68,0,1.32.22,2.91-1.35,3.74Z" transform="translate(-30.76 -74.77)"/><path class="cls-84" d="M345.86,114.22l-32.8,18.53c1.12-3.34,2.25-6.66,3.35-10a4.27,4.27,0,0,1,1.43-1.93L372,75.87a6.17,6.17,0,0,1,.7-.42c.31,1.34-.61,2.22-1.27,3.15q-11.22,16-22.37,32C348.18,112,347.36,113.41,345.86,114.22Z" transform="translate(-30.76 -74.77)"/><path class="cls-85" d="M370.69,269.9c.78-.73.5-1.69.51-2.57,0-2.54,0-5.08,0-7.61-.15-12,.93-24.06.56-36.11,7.12,0,14.24,0,21.36,0,.87,0,1.83-.28,2.56.5q-7.65,14.61-15.31,29.22-4.2,8-8.43,16.05C371.57,269.71,371.61,271.09,370.69,269.9Z" transform="translate(-30.76 -74.77)"/><path class="cls-86" d="M431.51,131.41q-13.74-7.64-27.49-15.28c-1.26-.7-2.57-1.31-3.86-1.95a2.31,2.31,0,0,1-.68-.39,7.63,7.63,0,0,1-1.68-2.11q-11-16.52-22-33c-.63-1-1.57-1.82-1.28-3.16,4.42,3.13,8.29,6.93,12.39,10.45,12.46,10.69,24.79,21.53,37.24,32.24C428.3,121.71,429.75,126.62,431.51,131.41Z" transform="translate(-30.76 -74.77)"/><path class="cls-87" d="M399.84,113.73l.32.45-26.82.19-27.48-.14q12.33-17.7,24.64-35.38c.78-1.11,1.49-2.26,2.24-3.4.39-.25.6-1.12,1.28-.37a5.65,5.65,0,0,1,.45,2.37c-.48,10.38-.12,20.77-.21,31.16,0,4.27,0,4.28,4.38,4.28,5.77,0,11.54,0,17.31,0A6.38,6.38,0,0,1,399.84,113.73Z" transform="translate(-30.76 -74.77)"/><path class="cls-88" d="M399.84,113.73c-7.93,0-15.86,0-23.79.08-2.19,0-2.73-.67-2.71-2.77.09-10.39,0-20.78.07-31.16a39.37,39.37,0,0,1,.61-4.8l.53.4,23.89,36C398.93,112.19,399.37,113,399.84,113.73Z" transform="translate(-30.76 -74.77)"/><path class="cls-89" d="M407,148l.59.49c7.07,13.58,5.68,31.28-3.29,41.86a9.28,9.28,0,0,1-4.52-3.38c1.06-3.17,3.37-5.75,4.22-9a26,26,0,0,0,1.74-11.45,21.8,21.8,0,0,0-1-8.14c-.47-2.63-2.14-4.87-2.44-7.55A4.79,4.79,0,0,1,407,148Z" transform="translate(-30.76 -74.77)"/><path class="cls-90" d="M400,187.2c1.53.91,3.24,1.59,4.27,3.18-7.32,10-17.28,15.15-29.56,15.91-1,.06-2,.08-3,.12v-.23c-1.3-1.79-.51-3.5.21-5.2a3,3,0,0,1,2.44-.88A32.58,32.58,0,0,0,397,189.5C397.84,188.6,398.37,187.09,400,187.2Z" transform="translate(-30.76 -74.77)"/><path class="cls-91" d="M407,148a14.29,14.29,0,0,0-4.33,2.77c-2.44-1.11-3.23-3.7-4.85-5.54a32.22,32.22,0,0,0-22-11.22c-1.34-.13-2.75-.06-3.45-1.58-.32-1.69-.71-3.38.51-4.91l0-.22c9,.53,17.34,2.92,24.41,8.75C401.29,139.4,405,143,407,148Z" transform="translate(-30.76 -74.77)"/><path class="cls-92" d="M340.21,188.86l-.45-.13c-5.63-9.34-7.73-19.35-5.44-30.12a27.87,27.87,0,0,1,3.8-10c2.23-.58,3.38,1.34,5,2.15a1.58,1.58,0,0,1,.09.86c-1.81,4.91-3.44,9.79-3.37,15.21a35.51,35.51,0,0,0,3.62,15.39,11.26,11.26,0,0,1,1.5,3.74C344.11,188.08,342.67,189.3,340.21,188.86Z" transform="translate(-30.76 -74.77)"/><path class="cls-93" d="M342.9,150.74c-2,.16-2.95-2-4.78-2.17,3.31-7,8.67-12,15.22-15.91a38.68,38.68,0,0,1,19.54-5.11c0,1.77,0,3.55,0,5.32a1.38,1.38,0,0,1-.82.88c-2.84.42-5.73.44-8.51,1.33a33.15,33.15,0,0,0-18,13.1C344.82,149.19,344.35,150.49,342.9,150.74Z" transform="translate(-30.76 -74.77)"/><path class="cls-94" d="M340.21,188.86a7.91,7.91,0,0,0,4.42-2.8.78.78,0,0,1,.78,0c2.53,2.55,4.8,5.36,7.65,7.58a33.36,33.36,0,0,0,16.64,6.46,5.26,5.26,0,0,1,2.35.47l.24.33c.06,1.79-.82,3.49-.51,5.31C358.23,205.94,347.77,200,340.21,188.86Z" transform="translate(-30.76 -74.77)"/><path class="cls-77" d="M372.28,133.29l.58-.42c3.88.65,7.83.84,11.57,2.26,8,3,13.87,8.45,18.24,15.67.87,2.35,2.09,4.57,2.59,7-1,1-2.36.73-3.59.74a36.27,36.27,0,0,0-8.32.57c-1.29.07-1.59-1-2.05-1.85-3.52-6.55-9.08-10.12-16.31-11.27-1-.16-2-.14-2.58-1.2A43.36,43.36,0,0,1,372.28,133.29Z" transform="translate(-30.76 -74.77)"/><path class="cls-95" d="M406.42,166.5a22.25,22.25,0,0,1-2,12c-1.16.88-2.53.77-3.87.8-3.3.08-6.62-.23-9.91.4-4.77.33-9.56.16-14.33.15-3.74,0-4.2-.54-4.25-4.24,0-1,0-2,0-3,0-1.94-.3-3.91.68-5.73a3.53,3.53,0,0,1,2.3-.68c6.5,0,13-.09,19.5-.53,3-.14,5.92-.05,8.88,0A4,4,0,0,1,406.42,166.5Z" transform="translate(-30.76 -74.77)"/><path class="cls-96" d="M390.71,179c4.54-1,9.15-.3,13.73-.48-.88,3.19-2.78,5.86-4.41,8.67-7.13,8.86-16.31,13.56-27.74,13.67v-.19c-1.54-3.77-.86-7.64-.45-11.49.74-1.33,2.17-.91,3.28-1.32a21,21,0,0,0,13-6.92A11.75,11.75,0,0,1,390.71,179Z" transform="translate(-30.76 -74.77)"/><path class="cls-97" d="M406.42,166.5l-12-.07a11.08,11.08,0,0,1-1.54-7.68c4-1.78,8.27-.51,12.4-.9A17.87,17.87,0,0,1,406.42,166.5Z" transform="translate(-30.76 -74.77)"/><path class="cls-79" d="M372.28,133.29c1.19,2.56.31,5.27.54,7.89.11,1.34,0,2.69,0,4l-.24.33c-2.53,1-5.3.92-7.79,2.09a21.33,21.33,0,0,0-9.75,8.25,3.35,3.35,0,0,1-1.62,1.74c-1.8.31-3.06-.89-4.33-1.77-2.08-1.44-4.74-2.13-6.08-4.55l-.12-.56c4.18-6.73,9.58-12.1,17.05-15.1A28.39,28.39,0,0,1,372.28,133.29Z" transform="translate(-30.76 -74.77)"/><path class="cls-98" d="M343,151.3c3.45,1.94,6.48,4.59,10.26,6a1.17,1.17,0,0,1,.35.77c-2,5.69-2.44,11.37-.05,17.09.58,1.4,1.66,2.59,1.79,4.18a1.59,1.59,0,0,1-.5,1.22c-3.08,2.2-5.88,4.9-9.8,5.63a3.12,3.12,0,0,1-.44-.09c-4.12-6.94-6.26-14.37-5.43-22.49A27.49,27.49,0,0,1,343,151.3Z" transform="translate(-30.76 -74.77)"/><path class="cls-80" d="M345.07,186.15c3.33-2.18,7.05-3.77,9.9-6.67a.88.88,0,0,1,.79,0c3.95,4.38,8.46,7.75,14.61,8.17.81.06,1.64.22,1.9,1.2l0,11.83C360.73,200.52,351.71,195.57,345.07,186.15Z" transform="translate(-30.76 -74.77)"/><path class="cls-99" d="M392.86,158.75a42,42,0,0,1,1.54,7.68c-7.18.82-14.41.1-21.6.69a.69.69,0,0,1-.86-.37,5.88,5.88,0,0,1-.45-3.45,131.93,131.93,0,0,0,.53-15.14,3.63,3.63,0,0,1,.83-2.77l0-.18Q386.89,146,392.86,158.75Z" transform="translate(-30.76 -74.77)"/><path class="cls-94" d="M372.29,167.08a2.92,2.92,0,0,1,.51,0l-.09,5.43c-.68,4.41.68,8.74.46,13.12-.09,1.66,1.62,1.73,2.37,2.65l-3.27.53c-4.85-.69-9.48-1.9-13.29-5.26a14.71,14.71,0,0,1-3.55-4c2.27-2.8,5.7-4,8.5-6,2.32-1.7,4.94-3,7.23-4.7C371.65,168.36,371.69,167.54,372.29,167.08Z" transform="translate(-30.76 -74.77)"/><path class="cls-90" d="M375.54,188.32c-2.83.47-3.53-.9-3.28-3.49.39-4.08-.47-8.21.45-12.28,0,.09,0,.18.05.27.28,1.94-.8,4.48.48,5.69s3.92.32,5.95.44c3.83.22,7.68-.42,11.52.06C387,184.25,382.09,187.66,375.54,188.32Z" transform="translate(-30.76 -74.77)"/><path class="cls-93" d="M372.29,167.08c-.06.75.26,1.59-.53,2.16a2.24,2.24,0,0,1-2-.56c-4.91-3.07-9.84-6.09-14.76-9.13a3.28,3.28,0,0,1-1.65-1.73l-.07-.56c3.67-6.22,8.78-10.47,16.08-11.66a31,31,0,0,1,3.49-.21C373,152.63,372.71,159.85,372.29,167.08Z" transform="translate(-30.76 -74.77)"/><path class="cls-92" d="M353.35,157.82l18.41,11.42c-5.31,3.66-10.79,7.06-16.33,10.36l-.46-.12c-3.86-6.48-5.15-13.25-2.26-20.48A9.66,9.66,0,0,1,353.35,157.82Z" transform="translate(-30.76 -74.77)"/></svg>