<svg id="Layer_1" data-name="Layer 1" xmlns="http://www.w3.org/2000/svg" xmlns:xlink="http://www.w3.org/1999/xlink" viewBox="0 0 600 393.25"><defs><style>.cls-1{fill:#48bfe3;}.cls-2{fill:url(#radial-gradient);}.cls-3{clip-path:url(#clip-path);}.cls-4{fill:#60c;}.cls-5{fill:#4ea8de;}.cls-6{fill:#919191;}.cls-7{fill:#969696;}.cls-8{fill:#7f7f7f;}.cls-9{fill:#c9c9c9;}.cls-10{fill:#c3c3c3;}.cls-11{fill:#797979;}.cls-12{fill:#b9b9b9;}.cls-13{fill:#b4b4b4;}.cls-14{fill:#c5c5c5;}.cls-15{fill:#030201;}.cls-16{fill:#030403;}.cls-17{fill:#040403;}.cls-18{fill:#fbe67c;}.cls-19{fill:#fbe159;}.cls-20{fill:#fce25a;}.cls-21{fill:#fae57b;}.cls-22{fill:#fce259;}.cls-23{fill:#f4df78;}.cls-24{fill:#fcde30;}.cls-25{fill:#f0f9fd;}.cls-26{fill:#ddf4fb;}.cls-27{fill:#97e3f9;}.cls-28{fill:#a599a5;}.cls-29{fill:#eef7fb;}.cls-30{fill:#fefefe;}.cls-31{fill:#00b5fc;}.cls-32{opacity:0.52;fill:url(#linear-gradient);}</style><radialGradient id="radial-gradient" cx="300.23" cy="54.9" r="195.41" gradientTransform="translate(0 41.69) scale(1 0.28)" gradientUnits="userSpaceOnUse"><stop offset="0" stop-color="#2b3f47" stop-opacity="0.07"/><stop offset="0.15" stop-color="#4cc9f0"/><stop offset="0.17" stop-color="#42a9c9" stop-opacity="0.89"/><stop offset="0.2" stop-color="#37869e" stop-opacity="0.76"/><stop offset="0.23" stop-color="#2d6678" stop-opacity="0.65"/><stop offset="0.27" stop-color="#244c59" stop-opacity="0.56"/><stop offset="0.3" stop-color="#1e373f" stop-opacity="0.48"/><stop offset="0.34" stop-color="#19272b" stop-opacity="0.42"/><stop offset="0.38" stop-color="#151b1d" stop-opacity="0.38"/><stop offset="0.43" stop-color="#131415" stop-opacity="0.36"/><stop offset="0.51" stop-color="#121212" stop-opacity="0.35"/><stop offset="0.8" stop-color="#292627" stop-opacity="0.02"/><stop offset="1" stop-opacity="0"/></radialGradient><clipPath id="clip-path" transform="translate(0 -14.75)"><path class="cls-1" d="M295.11,392.78s-39.91-3.77-51-14.7c0,0-8.64-45.54-7.83-56.68,0,0-33-46.67-33.65-70.41,0,0-26.53,4.63-60.08-25,0,0-47.26-9.89-79.31-63.35,0,0-14,12.36-32.29-13.39,0,0-21.57-8.29-20.8-12.42,0,0-1.53-7.3.15-18.67s40.56,7.75,40.56,7.75l1.36,5.84,115.58,74.49,70.48-10,137,.11,44.06,13.52,166.79-91.1s3,12.27.21,15.15-6.21,8.88-20.52,16.09c0,0-6.29,8.81-9.1,8,0,0-7.21,5.6-19.22,6.81,0,0-48.12,63-90.79,66.48,0,0-16.82,25.06-53,16.43,0,0-3.05,32.41-34,73.61,0,0-3.74,54.52-6.41,56.68S339,393.58,295.11,392.78Z"/></clipPath><linearGradient id="linear-gradient" x1="299.99" y1="72" x2="299.99" y2="179.14" gradientUnits="userSpaceOnUse"><stop offset="0" stop-color="#4cc9f0" stop-opacity="0.88"/><stop offset="0.03" stop-color="#4cc9f0" stop-opacity="0.84"/><stop offset="0.09" stop-color="#4dc9f0" stop-opacity="0.73"/><stop offset="0.17" stop-color="#4ecaf0" stop-opacity="0.55"/><stop offset="0.23" stop-color="#4fcaf0" stop-opacity="0.38"/><stop offset="0.31" stop-color="#8adcf5" stop-opacity="0.32"/><stop offset="0.43" stop-color="#fff" stop-opacity="0.2"/></linearGradient></defs><ellipse class="cls-2" cx="300.23" cy="57.23" rx="198.3" ry="57.23"/><path class="cls-1" d="M295.11,392.78s-39.91-3.77-51-14.7c0,0-8.64-45.54-7.83-56.68,0,0-33-46.67-33.65-70.41,0,0-26.53,4.63-60.08-25,0,0-47.26-9.89-79.31-63.35,0,0-14,12.36-32.29-13.39,0,0-21.57-8.29-20.8-12.42,0,0-1.53-7.3.15-18.67s40.56,7.75,40.56,7.75l1.36,5.84,115.58,74.49,70.48-10,137,.11,44.06,13.52,166.79-91.1s3,12.27.21,15.15-6.21,8.88-20.52,16.09c0,0-6.29,8.81-9.1,8,0,0-7.21,5.6-19.22,6.81,0,0-48.12,63-90.79,66.48,0,0-16.82,25.06-53,16.43,0,0-3.05,32.41-34,73.61,0,0-3.74,54.52-6.41,56.68S339,393.58,295.11,392.78Z" transform="translate(0 -14.75)"/><g class="cls-3"><path class="cls-1" d="M299.3,407.86q-146.79,0-293.57.14C.94,408,0,407.06,0,402.26Q.26,231.36,0,60.47c0-4.8.94-5.74,5.73-5.74q294.27.23,588.54,0c4.79,0,5.74.94,5.73,5.73q-.25,170.91,0,341.8c0,4.8-.94,5.75-5.73,5.74Q446.79,407.73,299.3,407.86Z" transform="translate(0 -14.75)"/></g><path class="cls-4" d="M126.07,211.48c-6-2.15-11.15-5.59-16.37-9l.8-1.47c5.71,3,11.39,6.11,17.07,9.16C126.09,209.48,125.89,210.26,126.07,211.48Z" transform="translate(0 -14.75)"/><path class="cls-4" d="M584.36,128.84c4-2.88-.17-3.74-1.37-5.33.79-1.83,4.26-2.54,3.16-4.69-1.31-2.54-3.94-.52-6-.2-1.77.26-3.57.35-5.34.5.22-1.14,2.29-3.72-.9-2.75-9.67,2.94-20,3.91-28.64,9.91-1.44,2.82-.91,6.24-2.37,8.93.62-2,1.62-4.05-.19-6.16-1.76-3-2.22-5.89-.56-9.26a45.11,45.11,0,0,0,2.71-8.63c.54-2.06,1-4.47-1.31-5.65-3-1.53-3.4,1.61-4.35,3.11-5.65,8.86-10.86,17.94-12.34,28.63-.24,1.83-.41,4.58-1.55,5.24-4.88,2.74-8.77,6.91-13.63,9.49-3.62,1.91-6,8.79-11.87,3.85-16.69,6.26-34.71,9.5-49,21.27-5.92,4.9-11,10.86-20.11,5.44-3.29-2-8.22-.43-12.35.49-6.81,1.51-13.63,3-20.45,4.41-1.8.37-3.85.92-5.46.39-16.19-5.33-32.23-6.75-48.15,1-1.16.56-2.73,1.31-3.81-.67-2.79-5.12-12.15-7.48-17.5-4.51a11.85,11.85,0,0,0-3.14,1.4,8,8,0,0,0,1.83-2.72c4.2-6.43,5.6-13.92,7.92-21.08-21-.59-42-1.25-63,.48.11.3.24.59.35.89,2.28,6,4,12.13,5.76,18.3a10.37,10.37,0,0,0,1.18,2.79c-.77-.53-1.55-1-2.34-1.52-6.09-4.31-10.21.9-14.93,3.13-3.63,1.72.43,3.42.22,6.05-13.65-8.24-28.17-10.32-42.62-6-10,3-19.06,1.29-28.5-.71-2.51-.52-5-1.12-7.5-1.6-6.73-1.29-13.44-2.1-19.59,2-1.68,1.12-2.74.95-4.13-.51-13.62-14.11-31.06-21.85-49.6-25.38-11.67-2.21-20.55-7.38-29.61-14-3.37-2.45-5-4.9-5.59-8.69-1.68-10.62-7-19.65-12.62-28.54-.8-1.27-1.36-3.41-3.49-2.64s-2.32,2.9-1.87,4.75a98.68,98.68,0,0,0,3.34,11.36c1.57,4.19.47,7.31-2.82,10.38-.86-3,.15-6.17-3.59-7.33-8.2-2.56-16.3-5.48-24.5-8-1.89-.6-4.75-.93-3,2.88a6.57,6.57,0,0,0,.95,1.36c-.88-.35-1.74-.73-2.6-1.1-3.05-.64-5.89-2.69-9.21-1.4-.88,2.52,2.35,3.21,2.35,5.33-4,1.86-2,3.73,0,5.62-1.19,2.28-3.21,4.47-.41,7.07a40.58,40.58,0,0,0,13,8.26c3.21,1.21,5.72-.19,2.88-4.23a13.18,13.18,0,0,0-1.65-1.53,9.85,9.85,0,0,0,1.55.28l2.81-.05a6.23,6.23,0,0,0,1.32-1.11,7.08,7.08,0,0,0,.08,1.11c.65,12.39,18.65,23.58,29.29,17,5.51-3.44,6.75-.69,9.29,1.92,9.59,9.82,17.57,21.11,27.74,30.4,11.12,10.18,23.6,17.12,39,17.34,1.24-2.22-2.14-2.88-1.19-5.25,10.88,1.05,17.06,9.35,24.32,15.93a7.71,7.71,0,0,0,1.27,2.13,10.43,10.43,0,0,0-2.43-1.07c-4.58-3-8.86-6.6-14.23-8.2-1-.32-3.53-2.08-3.57.8,0,4.3-2.91,3.33-5,3a82.66,82.66,0,0,1-9.23-2.65l-1.5,1.29c6.15,2.73,12.43,6,19.26,4.5,4.74-1,8.17.36,11.51,3,4.77,3.71,9.42,7.54,14,11.41a36,36,0,0,0,13.94,7.55c8.25,2.15,15.2.41,19.7-5.52-15.59,6.38-27-.61-37.94-9.57a16.28,16.28,0,0,0-1.85-2.31,11.74,11.74,0,0,0,3.1,1.1c13.85,7.79,27.83,10.91,43.1,1.48a57.46,57.46,0,0,0-22.05-10.71,17.93,17.93,0,0,1,9.57.24,64.69,64.69,0,0,0,9.61,1.61c8.31.82,12-2.85,11.08-10.83,3.59-.22,4.79,2.71,6,5.05a133.1,133.1,0,0,1,6.79,15.25c6,16.69,16.13,29.7,32.11,37.83.65.32,1.83.62.88,2.25-5.46-.79-10.39-3.22-15.18-6-1.38-.81-2.78-2.38-4.35-1.28-1.78,1.24-1.14,3.35-.77,5.16a22.09,22.09,0,0,1-.32,10.94c-2.19,8,2.84,16,8.71,22.45,4.64,5.08,8.92,1,13.33-.3a29.84,29.84,0,0,1,3.42-.62c2-.65,4.28-1.05,6,.08a8.68,8.68,0,0,0,1.44.76,5.17,5.17,0,0,0-1.83.56c-4.47.49-8.47,1.85-8.92,7.09-.34,3.74.95,7.31,2.56,10.74s4.79,4.77,9.48,5.59c-4.94,2.15-9.7,2.64-9.55,7.85.28,10.4,8.22,14.68,17,19.2l-8.67.52c4.78,10.41,7.55,21.14,15.85,29.09,3.51,3.36,5.65,3.19,9.14.07,8.88-7.89,12.19-18.71,16.75-29-3.27-1.25-6.51.86-10-1.27a23.59,23.59,0,0,0,12.32-5.89q13.36-12-1.84-20.61c7.28-2.49,11.13-8.26,10.73-15.82-.28-5.44-4-6.82-8.41-7.49a6.91,6.91,0,0,0-2.8-1.07,17.94,17.94,0,0,1-7.18.36,18.21,18.21,0,0,1-2.71-.24c1-.12,2.07-.19,3.25-.23,2.19.19,4.47-.26,6.64.11,3.23-.63,6.45-1.42,9.74-.26,5.12,1.14,9.92,5.57,15.55,1.53.73-3,4-4.05,5.27-6.65-.45-5.23,3.74-9.35,3.51-14.54-.07-1.72.53-4.92-1.55-4.41-4.41,1-3-.38-1.7-2.56a27.82,27.82,0,0,0,1.87-4.51c.78-2.2,1.78-4.82-.21-6.52s-3.72.9-5.47,1.7c-5.39,2.52-10.43,6.07-17.25,5.06,19.34-9,26.69-17,34.71-37.06,2.33-5.83,4.86-11.59,7.6-17.23,1.31-2.7,3-5.41,6.38-6.79-.92,10.15,2.24,13.12,12,12,3.32-.38,6.71-2.41,10.88-.23-5.28,3-10.4,4.41-14.38,8.3,8.51,6,17.5,7.37,27,5.54,11.18-2.15,20-8.53,27.81-16.43,5.87-5.95,12.34-11,20.41-14.3.49,3.32-3.38,4.33-2.5,7.42,1.57,0,3.18.07,4.79,0s3.23-.41,4.84-.67c16.35-2.77,27.94-13.11,38.71-24.64,7-7.49,13.7-15.25,20.67-22.78,1.1-1.2,2.47-3.89,4.35-2.43,7.65,5.92,15.24,1.6,22.45-.25,7.74-2,9.8-6.56,8.88-14.91-1.51-.92-1.33-2.43-1.36-3.85a6.25,6.25,0,0,1,1-1.09c-.3-.78-.75-1.51-1.1-2.28a3.64,3.64,0,0,0,2.22,1.44A8,8,0,0,0,563,134a5.65,5.65,0,0,1,.24.73c.6,1.38-.69,2.82.17,4.21,2-1.5,3.76.63,5.67.26a15.64,15.64,0,0,0,5-3.12c-1.51,1.64-3.57,2.56-5.31,3.92-2.24,2.11-2.39,4.84.92,4.64,5.53-.34,9.53-4.71,13.91-7.76,2.46-1.72,3.55-4.07-.4-5.89C582.77,130.73,583.51,129.46,584.36,128.84Zm-551.71,6.3A18.1,18.1,0,0,0,31,132.67a3.28,3.28,0,0,0,2.64.06A19.31,19.31,0,0,0,32.65,135.14ZM293.42,318.9c3.37-1.16,4.62-3.12,5-5.4a23,23,0,0,1,.11-3.87,17.68,17.68,0,0,1-.11,3.87c.2,2.26,1.21,4.22,4.47,5.38C299.55,323.46,296.39,320.77,293.42,318.9Z" transform="translate(0 -14.75)"/><path class="cls-4" d="M35,132l0-.07.08-.06Z" transform="translate(0 -14.75)"/><path class="cls-4" d="M525.66,169.57c2.21-2.3,4.4-4.62,6.6-6.92a8.94,8.94,0,0,1-4.9,7.07c-2.84,3.2-5.4,6.67-9.27,8.78l-8.37,7.26c-.39-.47-.8-.94-1.2-1.4l8.53-6.9Q521.37,173.53,525.66,169.57Z" transform="translate(0 -14.75)"/><path class="cls-4" d="M501.16,190l1.29,1.51-9.65,7.18C494.24,194,498.28,192.77,501.16,190Z" transform="translate(0 -14.75)"/><path class="cls-4" d="M455.87,213.16c10.19-.24,18.35-6.36,27.61-9.48-8,5.72-16.23,10.86-26.25,12.11-9.59-1.36-16.82,3.41-23.79,9-3.44,2.79-7.07,5.31-10.69,7.85-11.07,7.74-16.39,8.12-29.05,2.1,1.44-1,2.95-.77,4.39-.51,11.41,2.13,21.05-1.81,29.87-8.58,6.47-5,12.73-10.17,19.35-14.89a15.52,15.52,0,0,1,9.92-3.13C457.76,209.78,453.08,210.62,455.87,213.16Z" transform="translate(0 -14.75)"/><path class="cls-4" d="M83,180.52q4.29,3.25,8.6,6.47c-4.19-.26-6.92-2.73-9.48-5.51A19.33,19.33,0,0,1,73.72,172Z" transform="translate(0 -14.75)"/><path class="cls-4" d="M349.59,289.14c7.05-5,9.83-12.24,7.92-20.13-3.94-16.37,3.48-28.45,13.18-40,1.83-2.17,3.93-4.26,7.14-3,3.38,1.27,4.1,4.19,3.85,7.44-1,14.36-5.81,27.74-10.78,41a224.62,224.62,0,0,1-19.35,39.25c-.43-2.13-.71-3.59-1.14-5.75-3.25,6.22-5.72,11.86-6.45,18.31,2.68-.56,3.2-3.74,6.58-3.74,1.33,5-.09,9.89-1.7,14.45s-4.35,8.66-7.27,14.25c6.36-2.45,6.73.71,6.73,4.78,0,13.16-5.91,19.7-21.7,23.7-8.06,2.06-9.63.69-8.75-7.81.67-6.58,3.4-12.51,5.68-18.62,2.17-5.89,7.39-10.15,6.28-18.07-.8-5.67,3.67-12.06,5.8-18.15-1.91-1.27-3.29,1.27-5.31.88,2-9.33,8.9-15.16,14-22.12C347.25,294.5,349.68,292.82,349.59,289.14Z" transform="translate(0 -14.75)"/><path class="cls-4" d="M275,359c2.45,5.81,4,12,2.43,18.41-.43,1.7-.32,3.59-3.16,3.66a25.38,25.38,0,0,1-26.37-23.72c-.17-2.31-.64-5.16,1.42-6.54,2.69-1.83,3.68,2,6.22,2.54-1.35-9-9.87-14.74-9.53-24,.07-2.22-1.07-4.56.5-6.73,3-.41,3.61,3.2,6.81,4-1.42-4.49-2.42-8.53-4.06-12.28-.79-1.78-.17-6.79-5.08-3.54-.86.56-1.8-1.73-2.43-2.93-11.42-21.2-20.9-43.18-25.8-66.86-1-4.9-3.62-11.81,2.6-14.47,6-2.54,8.28,4.45,11.44,8,8.52,9.64,12.43,20.73,8.88,33.59-2.08,7.51.26,13.92,4.82,19.53,4.71,5.78,9.91,11.14,15,16.6,3.85,4.15,6.43,8.93,8.64,15.27-2.66-1.29-4.36-2.11-7.52-3.66,4.36,7.81,6.06,15,8.66,22.5l-4-1.51C268.11,344.43,271.87,351.61,275,359Z" transform="translate(0 -14.75)"/><path class="cls-4" d="M35.08,131.91l.08-.06L35,132Z" transform="translate(0 -14.75)"/><path class="cls-4" d="M319,294.52a17.94,17.94,0,0,1-7.18.36,18.21,18.21,0,0,1-2.71-.24c1-.12,2.07-.19,3.25-.23C314.58,294.6,316.86,294.15,319,294.52Z" transform="translate(0 -14.75)"/><path class="cls-4" d="M349.59,289.14c.09,3.68-2.34,5.36-5.27,6.65C345.05,292.77,348.3,291.74,349.59,289.14Z" transform="translate(0 -14.75)"/><path class="cls-4" d="M563.4,138.9c-1.51-.92-1.33-2.43-1.36-3.85a6.25,6.25,0,0,1,1-1.09,5.65,5.65,0,0,1,.24.73C563.83,136.07,562.54,137.51,563.4,138.9Z" transform="translate(0 -14.75)"/><path class="cls-4" d="M298.56,309.63a17.68,17.68,0,0,1-.11,3.87A23,23,0,0,1,298.56,309.63Z" transform="translate(0 -14.75)"/><path class="cls-4" d="M319,294.52a17.94,17.94,0,0,1-7.18.36,18.21,18.21,0,0,1-2.71-.24c1-.12,2.07-.19,3.25-.23C314.58,294.6,316.86,294.15,319,294.52Z" transform="translate(0 -14.75)"/><path class="cls-4" d="M349.59,289.14c.09,3.68-2.34,5.36-5.27,6.65C345.05,292.77,348.3,291.74,349.59,289.14Z" transform="translate(0 -14.75)"/><path class="cls-4" d="M127.57,210.19l-1.5,1.29C125.89,210.26,126.09,209.48,127.57,210.19Z" transform="translate(0 -14.75)"/><path class="cls-4" d="M563.4,138.9c-1.51-.92-1.33-2.43-1.36-3.85a6.25,6.25,0,0,1,1-1.09,5.65,5.65,0,0,1,.24.73C563.83,136.07,562.54,137.51,563.4,138.9Z" transform="translate(0 -14.75)"/><path class="cls-4" d="M35.16,131.85,35,132l0-.07Z" transform="translate(0 -14.75)"/><path class="cls-4" d="M127.57,210.19l-1.5,1.29C125.89,210.26,126.09,209.48,127.57,210.19Z" transform="translate(0 -14.75)"/><path class="cls-5" d="M272.73,181c4.51,6.37,12.47,9,16.86,15.45a46,46,0,0,1-18-14.18Z" transform="translate(0 -14.75)"/><path class="cls-6" d="M321.83,295.6l-10.13-.05c-.92-.48-1.61-1.1-1.35-2.29,6.13.62,12.42-1.84,18.42,1C326.56,295.24,323.76,293.12,321.83,295.6Z" transform="translate(0 -14.75)"/><path class="cls-7" d="M285.47,295.59l-10.13,0c-1.57-1.67-3.85-.5-5.62-1.41,6.08-2.27,12.41.89,18.51-.85C288.55,295.53,286.28,294.69,285.47,295.59Z" transform="translate(0 -14.75)"/><path class="cls-8" d="M32.46,125.92c-4.34-2-9.26-2.9-12.92-6.35l1.66-.27c3.72,1.9,8.18,2.35,11.09,5.78Z" transform="translate(0 -14.75)"/><path class="cls-5" d="M314.86,190.64c-.31-4.9,4.63-5.46,6.82-8.29l1.3,1.33C321,186.82,317.57,188.32,314.86,190.64Z" transform="translate(0 -14.75)"/><path class="cls-9" d="M29.5,131.57l5.66.27c-.09,2.71-1.45,4.9-2.86,7.07H30.89c2.06-1.73,1.67-3.19-.28-4.81C30,133.61,27.45,133.42,29.5,131.57Z" transform="translate(0 -14.75)"/><path class="cls-8" d="M28.19,140.23c-3.56-1.86-7.46-3.2-9.83-6.78,3.93.63,6.86,3,9.74,5.51A6.73,6.73,0,0,0,28.19,140.23Z" transform="translate(0 -14.75)"/><path class="cls-10" d="M545.24,126.28c.42,3.65.32,7.18-2.55,10.83V129Z" transform="translate(0 -14.75)"/><path class="cls-11" d="M569.06,139.17c2-2.83,4.37-5.1,9.61-5.2-3.77,2.91-6.4,5.07-9.87,6l-.13-.48Z" transform="translate(0 -14.75)"/><path class="cls-12" d="M166.57,222.81a19.81,19.81,0,0,1-6.95-5.53l1.14-1.07,7.08,5.39Z" transform="translate(0 -14.75)"/><path class="cls-5" d="M298.54,239.86c-.07-20.7-11.34-31.7-29.2-38.14,5.63,1.1,12,.9,16.69,3.65,5,2.92,8.26,8.64,12.66,13.56,6-10.21,13.79-17.7,29.16-16.47C308.44,208.72,298,219.86,298.54,239.86Z" transform="translate(0 -14.75)"/><path class="cls-5" d="M285.47,295.59l2.76-2.31c5.13-1.3,8.5-4.28,9.11-12,2.85,7.62,6.81,11.3,13,12l1.35,2.29c-6.37.64-11.73,2.54-12.66,10.05-.37.62-.73.65-1.1,0C296.49,298.88,291.91,296.07,285.47,295.59Z" transform="translate(0 -14.75)"/><path class="cls-5" d="M286.11,265.85c6-2.65,10.28-4.88,12.24-10.92,2.06,6.11,6.26,8.38,11.7,10.61-5.15,1.83-9.25,4-11.37,9C295.59,270.42,292.4,266.86,286.11,265.85Z" transform="translate(0 -14.75)"/><path class="cls-13" d="M560.71,129.73c3.36,4.94,7.43.16,11.1.8-3.21,1.61-5.55,5.09-9.77,4.51C562.45,133.05,558.11,132.27,560.71,129.73Z" transform="translate(0 -14.75)"/><path class="cls-14" d="M32.46,125.92a.62.62,0,0,0-.17-.84c2.68-.6,4.57,2.18,8.18.75-2,3-2.5,5.67-5.44,6.16C35.17,129.54,35.1,127.19,32.46,125.92Z" transform="translate(0 -14.75)"/><path class="cls-5" d="M289.47,196.29l11.28,4.13C295.15,204.1,292.36,200,289.47,196.29Z" transform="translate(0 -14.75)"/><path class="cls-8" d="M570.53,122.09c-2.77,3.3-6.5,4.8-10.58,5.62C562.41,123.83,566.38,122.8,570.53,122.09Z" transform="translate(0 -14.75)"/><path class="cls-5" d="M297.94,305.61c.36,0,.73,0,1.1,0-.08,6.11-1,12.72,8.51,13.24-5,1.4-9.76,2.52-9.26,9.91-1-6.31-3.64-9.54-9.69-9.65C297.6,318.28,298.46,312.4,297.94,305.61Z" transform="translate(0 -14.75)"/><path class="cls-15" d="M342.34,147.16c1.56-.55,2.15-.33,2.94,1.14l14.4,27.06c.25.46.47.94.71,1.41v2.12c-.08.07-.2.13-.24.22-.85,2.1-2.46,2.85-4.65,2.85q-31.85,0-63.68,0H244.5a4.24,4.24,0,0,1-4.51-3.17,4,4,0,0,1,.38-3.06q7.38-13.83,14.78-27.63c.66-1.22,1.29-1.41,2.75-.93a2.17,2.17,0,0,1,.23,2.88c-1.22,2.17-2.36,4.38-3.59,6.69h14.27a11.43,11.43,0,0,0,1.17,0,2,2,0,0,1,2.26,1.45c-.18,1.63-.67,2.08-2.29,2.09l-3.26,0-13.41,0c-.3,0-.62-.07-.82.29-1.14,2.16-2.29,4.31-3.48,6.53h14.18c3.25,0,6.49.06,9.74,0a2.13,2.13,0,0,1,2.33,1.37c-.08,1.68-.56,2.16-2.21,2.17l-10.81.06-14.58-.06a.83.83,0,0,0-.84.49c-1.06,2-2.14,4-3.2,6-.43.79-.12,1.18.73,1.21H355c.28,0,.55,0,.82,0,1,0,1.21-.41.77-1.27-.85-1.63-1.75-3.23-2.63-4.85-.3-1.24-1-1.63-2.35-1.62q-34.83.06-69.64,0c-1.89,0-2.37-.44-2.45-2.17.44-1.24,1.44-1.37,2.57-1.37H351.3c-1.12-2.12-2.18-4.07-3.17-6a1.4,1.4,0,0,0-1.46-.85c-5.45,0-10.9,0-16.35,0-1.66,0-2.16-.48-2.28-2.12a2.06,2.06,0,0,1,2.27-1.43c4.73,0,9.46,0,14.2,0,.35,0,.76.16,1.14-.21-1.17-2.2-2.31-4.41-3.52-6.59A2.19,2.19,0,0,1,342.34,147.16Z" transform="translate(0 -14.75)"/><path class="cls-16" d="M319,103.28a80.8,80.8,0,0,1,17.12,10.38,105,105,0,0,1,14.75,14.15,3.76,3.76,0,0,1,0,5.47,122.66,122.66,0,0,1-10.26,10.51c-1.23,1-2.44,2-3.68,3s-2.06.85-3.06-.35a2.19,2.19,0,0,1,1-2.53,98.13,98.13,0,0,0,13.07-12.63c.43-.5.79-.92,0-1.38a91.35,91.35,0,0,0-18-16.39s-.14,0-.22,0c-.11.69-.2,1.39-.32,2.08-3.63,21.34-28.29,31.77-46.07,19.52a2.35,2.35,0,0,1-1.29-2.42c1-1.42,1.76-1.56,3.22-.55a25.37,25.37,0,0,0,17.85,4.45c12.33-1.48,21.43-10.72,23-23.12.31-2.41.32-2.42-1.82-3.62a45.27,45.27,0,0,0-5.83-2.91,20.25,20.25,0,0,1,.21,6.14,2.31,2.31,0,0,0,.26,1.12,8.72,8.72,0,0,1-7.73,12.06,3.45,3.45,0,0,0-1.65.49,18.69,18.69,0,0,1-26.85-9.33,19.21,19.21,0,0,1-.95-10.48,70.65,70.65,0,0,0-6.89,3.54,1.47,1.47,0,0,0-.88,1.57,26,26,0,0,0,5.2,14.25c1.1,1.48,1,2.26-.48,3.31a2.28,2.28,0,0,1-2.29-1.09,30.45,30.45,0,0,1-4.78-9.48,39,39,0,0,1-1.13-5.73,82.91,82.91,0,0,0-11.65,9.68,77.29,77.29,0,0,0-6.75,7c-.42.48-.16.74.13,1.08q2.55,3,5.37,5.77c7.34,7.23,15.4,13.43,24.94,17.53,8.67,3.72,17.59,4.92,26.87,2.75a57.78,57.78,0,0,0,18.15-8c1-.64,1.89-.93,2.89-.12.73,1.49.55,2.11-.84,3a81.33,81.33,0,0,1-11.36,6c-.37.12-.74.23-1.1.37A45.51,45.51,0,0,1,291.64,161a71.67,71.67,0,0,1-9.65-2.84,96.23,96.23,0,0,1-11.06-5.81,123.41,123.41,0,0,1-11.28-8.56c-3.19-3-6.36-6-9.26-9.33s-3-4.4,0-7.78a93.93,93.93,0,0,1,26.28-21.17c1.59-.83,3.23-1.56,4.84-2.35a52.37,52.37,0,0,1,17.93-3.9,48.58,48.58,0,0,1,11.95,1.47c2.5.63,4.88,1.61,7.33,2.36h0C318.71,103.28,318.83,103.29,319,103.28Zm-3.8,6.61a12,12,0,0,0-.46-3.34,2,2,0,0,0-1.57-1.62,41.65,41.65,0,0,0-26.23,0,1.91,1.91,0,0,0-1.4,1.49,15.23,15.23,0,0,0,11.89,19.15,14.6,14.6,0,0,0,8.32-.86c-3.78-3.75-4.58-7.84-2.34-11.58C305.74,109.23,309.56,108.14,315.17,109.89Zm-4.32,2.57a5.1,5.1,0,0,0-5.14,5.15,5.17,5.17,0,0,0,5.12,5.2,5.27,5.27,0,0,0,5.24-5.24A5.19,5.19,0,0,0,310.85,112.46Z" transform="translate(0 -14.75)"/><path class="cls-17" d="M320.13,98A10.75,10.75,0,0,1,319,95.52c-1.71-.64-3.45-1.23-5.24-1.73A69.74,69.74,0,0,0,303.41,92a56.56,56.56,0,0,0-16.94,1.77c-1.19.34-2.36.7-3.51,1.09a5.15,5.15,0,0,1-.5,1.07,26,26,0,0,1-2.12,3,5.57,5.57,0,0,1-.14.71h0a23.78,23.78,0,0,1,3.34-1.11l0,0c0-.26.15-.18.29-.19a43.75,43.75,0,0,1,11.23-2.59,33.68,33.68,0,0,1,6.19-.21,45.74,45.74,0,0,1,15.27,2.84c1.17.43,2.36.83,3.51,1.3A5.53,5.53,0,0,1,320.13,98Z" transform="translate(0 -14.75)"/><path class="cls-16" d="M288.89,89.08c-1.22-1-1.36-1.55-.64-2.91L296.36,71a4.26,4.26,0,0,1,7.76,0l8.08,15.21c.72,1.36.59,1.91-.63,2.91A2.06,2.06,0,0,1,309,87.82c-.56-1.14-1.23-2.24-1.85-3.35-.1-.71-.52-.92-1.23-.91q-5.74,0-11.5,0a1.18,1.18,0,0,0-1.24.78c-.61,1.22-1.29,2.41-1.92,3.62A1.9,1.9,0,0,1,288.89,89.08Zm16-9.09c-1.37-2.57-2.66-5-4-7.44-.38-.7-.92-.79-1.32-.06-1.35,2.46-2.66,4.93-4,7.5Z" transform="translate(0 -14.75)"/><path class="cls-18" d="M333.86,146.46c1,1.2,1.87,1.31,3.06.35s2.45-2,3.68-3a23.81,23.81,0,0,1,1.73,3.37,2.2,2.2,0,0,0-.2,2.79c1.21,2.18,2.35,4.39,3.52,6.59-.38.37-.79.21-1.14.21-4.74,0-9.47,0-14.2,0a2.06,2.06,0,0,0-2.27,1.43h-9.81a81.33,81.33,0,0,0,11.36-6c1.39-.91,1.57-1.53.84-3A16.9,16.9,0,0,0,333.86,146.46Z" transform="translate(0 -14.75)"/><path class="cls-19" d="M288.89,89.08A1.9,1.9,0,0,0,291.3,88c.63-1.21,1.31-2.4,1.92-3.62a1.18,1.18,0,0,1,1.24-.78q5.76,0,11.5,0c.71,0,1.13.2,1.23.91-.21.5-.4,1-.63,1.48-1,2-2.3,3.94-3.15,6.07a56.56,56.56,0,0,0-16.94,1.77C287.11,92.14,288.12,90.67,288.89,89.08Z" transform="translate(0 -14.75)"/><path class="cls-20" d="M259.65,143.8a123.41,123.41,0,0,0,11.28,8.56c-.48,1.56-1.6,2.81-2.12,4.36H254.54c1.23-2.31,2.37-4.52,3.59-6.69a2.17,2.17,0,0,0-.23-2.88C258.48,146,259.06,144.91,259.65,143.8Z" transform="translate(0 -14.75)"/><path class="cls-19" d="M283.88,98.38a43.75,43.75,0,0,1,11.23-2.59,33.68,33.68,0,0,1,6.19-.21c-.39,1.35-1.33,2.42-1.88,3.69a52.37,52.37,0,0,0-17.93,3.9,30,30,0,0,1,1.71-3.46c.16-.38.57-.69.34-1.18l0,0C283.76,98.61,283.83,98.52,283.88,98.38Z" transform="translate(0 -14.75)"/><path class="cls-21" d="M299.42,99.27c.55-1.27,1.49-2.34,1.88-3.69a45.74,45.74,0,0,1,15.27,2.84,27.52,27.52,0,0,0,1.66,3.3c.23.42.6.83.47,1.38-2.45-.75-4.83-1.73-7.33-2.36A48.58,48.58,0,0,0,299.42,99.27Z" transform="translate(0 -14.75)"/><path class="cls-21" d="M303.41,92c.85-2.13,2.15-4,3.15-6.07.23-.48.42-1,.63-1.48.62,1.11,1.29,2.21,1.85,3.35a2.06,2.06,0,0,0,2.53,1.31c.6,1.16,1.2,2.32,1.79,3.49.19.37.48.71.4,1.17A69.74,69.74,0,0,0,303.41,92Z" transform="translate(0 -14.75)"/><path class="cls-21" d="M319,103.28c-.14,0-.26,0-.27-.18C318.86,103.05,318.93,103.14,319,103.28Z" transform="translate(0 -14.75)"/><path class="cls-20" d="M354,172.29c.88,1.62,1.78,3.22,2.63,4.85.44.86.2,1.22-.77,1.27-.27,0-.54,0-.82,0H244.32c-.85,0-1.16-.42-.73-1.21,1.06-2,2.14-4,3.2-6a.83.83,0,0,1,.84-.49l14.58.06a2.67,2.67,0,0,0,2.75,1.55Q309.48,172.28,354,172.29Z" transform="translate(0 -14.75)"/><path class="cls-22" d="M318.23,158.16H328c.12,1.64.62,2.12,2.28,2.12,5.45,0,10.9,0,16.35,0a1.4,1.4,0,0,1,1.46.85c1,2,2.05,3.93,3.17,6H282.12c-1.13,0-2.13.13-2.57,1.37h-4.32a2.13,2.13,0,0,0-2.33-1.37c-3.25,0-6.49,0-9.74,0l3.53-6.78,3.26,0c1.62,0,2.11-.46,2.29-2.09l9.75,0a71.67,71.67,0,0,0,9.65,2.84,45.51,45.51,0,0,0,25.49-2.48C317.49,158.39,317.86,158.28,318.23,158.16Z" transform="translate(0 -14.75)"/><path class="cls-23" d="M275.23,168.53h4.32c.08,1.73.56,2.17,2.45,2.17q34.81,0,69.64,0c1.32,0,2.05.38,2.35,1.62q-44.52,0-89,0a2.67,2.67,0,0,1-2.75-1.55L273,170.7C274.67,170.69,275.15,170.21,275.23,168.53Z" transform="translate(0 -14.75)"/><path class="cls-24" d="M266.69,160.33l-3.53,6.78H249c1.19-2.22,2.34-4.37,3.48-6.53.2-.36.52-.29.82-.29Z" transform="translate(0 -14.75)"/><path class="cls-21" d="M282,158.17l-9.75,0a2,2,0,0,0-2.26-1.45,11.43,11.43,0,0,1-1.17,0c.52-1.55,1.64-2.8,2.12-4.36A96.23,96.23,0,0,0,282,158.17Z" transform="translate(0 -14.75)"/><path class="cls-25" d="M282,132.76a2.35,2.35,0,0,0,1.29,2.42c17.78,12.25,42.44,1.82,46.07-19.52.12-.69.21-1.39.32-2.08.08,0,.18-.08.22,0a91.35,91.35,0,0,1,18,16.39,49.19,49.19,0,0,1-8.42,7.23A67.85,67.85,0,0,1,323,146.4a43.39,43.39,0,0,1-22.87,2.53c-8.57-1.45-16.2-5.17-23.3-10a100.54,100.54,0,0,1-15.94-13.77c-.67-.7-1.11-1.63-2-2.09a82.91,82.91,0,0,1,11.65-9.68,39,39,0,0,0,1.13,5.73,30.45,30.45,0,0,0,4.78,9.48,2.28,2.28,0,0,0,2.29,1.09A14.73,14.73,0,0,0,282,132.76Z" transform="translate(0 -14.75)"/><path class="cls-26" d="M258.83,123.06c.92.46,1.36,1.39,2,2.09a100.54,100.54,0,0,0,15.94,13.77c7.1,4.84,14.73,8.56,23.3,10A43.39,43.39,0,0,0,323,146.4a67.85,67.85,0,0,0,16.52-9.25,49.19,49.19,0,0,0,8.42-7.23c.79.46.43.88,0,1.38a98.13,98.13,0,0,1-13.07,12.63,2.19,2.19,0,0,0-1,2.53,16.9,16.9,0,0,1-3.43,2.63c-1-.81-1.9-.52-2.89.12a57.78,57.78,0,0,1-18.15,8c-9.28,2.17-18.2,1-26.87-2.75-9.54-4.1-17.6-10.3-24.94-17.53q-2.82-2.77-5.37-5.77c-.29-.34-.55-.6-.13-1.08A77.29,77.29,0,0,1,258.83,123.06Z" transform="translate(0 -14.75)"/><path class="cls-27" d="M282,132.76a14.73,14.73,0,0,1-3.32-3.08c1.46-1.05,1.58-1.83.48-3.31a26,26,0,0,1-5.2-14.25,1.47,1.47,0,0,1,.88-1.57,70.65,70.65,0,0,1,6.89-3.54,19.21,19.21,0,0,0,.95,10.48,18.69,18.69,0,0,0,26.85,9.33,3.45,3.45,0,0,1,1.65-.49,8.72,8.72,0,0,0,7.73-12.06,2.31,2.31,0,0,1-.26-1.12,20.25,20.25,0,0,0-.21-6.14,45.27,45.27,0,0,1,5.83,2.91c2.14,1.2,2.13,1.21,1.82,3.62-1.59,12.4-10.69,21.64-23,23.12a25.37,25.37,0,0,1-17.85-4.45C283.76,131.2,283,131.34,282,132.76Z" transform="translate(0 -14.75)"/><path class="cls-28" d="M315.17,109.89c-5.61-1.75-9.43-.66-11.79,3.29-2.24,3.74-1.44,7.83,2.34,11.58a14.6,14.6,0,0,1-8.32.86,15.23,15.23,0,0,1-11.89-19.15,1.91,1.91,0,0,1,1.4-1.49,41.65,41.65,0,0,1,26.23,0,2,2,0,0,1,1.57,1.62A12,12,0,0,1,315.17,109.89Z" transform="translate(0 -14.75)"/><path class="cls-29" d="M310.85,112.46a5.19,5.19,0,0,1,5.22,5.11,5.27,5.27,0,0,1-5.24,5.24,5.17,5.17,0,0,1-5.12-5.2A5.1,5.1,0,0,1,310.85,112.46Z" transform="translate(0 -14.75)"/><path class="cls-30" d="M283.88,98.38c-.05.14-.12.23-.29.19C283.56,98.31,283.74,98.39,283.88,98.38Z" transform="translate(0 -14.75)"/><path class="cls-21" d="M304.89,80h-9.33c1.37-2.57,2.68-5,4-7.5.4-.73.94-.64,1.32.06C302.23,75,303.52,77.42,304.89,80Z" transform="translate(0 -14.75)"/><g id="left"><path class="cls-31" d="M172.32,389.23c0-.15,0-.31.06-.47a3.43,3.43,0,0,1,2.81-2.83,4.07,4.07,0,0,1,.61-.05h7.34v0l-.47-.39c-.82-.69-1.66-1.38-2.47-2.09a6.17,6.17,0,0,1-1.17-7.88l7.38-11.87c.36-.57.7-1.16,1.08-1.72a3.39,3.39,0,0,1,3.25-1.6,3.52,3.52,0,0,1,1.62.58,10.26,10.26,0,0,1,3.83,4.17l2.16,4.3,0,.08.34-.24,3.88-2.76a2.75,2.75,0,0,1,4.33,1.75,2.61,2.61,0,0,1-1.11,2.73q-3.47,2.49-6.95,5a2.75,2.75,0,0,1-4-1.06c-.55-1.13-1.09-2.26-1.63-3.39l0-.07L188,381l.77.65,6,5.11a3.35,3.35,0,0,1,1.21,2.69,3.44,3.44,0,0,1-2.94,3.34,3.64,3.64,0,0,1-.57,0c-5.57,0-11.14,0-16.7,0a3.39,3.39,0,0,1-3.2-2,3.14,3.14,0,0,1-.32-1.28s0-.05,0-.07Z" transform="translate(0 -14.75)"/><path class="cls-31" d="M199.31,351.45l.38,0a4.87,4.87,0,0,1,3.08,1.47,4.76,4.76,0,0,1,1.4,2.95,4.88,4.88,0,0,1-1.5,4.16,4.72,4.72,0,0,1-3,1.36,4.88,4.88,0,0,1-4.06-1.47,4.76,4.76,0,0,1-1.39-2.88,5,5,0,0,1,4.8-5.61h.25Z" transform="translate(0 -14.75)"/><path class="cls-31" d="M127.57,389.23c0-.15,0-.31.06-.47a3.44,3.44,0,0,1,2.81-2.83,4.18,4.18,0,0,1,.61-.05h7.34v0l-.46-.39c-.83-.69-1.66-1.38-2.48-2.09a6.2,6.2,0,0,1-1.17-7.88l7.39-11.87c.35-.57.7-1.16,1.07-1.72a3.39,3.39,0,0,1,3.26-1.6,3.52,3.52,0,0,1,1.62.58,10.3,10.3,0,0,1,3.82,4.17l2.16,4.3a.56.56,0,0,1,0,.08l.35-.24c1.29-.92,2.58-1.85,3.87-2.76a2.74,2.74,0,0,1,4.33,1.75,2.62,2.62,0,0,1-1.1,2.73c-2.31,1.66-4.64,3.31-7,5a2.75,2.75,0,0,1-4-1.06c-.55-1.13-1.09-2.26-1.63-3.39l0-.07-5.15,9.6.77.65q3,2.55,6.05,5.11a3.34,3.34,0,0,1,1.2,2.69,3.44,3.44,0,0,1-2.94,3.34,3.56,3.56,0,0,1-.57,0c-5.56,0-11.13,0-16.7,0a3.39,3.39,0,0,1-3.2-2,3,3,0,0,1-.31-1.28.19.19,0,0,0,0-.07Z" transform="translate(0 -14.75)"/><path class="cls-31" d="M154.56,351.45l.38,0A4.9,4.9,0,0,1,158,353a4.8,4.8,0,0,1,1.39,2.95,4.88,4.88,0,0,1-1.5,4.16,4.71,4.71,0,0,1-2.95,1.36A4.91,4.91,0,0,1,150.9,360a4.76,4.76,0,0,1-1.39-2.88,5,5,0,0,1,4.8-5.61h.25Z" transform="translate(0 -14.75)"/><path class="cls-31" d="M82.67,389.23l.06-.47a3.44,3.44,0,0,1,2.82-2.83,4,4,0,0,1,.6-.05h7.34v0l-.46-.39c-.83-.69-1.66-1.38-2.47-2.09a6.17,6.17,0,0,1-1.17-7.88l7.38-11.87c.36-.57.7-1.16,1.07-1.72a3.39,3.39,0,0,1,3.26-1.6,3.52,3.52,0,0,1,1.62.58,10.26,10.26,0,0,1,3.83,4.17l2.16,4.3,0,.08.35-.24c1.29-.92,2.58-1.85,3.88-2.76a2.75,2.75,0,0,1,4.33,1.75,2.64,2.64,0,0,1-1.11,2.73q-3.46,2.49-7,5a2.75,2.75,0,0,1-4-1.06c-.55-1.13-1.08-2.26-1.63-3.39l0-.07L98.4,381l.77.65,6,5.11a3.34,3.34,0,0,1,1.2,2.69,3.43,3.43,0,0,1-2.93,3.34,3.64,3.64,0,0,1-.57,0c-5.57,0-11.14,0-16.71,0a3.39,3.39,0,0,1-3.2-2,3.13,3.13,0,0,1-.31-1.28.19.19,0,0,0,0-.07Z" transform="translate(0 -14.75)"/><path class="cls-31" d="M109.66,351.45l.38,0a5,5,0,0,1,3,8.58,4.69,4.69,0,0,1-3,1.36A4.88,4.88,0,0,1,106,360a4.65,4.65,0,0,1-1.39-2.88,5,5,0,0,1,4.8-5.61h.24Z" transform="translate(0 -14.75)"/><path class="cls-31" d="M68.34,368.87c0,.13,0,.27-.07.41a2.67,2.67,0,0,1-1.09,1.63c-2.31,1.65-4.63,3.31-7,4.95a2.76,2.76,0,0,1-4-1.05c-.55-1.13-1.09-2.27-1.63-3.41a.16.16,0,0,1,0-.06L49.37,381l.4.34,6.42,5.42a3.46,3.46,0,0,1-2.3,6.07H37.16a3.45,3.45,0,0,1-.63-6.85,3.41,3.41,0,0,1,.55-.05H44.5l-.19-.17-2.72-2.3a6,6,0,0,1-2.08-3.77,6.1,6.1,0,0,1,.9-4.22l8.39-13.48a3.35,3.35,0,0,1,3.05-1.65,3.15,3.15,0,0,1,1.63.47,10,10,0,0,1,4,4.11c.5,1,1,1.93,1.46,2.89.27.54.54,1.07.8,1.6a.16.16,0,0,1,0,.07l.09-.05q2.07-1.49,4.15-3a2.76,2.76,0,0,1,4.36,2s0,.05,0,.07Z" transform="translate(0 -14.75)"/><path class="cls-31" d="M60.63,351.45l.39,0A4.9,4.9,0,0,1,64.1,353a4.82,4.82,0,0,1,1.4,2.95,4.9,4.9,0,0,1-1.5,4.16,4.74,4.74,0,0,1-3,1.36A4.88,4.88,0,0,1,57,360a4.76,4.76,0,0,1-1.39-2.88,5,5,0,0,1,4.8-5.61h.24Z" transform="translate(0 -14.75)"/><path class="cls-31" d="M203.62,301.68a2,2,0,0,1,0,.24,1.56,1.56,0,0,1-.63.94l-4,2.84a1.57,1.57,0,0,1-2.32-.61c-.32-.65-.63-1.3-.94-1.95l0,0-3,5.52.23.2,3.69,3.11a2,2,0,0,1,.11,2.9,1.93,1.93,0,0,1-1.43.59H185.7a2,2,0,0,1-.35-3.94,1.56,1.56,0,0,1,.31,0h4.26l-.11-.09L188.25,310a3.4,3.4,0,0,1-1.19-2.17,3.49,3.49,0,0,1,.51-2.42l4.82-7.75a2,2,0,0,1,2.69-.68,5.76,5.76,0,0,1,2.27,2.37c.29.55.56,1.1.84,1.66.16.3.31.61.46.92l0,0,.05,0,2.39-1.7a1.59,1.59,0,0,1,2,.16,1.52,1.52,0,0,1,.47,1s0,0,0,0Z" transform="translate(0 -14.75)"/><path class="cls-31" d="M199.19,291.67l.22,0a2.89,2.89,0,0,1,2.58,2.54,2.81,2.81,0,0,1-.87,2.39,2.72,2.72,0,0,1-1.69.78,2.87,2.87,0,1,1-.38-5.72h.14Z" transform="translate(0 -14.75)"/><path class="cls-31" d="M189.68,334.36l-.06.31a2.07,2.07,0,0,1-.82,1.24l-5.25,3.73a2.07,2.07,0,0,1-3.05-.79c-.42-.86-.83-1.72-1.24-2.57,0,0,0,0,0,0l-3.89,7.25.3.26q2.43,2,4.85,4.09a2.6,2.6,0,0,1,.14,3.81,2.52,2.52,0,0,1-1.87.77H166.13a2.6,2.6,0,0,1-.47-5.17,3,3,0,0,1,.41,0h5.6l-.14-.12-2.05-1.74a4.51,4.51,0,0,1-1.57-2.85,4.58,4.58,0,0,1,.68-3.18l6.33-10.18a2.54,2.54,0,0,1,2.3-1.24,2.37,2.37,0,0,1,1.24.35,7.6,7.6,0,0,1,3,3.1c.38.73.73,1.46,1.1,2.19.2.4.4.8.61,1.2,0,0,0,0,0,.06l.06,0,3.14-2.24a2.09,2.09,0,0,1,2.66.2,2,2,0,0,1,.62,1.3s0,0,0,.05Z" transform="translate(0 -14.75)"/><path class="cls-31" d="M183.86,321.21l.29,0a3.66,3.66,0,0,1,2.32,1.11,3.6,3.6,0,0,1,1.06,2.22,3.69,3.69,0,0,1-1.14,3.14,3.57,3.57,0,0,1-2.23,1,3.65,3.65,0,0,1-3.06-1.11,3.54,3.54,0,0,1-1-2.17,3.66,3.66,0,0,1,1.07-3.14,3.7,3.7,0,0,1,2.55-1.1h.19Z" transform="translate(0 -14.75)"/><path class="cls-31" d="M142.66,307.52a2.08,2.08,0,0,1,0-.23,1.7,1.7,0,0,1,1.37-1.39l.3,0H148l-.22-.19c-.41-.35-.82-.68-1.21-1a3,3,0,0,1-.58-3.86q1.81-2.91,3.62-5.82l.53-.85a1.67,1.67,0,0,1,1.59-.78,1.8,1.8,0,0,1,.8.29,5,5,0,0,1,1.88,2l1,2.11,0,0,.17-.12,1.9-1.36a1.35,1.35,0,0,1,2.12.86,1.29,1.29,0,0,1-.54,1.34c-1.13.82-2.27,1.62-3.41,2.43a1.34,1.34,0,0,1-2-.51c-.27-.56-.54-1.11-.8-1.67l0,0-2.53,4.7.38.32,3,2.51a1.59,1.59,0,0,1,.59,1.31,1.68,1.68,0,0,1-1.44,1.64,1.23,1.23,0,0,1-.27,0h-8.19a1.64,1.64,0,0,1-1.57-1,1.51,1.51,0,0,1-.16-.63v-.13Z" transform="translate(0 -14.75)"/><path class="cls-31" d="M155.89,289l.19,0a2.42,2.42,0,0,1,1.51.72,2.32,2.32,0,0,1,.68,1.45,2.45,2.45,0,0,1-4.86.57,2.42,2.42,0,0,1,.7-2,2.38,2.38,0,0,1,1.66-.71h.12Z" transform="translate(0 -14.75)"/><path class="cls-31" d="M131.72,278.62l0,.2a1.31,1.31,0,0,1-.53.79L127.8,282a1.33,1.33,0,0,1-2-.51c-.27-.54-.53-1.09-.79-1.64v0l-2.49,4.64.19.17,3.1,2.62a1.67,1.67,0,0,1-1.11,2.94h-8.09a1.67,1.67,0,0,1-.3-3.32l.26,0h3.59l-.09-.08-1.32-1.12a2.89,2.89,0,0,1-1-1.82,2.94,2.94,0,0,1,.43-2c1.36-2.17,2.71-4.35,4.06-6.52a1.64,1.64,0,0,1,1.47-.8,1.46,1.46,0,0,1,.79.23,4.91,4.91,0,0,1,1.92,2c.24.46.47.93.7,1.4l.39.77,0,0,0,0,2-1.43a1.32,1.32,0,0,1,1.7.12,1.28,1.28,0,0,1,.4.84,0,0,0,0,1,0,0Z" transform="translate(0 -14.75)"/><path class="cls-31" d="M128,270.19l.19,0a2.41,2.41,0,0,1,1.49.71,2.42,2.42,0,0,1,0,3.44,2.29,2.29,0,0,1-1.43.66,2.36,2.36,0,0,1-2-.71,2.4,2.4,0,0,1,0-3.4,2.35,2.35,0,0,1,1.64-.71H128Z" transform="translate(0 -14.75)"/><path class="cls-31" d="M140.67,326.65c0,.1,0,.2,0,.3a2,2,0,0,1-.82,1.24l-5.25,3.74a2.08,2.08,0,0,1-3.06-.8l-1.23-2.57,0,0-3.89,7.25.3.25,4.85,4.1a2.6,2.6,0,0,1,.14,3.81,2.52,2.52,0,0,1-1.87.77H117.13a2.61,2.61,0,0,1-.47-5.18,2.73,2.73,0,0,1,.41,0h5.6l-.14-.13-2.06-1.73a4.68,4.68,0,0,1-.88-6l6.33-10.17a2.54,2.54,0,0,1,2.3-1.25,2.5,2.5,0,0,1,1.24.35,7.76,7.76,0,0,1,3,3.11c.38.72.73,1.45,1.1,2.18.2.4.4.81.61,1.21l0,.05.07,0,3.13-2.23a2.08,2.08,0,0,1,2.67.2,2,2,0,0,1,.62,1.3v.35Z" transform="translate(0 -14.75)"/><path class="cls-31" d="M134.86,313.5l.28,0a3.69,3.69,0,0,1,2.33,1.11,3.63,3.63,0,0,1,1.06,2.23,3.67,3.67,0,0,1-1.14,3.13,3.49,3.49,0,0,1-2.23,1,3.67,3.67,0,0,1-3.06-1.1,3.61,3.61,0,0,1-1.06-2.18,3.69,3.69,0,0,1,1.08-3.13,3.62,3.62,0,0,1,2.55-1.1h.19Z" transform="translate(0 -14.75)"/><path class="cls-31" d="M69.57,338.17c0-.12,0-.24,0-.36a2.6,2.6,0,0,1,2.13-2.14,3.4,3.4,0,0,1,.45,0h5.55l-.35-.3c-.62-.53-1.25-1-1.86-1.58a4.66,4.66,0,0,1-.89-5.95l5.58-9c.27-.43.53-.87.81-1.3a2.55,2.55,0,0,1,2.46-1.2,2.61,2.61,0,0,1,1.22.44,7.74,7.74,0,0,1,2.89,3.14l1.63,3.24,0,.07.16-.11,3-2.16a2.07,2.07,0,0,1,3.27,1.32,2,2,0,0,1-.83,2.06c-1.75,1.26-3.5,2.5-5.26,3.75a2.08,2.08,0,0,1-3-.8l-1.23-2.56s0,0,0-.06l-3.89,7.25.58.49c1.52,1.29,3,2.57,4.56,3.86a2.52,2.52,0,0,1,.91,2,2.58,2.58,0,0,1-2.22,2.52,3,3,0,0,1-.43,0c-4.2,0-8.4,0-12.61,0a2.54,2.54,0,0,1-2.41-1.51,2.31,2.31,0,0,1-.24-1,.43.43,0,0,0,0-.05Z" transform="translate(0 -14.75)"/><path class="cls-31" d="M93.64,313.43a3.77,3.77,0,1,1-3.76-3.78A3.77,3.77,0,0,1,93.64,313.43Z" transform="translate(0 -14.75)"/></g><g id="right"><path class="cls-31" d="M394.34,369.47c0-.18.06-.35.1-.52a2.77,2.77,0,0,1,4.28-1.53l4.14,2.95.09.06s0-.05,0-.08c.74-1.47,1.47-3,2.23-4.42a10.11,10.11,0,0,1,3.93-4.14,3.46,3.46,0,0,1,3.9.21,3.61,3.61,0,0,1,.81.89q3.43,5.52,6.86,11l1.62,2.6a5.81,5.81,0,0,1,.89,3,6,6,0,0,1-1.67,4.44,12.58,12.58,0,0,1-1.09,1l-2.21,1.88-.07.06h7.42a3.45,3.45,0,0,1,.67,6.82,3.27,3.27,0,0,1-.76.08H408.8a3.41,3.41,0,0,1-3.43-2.79,3.33,3.33,0,0,1,1.21-3.35l5.25-4.44,1.36-1.15.12-.1-5.15-9.61c-.08.18-.17.35-.25.52-.48,1-.94,2-1.44,3a2.75,2.75,0,0,1-4,1l-6.9-4.92a2.71,2.71,0,0,1-1.17-2s0,0,0-.05Z" transform="translate(0 -14.75)"/><path class="cls-31" d="M402.23,352.45l.38,0a5,5,0,0,1,4.49,4.36,5,5,0,0,1-9.85,1.56,4.76,4.76,0,0,1,1.24-4.34,4.84,4.84,0,0,1,3.5-1.6h.24Z" transform="translate(0 -14.75)"/><path class="cls-31" d="M473.8,390.43c0,.15,0,.31-.05.46a3.43,3.43,0,0,1-2.76,2.82,4.17,4.17,0,0,1-.71.07H453.57a3.41,3.41,0,0,1-3.43-2.78,3.33,3.33,0,0,1,1.21-3.36l4.85-4.1,1.75-1.48.13-.11-5.15-9.61-.37.76c-.44.92-.87,1.85-1.32,2.76a2.76,2.76,0,0,1-4,1l-6.9-4.92a2.69,2.69,0,0,1-1.19-2.3,2.76,2.76,0,0,1,4.39-2.2l4.14,2.95.07.05.05-.08,2.08-4.14a10.38,10.38,0,0,1,2.91-3.63,9.13,9.13,0,0,1,1.44-.94,3.44,3.44,0,0,1,3.8.51,3.76,3.76,0,0,1,.71.87l8.41,13.52a5.84,5.84,0,0,1,.89,3,6,6,0,0,1-1.67,4.43,14.61,14.61,0,0,1-1.09,1L463,386.82l-.06.05h6.39c.41,0,.82,0,1.24,0a3.43,3.43,0,0,1,3.13,2.74,5,5,0,0,1,.07.54s0,0,0,.06Z" transform="translate(0 -14.75)"/><path class="cls-31" d="M447,352.45l.39,0a5,5,0,0,1,4.48,4.36A5,5,0,0,1,442,358.4a4.82,4.82,0,0,1,1.24-4.34,4.87,4.87,0,0,1,3.5-1.6H447Z" transform="translate(0 -14.75)"/><path class="cls-31" d="M518.7,390.43c0,.15,0,.31-.06.46a3.44,3.44,0,0,1-2.75,2.82,4.39,4.39,0,0,1-.72.07h-16.7A3.43,3.43,0,0,1,495,391a3.32,3.32,0,0,1,1.22-3.36l4.85-4.1,1.75-1.48L503,382l-5.15-9.61-.37.76c-.44.92-.87,1.85-1.33,2.76a2.76,2.76,0,0,1-4,1l-6.9-4.92a2.71,2.71,0,0,1-1.18-2.3,2.76,2.76,0,0,1,4.39-2.2l4.13,2.95.08.05a.56.56,0,0,1,.05-.08c.69-1.38,1.39-2.76,2.07-4.14a10.49,10.49,0,0,1,2.91-3.63,9.22,9.22,0,0,1,1.45-.94,3.43,3.43,0,0,1,3.79.51,3.56,3.56,0,0,1,.72.87L512,376.54a5.93,5.93,0,0,1,.89,3,6,6,0,0,1-1.67,4.43,14.61,14.61,0,0,1-1.09,1l-2.23,1.88-.05.05h6.38c.42,0,.83,0,1.24,0a3.44,3.44,0,0,1,3.14,2.74c0,.18,0,.36.07.54,0,0,0,0,0,.06Z" transform="translate(0 -14.75)"/><path class="cls-31" d="M491.89,352.45l.39,0a5,5,0,0,1,4.48,4.36,5,5,0,0,1-9.85,1.56,4.79,4.79,0,0,1,1.24-4.34,4.86,4.86,0,0,1,3.5-1.6h.24Z" transform="translate(0 -14.75)"/><path class="cls-31" d="M533,369.47c0-.18.06-.35.1-.52a2.77,2.77,0,0,1,4.28-1.53l4.14,2.95.09.06,0-.08c.74-1.47,1.48-3,2.23-4.42a10.11,10.11,0,0,1,3.93-4.14,3.46,3.46,0,0,1,3.9.21,3.61,3.61,0,0,1,.81.89l6.87,11c.53.87,1.08,1.73,1.61,2.6a5.91,5.91,0,0,1,.9,3,6,6,0,0,1-1.68,4.44,12.58,12.58,0,0,1-1.09,1L557,386.82l-.07.06h7.43a3.45,3.45,0,0,1,.66,6.82,3.27,3.27,0,0,1-.76.08H547.49a3.41,3.41,0,0,1-3.43-2.79,3.33,3.33,0,0,1,1.21-3.35l5.25-4.44,1.36-1.15.13-.1-5.16-9.61c-.08.18-.16.35-.25.52-.47,1-.94,2-1.44,3a2.75,2.75,0,0,1-4,1l-6.9-4.92a2.71,2.71,0,0,1-1.17-2s0,0,0-.05Z" transform="translate(0 -14.75)"/><path class="cls-31" d="M540.92,352.45l.38,0a5,5,0,0,1,4.49,4.36,5,5,0,0,1-9.85,1.56,4.76,4.76,0,0,1,1.24-4.34,4.84,4.84,0,0,1,3.5-1.6h.24Z" transform="translate(0 -14.75)"/><path class="cls-31" d="M397.75,302.46l.06-.29a1.58,1.58,0,0,1,1.36-1.17,1.55,1.55,0,0,1,1.1.29l2.38,1.69.05,0s0,0,0,0l1.28-2.54a5.82,5.82,0,0,1,2.26-2.38,2,2,0,0,1,2.24.12,2.11,2.11,0,0,1,.47.52c1.31,2.11,2.63,4.22,3.94,6.34l.93,1.49a3.56,3.56,0,0,1-.45,4.27,6.53,6.53,0,0,1-.62.56l-1.28,1.08,0,0h4.27a2,2,0,0,1,.38,3.92,2.12,2.12,0,0,1-.44,0h-9.6a2,2,0,0,1-2-1.6,1.92,1.92,0,0,1,.7-1.93l3-2.55.78-.66a.13.13,0,0,0,.07-.06l-3-5.52c-.05.11-.09.21-.14.3-.27.58-.54,1.16-.83,1.73a1.58,1.58,0,0,1-2.32.56l-4-2.82a1.62,1.62,0,0,1-.67-1.16,0,0,0,0,0,0,0Z" transform="translate(0 -14.75)"/><path class="cls-31" d="M399.37,295.56a2.87,2.87,0,1,1,2.84,2.87A2.86,2.86,0,0,1,399.37,295.56Z" transform="translate(0 -14.75)"/><path class="cls-31" d="M437.91,350.9c0,.12,0,.23-.05.35a2.58,2.58,0,0,1-2.07,2.13,3.31,3.31,0,0,1-.55.05H422.63a2.57,2.57,0,0,1-2.59-2.1,2.51,2.51,0,0,1,.92-2.54l3.66-3.1,1.32-1.11.1-.08-3.89-7.26-.28.58c-.33.69-.65,1.39-1,2.08a2.08,2.08,0,0,1-3.05.75l-5.21-3.71a2.09,2.09,0,1,1,2.42-3.4l3.12,2.22.06,0,0-.06c.52-1,1.05-2.08,1.56-3.12a7.94,7.94,0,0,1,2.2-2.74,6.63,6.63,0,0,1,1.09-.72,2.63,2.63,0,0,1,2.87.39,3.06,3.06,0,0,1,.54.65q3.17,5.12,6.34,10.21a4.43,4.43,0,0,1,.68,2.26,4.54,4.54,0,0,1-1.26,3.34,9.74,9.74,0,0,1-.83.74c-.55.48-1.12.95-1.68,1.42l0,0h4.79c.32,0,.65,0,1,0a2.62,2.62,0,0,1,2.37,2.08c0,.13,0,.27,0,.4a.09.09,0,0,0,0,.05Z" transform="translate(0 -14.75)"/><path class="cls-31" d="M413.83,326a3.77,3.77,0,1,1,3.75,3.77A3.78,3.78,0,0,1,413.83,326Z" transform="translate(0 -14.75)"/><path class="cls-31" d="M458.72,308.63l0,.23a1.69,1.69,0,0,1-1.35,1.38,2.07,2.07,0,0,1-.35,0H448.8a1.7,1.7,0,0,1-1.09-3l2.38-2,.86-.72.06-.06-2.53-4.71c-.06.13-.12.25-.17.38-.22.45-.43.9-.66,1.35a1.34,1.34,0,0,1-2,.48l-3.38-2.41a1.32,1.32,0,0,1-.58-1.13,1.35,1.35,0,0,1,2.15-1.07l2,1.44,0,0,0,0,1-2A5,5,0,0,1,448.4,295a3.52,3.52,0,0,1,.7-.46,1.69,1.69,0,0,1,1.86.24,1.79,1.79,0,0,1,.35.43l4.13,6.63a2.93,2.93,0,0,1,.43,1.47,3,3,0,0,1-.81,2.17c-.17.17-.36.32-.54.48l-1.09.92,0,0h3.74a1.7,1.7,0,0,1,1.54,1.35l0,.26v.13Z" transform="translate(0 -14.75)"/><path class="cls-31" d="M443.08,292.47a2.45,2.45,0,1,1,2.44,2.44A2.45,2.45,0,0,1,443.08,292.47Z" transform="translate(0 -14.75)"/><path class="cls-31" d="M478.65,287.44c0-.09,0-.17.05-.25a1.35,1.35,0,0,1,1.15-1,1.32,1.32,0,0,1,.92.25l2,1.42,0,0,0,0,1.07-2.13a4.91,4.91,0,0,1,1.9-2,1.69,1.69,0,0,1,1.89.11,1.45,1.45,0,0,1,.39.43q1.67,2.67,3.32,5.34c.26.42.53.83.78,1.25a2.9,2.9,0,0,1,.44,1.46,2.93,2.93,0,0,1-.81,2.14,5.93,5.93,0,0,1-.53.47l-1.07.91s0,0,0,0h3.59a1.67,1.67,0,0,1,.32,3.3,2.31,2.31,0,0,1-.37,0h-8.09a1.64,1.64,0,0,1-1.65-1.34,1.6,1.6,0,0,1,.58-1.62l2.54-2.15.66-.56.06,0-2.49-4.64-.12.25c-.24.48-.46,1-.7,1.45a1.34,1.34,0,0,1-2,.48l-3.33-2.38a1.31,1.31,0,0,1-.57-1s0,0,0,0Z" transform="translate(0 -14.75)"/><path class="cls-31" d="M480,281.63a2.42,2.42,0,1,1,2.4,2.41A2.41,2.41,0,0,1,480,281.63Z" transform="translate(0 -14.75)"/><path class="cls-31" d="M486.91,343.19c0,.11,0,.23,0,.34a2.6,2.6,0,0,1-2.08,2.13,3.29,3.29,0,0,1-.54,0H471.63a2.57,2.57,0,0,1-2.59-2.1,2.52,2.52,0,0,1,.92-2.53l3.66-3.1,1.32-1.12.1-.08-3.89-7.25c-.09.2-.18.38-.27.57-.34.7-.66,1.4-1,2.09a2.08,2.08,0,0,1-3.05.74l-5.21-3.71a2,2,0,0,1-.89-1.74,2.08,2.08,0,0,1,3.31-1.66l3.13,2.23,0,0a.25.25,0,0,0,0-.07c.52-1,1.05-2.07,1.57-3.12a7.8,7.8,0,0,1,2.19-2.74,6.36,6.36,0,0,1,1.09-.71,2.61,2.61,0,0,1,2.87.38,3.12,3.12,0,0,1,.54.66q3.17,5.1,6.34,10.21a4.4,4.4,0,0,1,.68,2.26,4.55,4.55,0,0,1-1.26,3.34,8.42,8.42,0,0,1-.83.74l-1.67,1.42,0,0h5.76a2.59,2.59,0,0,1,2.37,2.07c0,.13,0,.27,0,.41a.06.06,0,0,0,0,0Z" transform="translate(0 -14.75)"/><path class="cls-31" d="M462.83,318.29a3.78,3.78,0,1,1,3.75,3.77A3.77,3.77,0,0,1,462.83,318.29Z" transform="translate(0 -14.75)"/><path class="cls-31" d="M505.6,323.49c0-.13,0-.26.07-.39a2.08,2.08,0,0,1,1.79-1.53,2,2,0,0,1,1.44.38l3.13,2.23c.06,0,.08,0,.1,0,.56-1.11,1.11-2.23,1.68-3.33a7.59,7.59,0,0,1,3-3.13,2.61,2.61,0,0,1,2.94.17,2.44,2.44,0,0,1,.61.67q2.59,4.17,5.18,8.33l1.22,2a4.46,4.46,0,0,1,.68,2.27,4.62,4.62,0,0,1-1.26,3.35,9.63,9.63,0,0,1-.83.73l-1.67,1.42,0,0a.18.18,0,0,0,.1,0h5.5a2.61,2.61,0,0,1,.5,5.16,2.84,2.84,0,0,1-.58,0H516.51a2.57,2.57,0,0,1-2.59-2.1,2.52,2.52,0,0,1,.92-2.53l4-3.35c.35-.3.7-.6,1.06-.89,0,0,.06-.07,0-.13l-3.81-7.11,0-.07a3.54,3.54,0,0,1-.19.39c-.36.76-.71,1.52-1.08,2.27a2.09,2.09,0,0,1-3.06.74l-5.21-3.71a2.06,2.06,0,0,1-.88-1.52s0,0,0,0Z" transform="translate(0 -14.75)"/><path class="cls-31" d="M507.72,314.42a3.77,3.77,0,1,1,3.74,3.77A3.77,3.77,0,0,1,507.72,314.42Z" transform="translate(0 -14.75)"/></g><path class="cls-32" d="M239.89,177.12l17.95-35s-8.43-6.12-9.71-11.53,24.78-22.93,24.78-22.93l6.34-3.38L296.36,71s3.93-7.16,7.76,0,17.59,33.56,17.59,33.56,19.5,9.1,30.32,26a56.41,56.41,0,0,1-9.65,11.55l18,34.67s1,5.19-3.56,5.19l-113.43-.11S238.06,181.1,239.89,177.12Z" transform="translate(0 -14.75)"/></svg>