<svg id="Layer_1" data-name="Layer 1" xmlns="http://www.w3.org/2000/svg" viewBox="0 0 382.04 385.52"><defs><style>.cls-1{fill:#4c2a7d;}.cls-2{fill:#ed40a5;}.cls-3{fill:#4a0383;}.cls-4{fill:#8be9ff;}.cls-5{fill:#0052e1;}.cls-6{fill:#0037c6;}.cls-7{fill:#11b2ff;}.cls-8{fill:#50c6ff;}.cls-9{fill:#a8e7ff;}.cls-10{fill:#00b2ff;}.cls-11,.cls-17{opacity:0.2;}.cls-11,.cls-12,.cls-13,.cls-14,.cls-15,.cls-16,.cls-17,.cls-18,.cls-19,.cls-20{isolation:isolate;}.cls-12,.cls-16{opacity:0.07;}.cls-13,.cls-18{opacity:0.09;}.cls-14,.cls-19{opacity:0.05;}.cls-15,.cls-20{opacity:0.15;}.cls-16,.cls-17,.cls-18,.cls-19,.cls-20{fill:#fff;}</style></defs><path class="cls-1" d="M270.35,156.74a43.31,43.31,0,0,1-1.69,4.14c-1,2.06-1.25,4.42-2.37,6.44-9.06,26.57-12.08,53.42-8,80.68a9,9,0,0,0-.09-3.36,109.74,109.74,0,0,1-1.43-15.88,183.3,183.3,0,0,1,2.2-31.14,167.78,167.78,0,0,1,8.1-31.26,54.62,54.62,0,0,1,2.46-7.17,18,18,0,0,0,1.67-4A10.37,10.37,0,0,0,270.35,156.74Z" transform="translate(-21.86 -12)"/><path class="cls-1" d="M284.46,153.26c.38,2.39-1.21,3.81-2.87,4.83-2,1.25-2.79-1-3.85-2-2.57-2.36-4.95-4.93-7.44-7.37a4.05,4.05,0,0,1-1.44-4.25c.73-1.68.3-3.87-.76-6.12-.62-1.3,0-2.62,1.06-3.69,3.56-3.5,7.06-7,10.58-10.56a5.43,5.43,0,0,1,1.15-1c.82-.48,11.9,1,12.6,1.66,2.84,2.8,5.62,5.66,8.48,8.45a3.29,3.29,0,0,1,1,3.72,3.14,3.14,0,0,1-3.45,2.3c-3.75-.66-6.07,1.39-8.3,3.9a49.55,49.55,0,0,1-4.22,4.23C285.22,149,284.06,150.76,284.46,153.26Z" transform="translate(-21.86 -12)"/><path class="cls-1" d="M160,261.87c-1,0-2.15,0-2.68,1a1.45,1.45,0,0,0-.08.21c4.5-1,8.19,1,12,.39A38.5,38.5,0,0,0,160,261.87Z" transform="translate(-21.86 -12)"/><path class="cls-1" d="M351.87,157.92a25.76,25.76,0,0,0-3.62-1.86,2.38,2.38,0,0,0-.2.39c.41,1.05,1.3,1.35,2.28,1.68s2.51.58,1.9,2.13c-.48,1.18-1.69.68-2.62.37-1.84-.63-4.15-1-5.25.48-2.52,3.37-5.88,2.9-9.26,2.89-.6,0-1.55.05-1.74.38-1.72,3.21-4.7,2.5-7.47,2.61-3.3.1-3.79,1-2.53,4.46l.62-.2c-.56-2.06,0-3.29,2.45-3.2,5.36.15,9.69-4.23,15.21-3.54a.92.92,0,0,0,.65-.32,8.45,8.45,0,0,1,8.44-2.56,1.81,1.81,0,0,0,2.12-1.17A2.07,2.07,0,0,0,351.87,157.92ZM327.8,190.71l-3.34,0c-1.8,0-2.86-1-2-2.56,2-3.73-.15-6.06-2.26-8.6a99.65,99.65,0,0,0-8.5-8.82c-.75-.71-2-1.64-.87-2.76,1-.92,2.12-.16,3,.64,1.29,1.17,2.22,2.7,3.67,3.69,1.81,1.19,3.52,3.12,5.94,1.58l-.14-.14c-2.68.31-4.41-1.39-6.14-3-.91-.81-1.47-2-2.36-2.86-1.51-1.42-3.3-2.57-5.24-.8-2.25,2.09.26,3.07,1.31,4.07a117,117,0,0,1,10.32,11c1.33,1.69,1.76,2.92.61,5-1.61,2.84-.49,4.38,2.8,4.52.88,0,1.75,0,2.62,0,5.38,0,5.83.46,6,6,.18.05.36.07.54.11C334.23,192.62,332.79,190.86,327.8,190.71Z" transform="translate(-21.86 -12)"/><path class="cls-1" d="M373.09,118.19c-1-4.19-4.23-3-6.41-2.71-3.14.34-6.08,1.14-8.34-1.92-.12-.18-.91.15-1.38.26a6.06,6.06,0,0,1-.23-.63.27.27,0,0,0-.11,0c-10.4,9.07-20.14,5.82-22.66-7.73-.93-5-1.92-10.05-1-15.2.23-1.2.49-2.92-.92-3.25s-1.8,1.36-2.27,2.45a35.89,35.89,0,0,0-1.25,3.93c-1.91,6.8-.66,13.32,1.6,19.8,1.36,3.89.19,5.59-3.83,6.22-4.83.75-9.73,1.4-14.54.74-10.1-1.34-19.1-4.5-23.6-15.06-1.71-4-3-8.3-5.28-12.08a3.55,3.55,0,0,0-.68.56c-3.14-3.57-7.44-3.6-11.69-3.8-12.5.25-24.61,3-36.76,5.57-10.3,2.23-20.3,5.93-31.05,5.87C194.6,101.2,190,96,191.91,88.17a65,65,0,0,1,2.39-7c2-5.53,5.51-10.29,7.93-15.6.27-1.16,1.1-2.44-.24-3.41s-2.37-.17-3.39.54a2,2,0,0,1-2.42.21c-3.63-2.21-7-4.88-11.35-5.66a1.63,1.63,0,0,0-1.77,1.07c-.08,1.69,1.17,2.61,2.17,3.61a28.15,28.15,0,0,1,5,6.73A6.1,6.1,0,0,1,190,74c-4.18,7.89-10,14.69-16,21.12-7.4,7.88-8,15.8-2.56,24.68.45.74.77,1.57,1.18,2.33a87.59,87.59,0,0,1,6.78,16.19c3.53,11.88,1.31,22.23-8.48,30.36-8.34,6.92-18.16,10.82-28.48,13.55a11.79,11.79,0,0,1-8-1.11c-4.4-2-7.84-5.21-11.18-8.62-1.55-1.57-2.86-3.52-5.3-3.93a3.38,3.38,0,0,0-3.57,3.34,9.24,9.24,0,0,0,1.1,4.29c3.3,7.41,9.26,11.42,16.89,13.35,1.86.45,3.91.51,5.23,2.26-1.11,1.36-2.44,1-3.62,1.13-5.12.72-9.38-1.61-13.69-3.78a1.78,1.78,0,0,0-1.24,1.76c4.29,10.24,12.26,15.82,22.81,18.19,2.57.14,5.88-1.05,7.56.39,2.93,2.5,5.95,1.51,9,1.87a38.32,38.32,0,0,0,8.12-1.23c2.56-.5,5-1.7,7.63-1.73.92,0,2.22-.5,2.61.73.29.93-.74,1.49-1.39,2a40.76,40.76,0,0,1-9.15,5.75c-1.32.61-2.9,1-3.23,2.75.6,1.32,1.85,1.26,3,1.38,2.51.14,4.94-.55,7.39-.84,22.06-2.68,40.93-11.58,55.82-28.41,2.91-3.27,5.11-7,8.12-10.19.07-2.07,2.69-.51,3-2.17.31-.83.58-1.68.82-2.53.76-3.57,1.42-7.17,2.06-10.76.07-.48.15-1,.24-1.42-.11.78-.23,1.57-.36,2.36a77.13,77.13,0,0,1-1.94,9.82,139.41,139.41,0,0,1-6.86,23.47c-2,3.77-2.24,8.06-3.78,11.94a2.8,2.8,0,0,0,.89,2.11c2,2.94,1.24,6.43,1.87,9.66,2.34,12,8.1,21.21,20.21,25.41,2.92.37,4.3,0,4.7-1.52-4-27.26-1-54.11,8-80.68,1.12-2,1.33-4.38,2.37-6.44.15-.27.3-.56.42-.83.48-1.09.79-2.23,1.27-3.31a10.37,10.37,0,0,1,.81-1.55,18,18,0,0,1-1.67,4c-.13.36-.26.7-.4,1.07h0a39.79,39.79,0,0,0-2.06,6.1,167.78,167.78,0,0,0-8.1,31.26,183.3,183.3,0,0,0-2.2,31.14,109.74,109.74,0,0,0,1.43,15.88,9,9,0,0,1,.09,3.36,166.3,166.3,0,0,0,3.83,18.48c-1.5-4.35-2-8.68-3-12.91-.93-4.06-.77-4.09-5.19-3.81-14.13,2-27.57,5.6-37.89,16.5-2.67,2.81-6.3,3.82-10.24,3.75a47.2,47.2,0,0,1-8.13-1c-9.39-1.86-18.52-4.88-28-6.44-3.13.39-6.17-.73-9.26-.68H160a38.5,38.5,0,0,1,9.21,1.59c-3.78.62-7.47-1.39-12-.39a.38.38,0,0,0-.05.12l-.08-.08a.4.4,0,0,1,.13,0,1.45,1.45,0,0,1,.08-.21c.53-1,1.67-1,2.68-1a47.29,47.29,0,0,0-10.85.68c-1.78.31-3.63.72-4.82,2.38-.22.2-.46.39-.7.59-2,1.07-2.78,2.49-1,4.35a2.09,2.09,0,0,0,.75.45,6.51,6.51,0,0,1-3.52-.19c-1.87,1.3-2.24,5-5.79,3.67-.27-.44-.57-.88-.84-1.31-.44-.67-1-1.17-1.8-.61a1.61,1.61,0,0,0-.55,2.24c.28.95.55,1.9.81,2.87-.51,1.77,1.2,4-.74,5.33-.95.62-1.64-.69-2.48-1.36,0-.19.07-.38.1-.57-1.64-3.08-4-5.7-6-8.51-.44-.58-1.1-1.17-1.91-.76-.63.31-.55,1.05-.52,1.66s.18,1.23.25,1.85c.12,1,.31,2.08-.64,2.75s-2.16.14-3.17-.35a10.87,10.87,0,0,1-3.58-3.2c-.55-.65-1.13-1.6-2.1-1.21s-.93,1.41-1,2.28a21,21,0,0,0,.22,5.6c.53,2.52-.7,3.14-2.91,2.76-1.71-.3-3.4-.76-5.15-.9-2.1-.18-3.1.4-2,2.78,1.9,4.18,1.5,5.06-2.69,7.22-1.35.67-2.72,1.27-4.11,1.83-19.87,8-39.9,15.58-60,22.95-2.27.84-5.11,3.35-6.81,1.67-1.92-1.89-.72-5.43-.41-8.25a7.47,7.47,0,0,1,.66-2.14C29.48,302,32.79,295.84,38,291a122.17,122.17,0,0,0,17.15-19.68A25.57,25.57,0,0,1,58,267.88c8.45-8.76,19.76-11.69,30.85-15,1.6-.48,3.82-1.13,4.88.52,1.2,1.86-.71,3.4-1.68,4.93a7.64,7.64,0,0,1-1.61,1.55c-.84.7-2,1.26-1.56,2.67,1,1.35,2.43,1.14,3.8,1.23A60.5,60.5,0,0,0,103,261.81a53.92,53.92,0,0,1,9.93-1.82c1.81-.1,4.28.74,5.19-1.07,1-2-1.2-3.55-2.31-5.12-8.62-12.28-15.17-25.48-18.36-40.22a42.23,42.23,0,0,1-.63-7.44c0-1.39.48-3.61-1.3-3.8-1.63-.17-1.64,2.14-2.25,3.42a4.56,4.56,0,0,0-.21.72c-1.56,6.29-3.89,12.39-5.36,18.69s-4.94,9.76-11.26,11.41c-14.38,3.78-27.65,10-39.13,19.65-4.67,3.95-8.52,8.75-13.19,12.69-2.8.56-1.92,2.81-1.92,4.48q0,59.89,0,119.79c0,1.24-.26,2.49.27,3.68,1,1.33,1.66.32,2.27-.37,1.88-2.1,3.57-4.37,5.58-6.33,7.18-7,13.26-15.1,21.45-21.06A321.77,321.77,0,0,0,78,348.88c1-.69,2.07-1.35,3.06-2.07,14.17-10.53,27.14-22.72,42.61-31.45,5.35-3,9.41-7.85,14.84-10.56,14.2-7.12,29.47-9.07,45.09-7.17a84.29,84.29,0,0,0,35.75-3.19c10.93-3.37,22-6.62,33.16-8.94,10.75-2.23,18.43-8.74,26-15.77,3.06-3.67,5.56-8,10.94-8.91.45-.06.81-.55,1.14-.92,2.42-2.71,5.59-4.52,8.29-6.89a5.34,5.34,0,0,1,2.94-1.48c7.95-.9,12.94-6.14,17.44-12,1.38-1.81.51-3-1.33-3.68-2.15-.51-4.19.59-6.29.43-7.58-.57-9.57-2.88-7.69-9.44a91.64,91.64,0,0,1,4.67-13.34,11.47,11.47,0,0,1,5.57-5.73c4.88-2.43,9.86-4.69,14.86-6.89,1.66-.73,3.52-1.29,4.56-3v0c-.18,0-.36-.06-.54-.11-.13-5.56-.58-6-6-6-.87,0-1.74,0-2.62,0-3.29-.14-4.41-1.68-2.8-4.52,1.15-2,.72-3.27-.61-5a117,117,0,0,0-10.32-11c-1.05-1-3.56-2-1.31-4.07,1.94-1.77,3.73-.62,5.24.8.89.85,1.45,2.05,2.36,2.86,1.73,1.57,3.46,3.27,6.14,3l.14.14.32-.21a3.38,3.38,0,0,0,.32-2.27.65.65,0,0,1,0-.11l-.62.2c-1.26-3.46-.77-4.36,2.53-4.46,2.77-.11,5.75.6,7.47-2.61.19-.33,1.14-.38,1.74-.38,3.38,0,6.74.48,9.26-2.89,1.1-1.47,3.41-1.11,5.25-.48.93.31,2.14.81,2.62-.37.61-1.55-.94-1.78-1.9-2.13s-1.87-.63-2.28-1.68a2.38,2.38,0,0,1,.2-.39l-.33-.18c-4.74-.7-9.42.24-14.07.74a54,54,0,0,1-18.49-1.56,7.7,7.7,0,0,1-5.7-5.33c-1.05-2.83-1.32-5.84-2.45-8.62-.41-.83-.73-1.48-1-2v0c0-2.11-.33-4.22-.19-6.33a5.35,5.35,0,0,0,1.56-1.24c2.19-.34,4.41-.64,6.61-1,12-1.57,24.15-2.13,35.89-5.46,1.42-.46,2.81-.94,4.25-1.34,4.67-1.25,9.61-1.28,14.11-3.24.19-.08.37-.16.56-.26a1.53,1.53,0,0,1-.72-.51C369.47,118.3,371.28,118.32,373.09,118.19ZM65.39,337.71l.09.11Z" transform="translate(-21.86 -12)"/><path class="cls-1" d="M282.91,93.06a3.55,3.55,0,0,0-.68.56c-3.14-3.57-7.44-3.6-11.69-3.8,4.44-.4,8.89-.88,12.25,3A2.12,2.12,0,0,1,282.91,93.06Z" transform="translate(-21.86 -12)"/><path class="cls-1" d="M373.61,117.63c0,1.29-1.17,1.46-2.13,1.67a12.31,12.31,0,0,0-2.51,1,1.53,1.53,0,0,1-.72-.51c1.22-1.46,3-1.44,4.84-1.57-1-4.19-4.23-3-6.41-2.71-3.14.34-6.08,1.14-8.34-1.92-.12-.18-.91.15-1.38.26a6.06,6.06,0,0,1-.23-.63c.43-.23,1-.51,1.3-.29,3.56,2.49,7.52,1.54,11.39,1.48a5.29,5.29,0,0,1,2.18.42A3,3,0,0,1,373.61,117.63Z" transform="translate(-21.86 -12)"/><path class="cls-1" d="M243.28,166.17c.07-.48.15-1,.24-1.42-.11.78-.23,1.57-.36,2.36a77.13,77.13,0,0,1-1.94,9.82C242,173.36,242.64,169.76,243.28,166.17Z" transform="translate(-21.86 -12)"/><path class="cls-1" d="M271.16,155.19a18,18,0,0,1-1.67,4,54.62,54.62,0,0,0-2.46,7.17,167.78,167.78,0,0,0-8.1,31.26,183.3,183.3,0,0,0-2.2,31.14,109.74,109.74,0,0,0,1.43,15.88,9,9,0,0,1,.09,3.36c-4-27.26-1-54.11,8-80.68,1.12-2,1.33-4.38,2.37-6.44a43.31,43.31,0,0,0,1.69-4.14A10.37,10.37,0,0,1,271.16,155.19Z" transform="translate(-21.86 -12)"/><path class="cls-1" d="M403.91,137.23c.07-11.42-5.2-19.16-16.14-22.87.81-1.43,2.25-1.77,3.33-2.54A21.61,21.61,0,0,0,399.46,88c-1.74-5.84-6.72-9.42-14.11-9.55-13.48-.25-26.82,1.9-40.21,2.9-18.37,1.37-36.54,4.93-54.95,6.38-6.55.5-13.17.67-19.65,2.06,4.25.2,8.55.23,11.69,3.8a3.55,3.55,0,0,1,.68-.56,7.71,7.71,0,0,1,3.94-1.47c7.7-.83,15.44-1.38,23.13-2.32a7.88,7.88,0,0,0,1.21-.27c10.54-1.13,20.93-3.12,31.46-4.31,7.57-.87,15.19,0,22.74-1.21,6.27-1,12.57-1.89,19-1.54,4.57.25,9.06,1.18,10.95,5.74s2.05,9.45-.95,13.93c-4.26,6.4-20.44,13.21-27.89,11.71-3.54-.7-5.27-3.11-6-6.4a39,39,0,0,1,0-17.43,14.91,14.91,0,0,0,.63-3.3c0-.61,0-1.27-.79-1.46a1.11,1.11,0,0,0-1.27.59c-1.58,3.3-3.87,6.46-2.23,10.45a3.86,3.86,0,0,1,.61,2.19,3.18,3.18,0,0,0-1.07-2.13c-2.24,5.86-1.8,11.63.32,17.36a6.06,6.06,0,0,0,.23.63c.47-.11,1.26-.44,1.38-.26,2.26,3.06,5.2,2.26,8.34,1.92,2.18-.25,5.42-1.48,6.41,2.71-1.81.13-3.62.11-4.84,1.57a1.53,1.53,0,0,0,.72.51,2.2,2.2,0,0,0,.94.11c.25,0,.37,0,.36-.08-.06-.5.44.34,0,.26-9.26,8-10.19,18.27-2.24,27.51,2.27,2.63-.86,2.2-1.37,3.24,1.24,2.5,3.69,2.05,5.05,1.06,4-2.87,7-1,10.18,1.2-.6.73-1.38,1-1.74,1.66,1.07,2.35,4.18,2,5.5,4.14,3.64,5.89,3.25,12.15,1.39,18.34-1.37,4.55-5.77,5.37-9.74,6.48a4,4,0,0,1-1.09.21c-9.7-.46-20.16-10.23-19.33-20.57a2,2,0,0,0-.67-2c-.58-.32-1.17.12-1.62.58-1.85,1.91-2.48,10.44-.94,13,.75-.1.92-1.17,1.07-1.17.88,0,1,.89,1.16,1.54.44,1.54-.85,2.34-1.6,3.38-2.32,3.38-4.27,4.08-6.09,1.9-3.65-4.34-1.62-9.23-1-13.95.43-3,2.69-3.85,5.23-4.55,2.15-.57,4.3-1.21,6.48-1.68,6.83-2.51,14.1-3.32,21-5.51.67-2-1.17-2.12-2-1.81-5.32,2-11.35-.83-16.45,2.62a3.23,3.23,0,0,1-3.47-.21c.38-2.36,1.13-3.83,4-3a2.71,2.71,0,0,0,3.44-2.06c-6.07-6.51-10-13.94-9.86-23.11,0-1.08-.33-2.26-1.87-2.24-1.25.54-1.38,1.72-1.4,2.81-.16,6.34-.51,12.67,2.18,18.72,1.7,3.82.81,5.51-3.17,7.25-1.09.47-2.43.62-3.11,1.75a2.38,2.38,0,0,0-.2.39c.41,1.05,1.3,1.35,2.28,1.68s2.51.58,1.9,2.13c-.48,1.18-1.69.68-2.62.37-1.84-.63-4.15-1-5.25.48-2.52,3.37-5.88,2.9-9.26,2.89-.6,0-1.55.05-1.74.38-1.72,3.21-4.7,2.5-7.47,2.61-3.3.1-3.79,1-2.53,4.46l.62-.2c6.46-2.18,13-4.12,20.7-6.13-2.93,6.06-2.69,11.77-3.24,17.39a6,6,0,0,1-2.86,4.22c-3.42,2.35-7.34,2.92-11.34,3.1-1.58.07-2.72-.7-2.75-2.37-.05-3.21-1.14-6.37-.45-9.64.3-1.37.58-2.87-.68-4l-.14-.14c-2.68.31-4.41-1.39-6.14-3-.91-.81-1.47-2-2.36-2.86-1.51-1.42-3.3-2.57-5.24-.8-2.25,2.09.26,3.07,1.31,4.07a117,117,0,0,1,10.32,11c1.33,1.69,1.76,2.92.61,5-1.61,2.84-.49,4.38,2.8,4.52.88,0,1.75,0,2.62,0,5.38,0,5.83.46,6,6,.18.05.36.07.54.11,3.05.47,5.59-.74,7.9-2.73-.35-2.42-1.11-4.71,1.39-6.77a7.64,7.64,0,0,1,5.87-1.67c3.36.25,6.13-.39,7.84-3.69,1-1.93,2.15-1.74,3.69-.19,2.08,2.09,4.31,4.2,7.72,3.82,1.81-.19,1.1,1.62,1.73,2.37,2.58,1.38,5.74,2.24,6.27,5.75.86,5.7,0,10.81-5.07,14.59-2.25,1.68-5.06,2.72-6.63,5.24.21.84,1.23.94,1.57,1.71a1.73,1.73,0,0,1-1.07-.84,2.7,2.7,0,0,0-.92-1c-6.7.9-11.94-1.07-14.83-7.62-.07-.19-.39-.25-.64-.3-2.3,1.53-.49,3.57-.68,5.36.14,1.6.65,3.12.74,4.73.25,4.46-2.48,7.21-6.94,6.95a23.9,23.9,0,0,0-2.92-.31,5.25,5.25,0,0,0-3.13,1.83c-6.06,6-12.07,12-18.09,18.06a4.91,4.91,0,0,0-1.64,2.42c-.12.68,0,1.26.94.86,6.12-3,12.3-6,18.35-9.16,11-5.82,22.3-11.08,33.12-17.28,7.12-4.1,10.4-10.72,12.45-18.16.94-3.4-.35-6.64-1.81-9.7-.87-1.8.57-1.79,1.51-2.18,3.3-1.35,6.43-3.11,7.93-6.44,4.42-9.83,5.31-19.56-1.88-28.93,1.19-.18,2.25-.31,3.32-.5C399.12,152.33,403.84,146.82,403.91,137.23ZM357.36,100a4.79,4.79,0,0,0,.37,2.44c.43-.25-.21.44-.29-.2A5.43,5.43,0,0,1,357.36,100Z" transform="translate(-21.86 -12)"/><path class="cls-1" d="M202.24,65.52c-.28-2.25-.05-5.36-3.39-1.65a2,2,0,0,1-3.4-.35c1-1.82-.67-2.43-1.62-3.2-2.3-1.89-4.54-3.84-6.85-5.72-1-.81-2.39-1.46-2.38-3.11a1.5,1.5,0,0,1,1.22-1,24.93,24.93,0,0,1,5.16.77c4.67.84,8.53-.5,10.85-4.7,3.66-6.65,6.61-13.66,10.43-20.24,1.49-2.57-.82-3.8-2.54-5-2.23-1.56-4.58-2.25-6.71.08a67.31,67.31,0,0,1-5,5.5c-6.4,5.64-13.43,9.88-22.29,10.11a56.14,56.14,0,0,0-5.92.81c-5.48.75-9.19,3.72-10.64,9.12-3.3,12.27-7.69,24.2-11.14,36.42-3.1,11-8.3,21.08-13.73,31-1.25,2.3-2.54,4.58-3.62,7-1.6,3.55-1.23,4.4,2.48,5.21a36.5,36.5,0,0,0,10.36,1.2,28.84,28.84,0,0,1,3.72.11c1.13.16,2.38.46,2.49,1.8s-1.22,1.32-2.12,1.56a16.32,16.32,0,0,0-1.79.48c-5,1.9-9.89.47-14.67-.7-3.22-.79-4.87-.11-6,2.92-3,7.8-6,15.57-8.27,23.63-1,3.47-1.54,6.84,1.24,9.84a1.8,1.8,0,0,1,.35,1.76c-2,.2-3.24,1.15-3.22,3.32-2-.48-1.37-2.75-2.72-3.88-8.08,12.3-19.22,21.73-29.29,32.13a30.51,30.51,0,0,1-4.39,3.46c-1.38.74-2.33,2.08-3.68,2.84s-2.36.62-1.79-1.36a8.23,8.23,0,0,1,3-2.85c2.08-1.18,3.53-3.06,5.2-4.7,7.77-8.08,16.1-15.61,23.16-24.36a45.83,45.83,0,0,0,9.44-18.38,148.62,148.62,0,0,1,14.22-36.46,248.69,248.69,0,0,0,22.15-55.39c1.54-5.76,3.83-11.31,5.24-17.14,1.71-7.08,6.51-11,13.7-11.9,2.09-.27,4.19-.65,6.3-.72,6.12-.21,11.11-2.25,14.29-7.85A20.08,20.08,0,0,1,195.66,20c4.44-3.32,9.25-5.07,14.61-2.29,5.57,2.88,8.56,7.46,8.32,13.89a30.78,30.78,0,0,1-3,11.52C212,51.11,207.14,58.32,202.24,65.52Z" transform="translate(-21.86 -12)"/><path class="cls-1" d="M25.53,269.57a1.91,1.91,0,0,1,0,.35c-4.31.54-2.87,3.85-2.87,6.25q-.07,57.93,0,115.85c0,1.62-.09,3.24-.14,4.86-.92-1.1-.48-2.4-.48-3.59q0-62.58,0-125.15c0-11.32,0-22.64-.13-34-.05-2.7.91-3.69,3.38-4.22,4.62-1,9.2-2.17,13.74-3.43a72.12,72.12,0,0,0,32.7-19.27c1.22-.27,1.39.57,1.52,1.44-2.51,5.69-7.68,8.68-12.45,11.94-9.11,6.21-19.69,8.88-30.14,11.75-4.81,1.33-4.9,1.27-4.84,6.27C25.93,249,25.44,259.26,25.53,269.57Z" transform="translate(-21.86 -12)"/><path class="cls-1" d="M65.48,337.82l-.09-.11Z" transform="translate(-21.86 -12)"/><path class="cls-1" d="M278.53,269.72c2.08-4.44,4.32-8.47,10-9.4,2.24-.36,3.17-3.39,5.4-4.56,1.93-1,3.42-2.82,5.16-4.2a4.39,4.39,0,0,1,2.25-1.21c8.4,0,12.68-6.1,17.45-11.52,1.3-1.48,0-1.84-.93-2.4,1.65-2.33,4.21-2.91,6.74-3.57,1.93.23,2.52,1,1,2.55-4.47,4.42-8.74,9-13.39,13.27-7.9,4.4-16,8.41-23.62,13.36C285,264.36,282,267.36,278.53,269.72Z" transform="translate(-21.86 -12)"/><path class="cls-1" d="M312.18,248.68c3.53-4.81,8.27-8.46,12.2-12.89.37-.42,3.19-1.23.28-2.31a2.73,2.73,0,0,1,1.18-2.2c3.42-3.33,4.57-7.23,3.09-11.85a15.38,15.38,0,0,1-.6-4.78c.15-1.53-.32-3.23,1.19-4.38l9,13.46c-7.82,6.78-14.74,14.46-22.07,21.73-.1.11.17.59.27.89A12,12,0,0,1,312.18,248.68Z" transform="translate(-21.86 -12)"/><path class="cls-1" d="M72.75,209.08a2.15,2.15,0,0,0-1-1.82l1.6-1.57c.19.94.37,1.7,1.53.67s1.9-2.55,3.65-2.75C78.21,207.15,75.84,208.49,72.75,209.08Z" transform="translate(-21.86 -12)"/><path class="cls-1" d="M81.51,198.14c-1.15,2.21-2.57,4.13-5.2,4.7A23,23,0,0,1,81.51,198.14Z" transform="translate(-21.86 -12)"/><path class="cls-2" d="M72.75,209.08a19,19,0,0,0,5.73-5.47c12.73-11.29,24.9-23.1,34.81-37.69.82,2.43.72,4.72,1.88,6.58,2.61,9,8.88,14.06,17.76,16.23,2.49.6,6.66.85,6.36,3.28-.35,2.81-4.48,2.09-7.07,2.07a16.21,16.21,0,0,1-11.68-4.66,3.46,3.46,0,0,1-1.88-1.49c.74.67.62,2,1.07,3.12,4.84,8.75,11.69,14.94,21.71,17.12.93.81,2.35-.22,3.21.84-1.28,2.74-4.08.43-5.8,1.74-.48.15.18.69,0,.24-.1-.19,0-.28.12-.35,1.06-.48,2.17-.17,3.27-.27,5.55-1,11.08,1.31,16.63.07,4.25-.19,8.28-1.47,12.36-2.52,2.5-.64,6.29-1.82,7.22.11,1.23,2.53-2.58,3.92-4.44,5.49-3.16,2.65-7,4.12-10.77,5.81a6.46,6.46,0,0,1-4.11,1.49c2-1,4.62,0,7.14-.71,24.92-2,46.79-10.43,63.31-30.07,1.92-2.27,3.64-4.72,5.33-7.18.64-.93,1-2,2.44-1.73.86,3.69-.67,7.12-1.17,10.66-2.17,3-.25,6.42-1.08,9.56l-3.78,11.21c-.48,1.61-.27,3.46-1.64,4.77a13,13,0,0,0-1.35,2.42,16.2,16.2,0,0,0,.86-1.54c1.11-1.26,1.54-3,3-4.05,2.11-.85,1.25,1,1.29,1.61a55.5,55.5,0,0,0,2.88,15.72c2.95,8.28,8.75,13.69,16.7,17,.51.63,3.1.55.74,2.16-3.52.75-7,1.6-10.58,2.24-9.3,1.68-17.57,5.4-24.21,12.26-5.28,5.44-11.61,6.94-18.81,5.3-9.09-2.07-18.15-4.26-27.24-6.38-1.2-.28-2.44-.44-3.66-.66-6-1.66-12-.92-18-.3a10.53,10.53,0,0,0-5.9,2.12,4.11,4.11,0,0,1-1.63.75c-2.35-.42-3.13-2.38-3.8-4.21-2.14-5.85-4-11.75-4.73-18-1-9.07-5.45-16.78-10.39-24.16-6.21-9.28-10.68-19.41-15.16-29.56-.6-1.36-.84-2.81-1.39-4.17-.21-.45-.8.14-.34,0,.19-.07.45.22.5.46,2.28,9.61,5.17,19,10.17,27.61,2.07,3.56,4.33,7,6.59,10.42a54.13,54.13,0,0,1,9,23.92,32,32,0,0,0,6.29,15.8c1.67,2.22,1.94,4.2.18,6.39s-2.85,5.09-6.51,3.95a3.73,3.73,0,0,1-1.55-1.71c-1.73-3.78-2.5-7.85-3.55-10.46.71,3,1.4,7.43,2.74,11.7a27.93,27.93,0,0,1,.94,3.48,10.7,10.7,0,0,1,.07,2.19c-.1,1.23-.19,2.55-1.6,3-1.67.52-2.39-.74-3.08-1.93l-7.41-9.91c.45,2.18.84,3.61,1,5.06.31,2.67-.8,3.73-3.52,2.94-3-.87-5-3-7-5.77,0,2.84-.07,5.16,0,7.47.17,4.42.21,4.42-4.3,3.66-2.21-.38-4.4-.78-6.63-1.18-.41,1,.48,1.33.83,1.84,2.47,3.53,2,5.94-2,7.72-6.36,2.84-12.78,5.57-19.29,8.07-17.3,6.65-34.67,13.1-52,19.77-2.9,1.11-3.31.47-3.45-2.48-.5-10.61,4.74-18.82,11.49-25.86,6.92-7.22,13.67-14.48,19.5-22.6a28.45,28.45,0,0,1,9.82-8.51,108.27,108.27,0,0,1,24-9.15c1.92-.5,4.49-1.44,5.86.68s-.55,3.95-1.58,5.75-2.75,2.74-4.43,3.77a2.94,2.94,0,0,1-2.92,1.11c2.15-.31,4.48.45,6.84-.18,8.24-1.1,16.11-4.49,25.44-3.93-6.46-8.54-12-17-15.82-26.41s-7.71-19-7.32-29.69q-3,10-6,20a14,14,0,0,0-.29,1.46c-1.38,7.47-5.47,11.71-13.2,13.58-19.26,4.66-35.47,14.75-48.65,29.61-.57.64-1.06,1.36-1.59,2-2.52-3-.92-6.61-1.06-9.85-.36-8,.09-15.94,0-23.91,0-2.52.83-3.3,3.21-3.85,11.29-2.63,22.46-5.69,32.39-12A56.92,56.92,0,0,0,72.75,209.08Z" transform="translate(-21.86 -12)"/><path class="cls-2" d="M354,125.73c-1,7-1.66,14.07,1.43,20.82,2,4.31,1.16,6.65-3.19,8.46-1.37.57-2.81,1-4.22,1.44-4.46.36-8.94.62-13.39,1.08a54.82,54.82,0,0,1-20.35-1.69,7.08,7.08,0,0,1-5.23-4.67,94.45,94.45,0,0,1-2.92-10.4c-1-3.47-1.5-6.92.22-10.33,14.57-1.89,29.29-2.75,43.64-6.23C353.62,123.67,353.62,123.67,354,125.73Z" transform="translate(-21.86 -12)"/><path class="cls-2" d="M338.55,223.73c-4-3.72-8.28-7.21-8.55-13.31a7.43,7.43,0,0,1-.52-5.08c.18,2.67-1.05,6.1-.22,9.62.41,2.19,1,4.35,1.22,6.55.54,5.15-1.59,9.09-5.82,12l-6.83,3c-4.28.53-8.56,1.53-12.76-.61-1.87-1-2.8-2.06-2.66-4.31.5-7.86,3.56-14.88,6.92-21.81.64-1.32,2.13-1.65,3.34-2.23q10.2-4.91,20.43-9.78l8.43-2.92c7.92-4,15.91-7.79,25.16-7.12,1.1.08,2.23.07,3.06,1,3.74.17,6.65,2,7.39,5.57,1,5,.26,9.88-3.49,13.82-2.67,2.82-6.08,4.65-9.29,6.74l.08,0a13.5,13.5,0,0,1-12.92-2.5c-2-1.61-1.72-3.82-2.67-5.65a6,6,0,0,1-1.28-5.55c2.72-1,3.93.94,5.16,2.72a14.18,14.18,0,0,1,.95,2.82c1.45,3.7,4.62,5.09,8.41,3.82,5.59-1.88,9.06-6.16,12.27-10.74,1-1.39.22-2.61-.82-3.64a12.21,12.21,0,0,0-8-3.62c-5.41-.37-10.15,1.77-15,3.69-1.79.71-1.38,2.84-2.56,3.94-.75.08-1.11-.38-1.44-1,1.56,4.19.07,8.84,2.05,13a3.64,3.64,0,0,0,.08,1.11c1.31,3.11,2.08,6.23-.56,9S342.06,225,338.55,223.73Z" transform="translate(-21.86 -12)"/><path class="cls-2" d="M323.37,171.46c.38-.62.43-1.5,1.28-1.74,7-2,14-4,22.06-6.33-3.42,6.07-3.73,11.79-3.78,17.63,0,4.41-3.1,6.85-7,8.3-10.42,3.89-12.81,2.34-13-8.55,0-2.35.19-4.71.29-7.07Z" transform="translate(-21.86 -12)"/><path class="cls-3" d="M271.16,155.19a18,18,0,0,1-1.67,4c-.13.36-.26.7-.4,1.07a1.41,1.41,0,0,1,0-.21c.48-1.09.79-2.23,1.27-3.31A10.37,10.37,0,0,1,271.16,155.19Z" transform="translate(-21.86 -12)"/><path class="cls-1" d="M169.25,263.46c-3.78.62-7.47-1.39-12-.39a1.45,1.45,0,0,1,.08-.21c.53-1,1.67-1,2.68-1A38.5,38.5,0,0,1,169.25,263.46Z" transform="translate(-21.86 -12)"/><path class="cls-2" d="M253.75,250.7c.91-1.11-.41-1.47-.74-2.16,4.87,1,4.74,1,4.14-4.14a167.91,167.91,0,0,1,9.43-78.85c1.41-.08,1,.74.73,1.48-6.49,19.78-10.25,40-9.71,60.88a161.85,161.85,0,0,0,5.6,39.82c.29,1,1,2.06-.19,3.58-1.8-3.41-2.27-6.94-3.12-10.33a33.42,33.42,0,0,1-1.13-6.23C258.58,251.36,257.44,249.55,253.75,250.7Z" transform="translate(-21.86 -12)"/><path class="cls-1" d="M24.27,392.32c.22-4.19,4.64-4.47,7.17-6.52q-3.14,3.57-6.29,7.13Z" transform="translate(-21.86 -12)"/><path class="cls-1" d="M267.31,167l-.73-1.48q1.13-3.33,2.27-6.68c1,.47.5,1.39.63,2.12C268.59,162.94,268.64,165.24,267.31,167Z" transform="translate(-21.86 -12)"/><path class="cls-1" d="M93,262.88c-2.42,1.17-4.93,1-8.38.49L89.06,262C90.1,263.37,91.75,262.25,93,262.88Z" transform="translate(-21.86 -12)"/><path class="cls-2" d="M184.74,51.84c4,3.3,7.92,6.59,11.85,9.91.52.44,1.38,1,.89,1.73-.23.33-1.33.05-2,0a56.27,56.27,0,0,0-10.58-5.78c-2.54-.78-5-1.93-7.58-2.44-2.32-1.07-4.89-1.2-7.38-1.62A33.81,33.81,0,0,1,176,54.87c2.39,1.31,5.84.54,7.28,3.7a31.5,31.5,0,0,1,7.63,9.61c1,2.23.12,3.51-2.07,4.17-7.31,2.21-14.59,3-21.79-.4-1.46-.8-3.1-1.29-4.34-2.47,1,1.15,2.5,1.5,3.74,2.28,6.89,3.32,13.92,3,21.07,1,2.86-.8,2.89-.71,3.41,1.41C186.52,83.27,179.42,90.42,173,98c-5.44,6.38-5.26,12.21-1.73,19s7.11,14,9.22,21.56c3.91,14.06-.1,25.2-12.17,33.44-7.79,5.32-16.48,8.68-25.48,11.27-4.28,1.23-8.06-.54-11.64-2.74-4.93-3-8.75-7.32-12.8-11.35-4-3.47-3.9-7.51-2.45-12.3,2.67-8.83,5.9-17.43,9.4-25.95.7-1.71,1.45-2.08,3.35-1.42a32.71,32.71,0,0,0,16.56,1.54c7.68-1.56,15.13-4,22.65-6.2-5,1.31-9.89,3-15.05,3.69-3.33.46-6.64-.91-9.91.21a47.67,47.67,0,0,1-11.81-1.55c-2.71-.82-3.56-1.84-2.09-4.7,4.32-8.42,8.82-16.73,12.78-25.34,4.87-10.61,7.25-22,10.89-33,1.91-5.77,4.06-11.48,5.39-17.46,1.25-5.67,5.32-8.82,11-9.86a37.37,37.37,0,0,1,5.55-.75c11.45-.32,19.91-6.15,27-14.54,1.51-1.79,2.83-3.5,5.54-2.63a12.54,12.54,0,0,1,7,5.25c.58.91-.29,1.63-.72,2.34a170,170,0,0,0-9.37,18.27c-3.46,7.67-9.49,9.57-18.37,6.12-.52-.38-1.1-.08-1.65-.16C184.05,51.28,184.65,51.39,184.74,51.84Z" transform="translate(-21.86 -12)"/><path class="cls-2" d="M310.49,88.32c13.73-2.09,27.37-5.1,41.33-5.17,7.63,0,15.11-1.18,22.65-2,4.58-.49,9.19-.94,13.76,0,9.49,1.91,11.16,10.09,8.5,18.5-1.41,4.47-5.28,7.77-9.79,9.81a65.73,65.73,0,0,1-15.6,4.94c-7.58,1.34-11.46-1.57-12.29-9.16-.71-6.58-.73-13.14,1.36-19.85a20,20,0,0,0-3.49,10.33v0c-1.52,4.39-.33,8.85-.31,13.28,0,1.61.22,3.21.34,4.82-5.1,7.77-17.46,7.31-21.66-.94-3.5-6.88-3.61-14.4-3.36-21.91a35,35,0,0,0,.22-3.69,28.47,28.47,0,0,0-1.74,23.51c2.78,8,1.68,9.45-6.74,10.17-9.59.82-18.91.58-27.48-4.67a17.91,17.91,0,0,1-6.76-6.68,161.08,161.08,0,0,1-7.21-16c0-1.37-.75-2.84,1.78-3,8.86-.64,17.71-1.51,26.56-2.29.69,3.12-.74,5-4.52,5.42a93.13,93.13,0,0,1-10.83.16c-7.26,0-7.44.08-5,6.84,2.08,5.65,6.13,9.53,11.51,12.49,6.9,3.78,14.11,3.27,21.41,2.92,2.31-.11,4.16-.58,2.33-3.53a8.19,8.19,0,0,1-.92-4.34c0-2.86-.07-5.73.12-8.59.57-8.53.55-8.59-7.9-8.75A7.93,7.93,0,0,1,310.49,88.32Z" transform="translate(-21.86 -12)"/><path class="cls-1" d="M143.26,188c5.8.91,9.16-3.7,13.86-5a29.62,29.62,0,0,0,12.8-6.67c3.14-2.86,6.48-.29,9.11,2.46q11.57,12,23.31,23.9c1.62,1.64,2.6,3.26,1.61,5.88-3.45-2.36-6.09-1.54-9.93.3-3.23,1.55-6.66,5.84-11.5,3.33,0-.19-.14-.65,0-.82,1.38-1.48,2.23-3.21,1.29-5.09-1.05-2.09-3.1-2.68-5.37-2.65-3.61,0-7.23,0-10.84,0-2.54,0-5.17-.58-6.76,2.54-.86,1.67-3.07.78-4,.06-3.68-2.81-8.09-2.74-12-2.39-4.53.42-7.15-2.85-11.36-3.92,2.41-1.38,4-3.49,6.88-3.06,1.74.25,3.73.23,4.51-1.74s.91-3.88-.61-5.61A15,15,0,0,1,143.26,188Z" transform="translate(-21.86 -12)"/><path class="cls-2" d="M354,125.73c-.62-2.38-2.69-1-4-1.52,5.83-2.51,12.29-2.41,18.23-4.45,1.38.37,2.59-1,4-.37-11.88,14.43-12,16.45-1.21,31.09-1.26,1.13-2.88.4-4.26.84a.79.79,0,0,1-1.27-.19c-6.05-4.29-9.29-10.22-10.32-17.5C354.81,131,355.69,128.18,354,125.73Z" transform="translate(-21.86 -12)"/><path class="cls-2" d="M235.05,201.35c-1-3.23-2-6.46.17-9.63.84,1,.24,2.09.17,3.14h-.06c1.52-4.86,1.4-10,4.09-14.48a210.86,210.86,0,0,0,5.66-46.06A260.28,260.28,0,0,0,243,97.83c-.09-.78-.72-1.87.74-2,1.1-.09.94.93,1,1.61,4.86,35.07,2.18,69.48-9,103.15C235.63,200.89,235.28,201.1,235.05,201.35Z" transform="translate(-21.86 -12)"/><path class="cls-1" d="M190.93,74.18c-.13-3-1.88-1-2.76-.76-7.38,2.38-14.65,2.82-21.77-.89a9.43,9.43,0,0,1-.94-.61c-.18-.71,0-1,.81-.85,7.38,2.87,14.8,2.75,22.32.5,1.92-.57,2.69-1.47,2.32-3.39C192.31,70.18,192,72.18,190.93,74.18Z" transform="translate(-21.86 -12)"/><path class="cls-1" d="M239.42,180.38a79.77,79.77,0,0,1-4,15.48c-.89-1.53.06-2.85-.21-4.14q1-5.29,2.08-10.59c0-1.15-.41-2.39.79-3.28C239.61,178.17,238.42,179.86,239.42,180.38Z" transform="translate(-21.86 -12)"/><path class="cls-1" d="M158.82,210.44c-5.72,1.47-11.51,1.08-17.3.67.23-2.11,1.92-.77,2.88-1.17,1.21-.5,2.6-.5,3.86-.93.46-.22-.37-.46-.06-.07-1.26.42-2.52,1-3.79,0-1-.17-2.12.06-3-.76,2.71,0,5.43-.08,8.14.05.7,0,2.61-.9,1.75,1.52-.36,1,1,.57,1.58.6C154.88,210.44,156.85,210.42,158.82,210.44Z" transform="translate(-21.86 -12)"/><path class="cls-1" d="M183.28,58.57c-2.22-1.65-5-1.88-7.44-3-.07-1.41.8-1.19,1.67-1,2.53.87,5.35,1.09,7.36,3.17C184.22,57.79,183.48,57.67,183.28,58.57Z" transform="translate(-21.86 -12)"/><path class="cls-1" d="M166.22,220.11a19.93,19.93,0,0,1-8.4,1.1,12.85,12.85,0,0,1,5.37-1.88C164,220.56,165.31,219.48,166.22,220.11Z" transform="translate(-21.86 -12)"/><path class="cls-1" d="M229,217.09l2.23-4.53.87,1.6c-.09,1.84-1.62,3-2.29,4.5C228.58,218.65,228.55,218,229,217.09Z" transform="translate(-21.86 -12)"/><path class="cls-1" d="M119.73,191.05c-1.36-1.46-1.85-3.36-2.45-5.27,1.3,1,2.66,2,3.26,3.64Z" transform="translate(-21.86 -12)"/><path class="cls-1" d="M180.3,96.55c-.18.7-.54,1.32-1.42,1.3a1.08,1.08,0,0,1-1.13-1.14c0-.9.88-1.1,1.54-1.27S180.34,95.77,180.3,96.55Z" transform="translate(-21.86 -12)"/><path class="cls-2" d="M388.44,148.94c-10.2,1.42-16.76-3.88-21.84-11.86-1.64-2.58-1-5.3,0-7.86,3.41-8.43,10.51-13.37,17.25-13.13,7.82.28,15.06,6.63,16.86,14.26,1.27,5.33,1.65,10.61-3.43,14.61-2,1.6-4.63,1.82-6.66,3.28A2.09,2.09,0,0,1,388.44,148.94Z" transform="translate(-21.86 -12)"/><path class="cls-2" d="M380.09,155.08c3.39,1.38,7,2.46,8.05,6.69,1.53,6.16,2,12.47-1,18.12-1.76,3.38-5.85,4.62-9.77,5.09-7.7-1.82-14.78-4.35-18.14-12.62-1.1-2.7-3.18-5-2.8-8.19a5.52,5.52,0,0,1,2-4.11c7-2.53,14.19-4.52,21.7-4.94Z" transform="translate(-21.86 -12)"/><path class="cls-2" d="M358.46,160.06c-2.19,4-.8,7.21,1.2,11.14,1.75,3.43,4.52,5.56,6.52,8.48,1.23,1.8,2.68,2.8,4.59,2.19,3.35-1.07,4.07,2.85,6.62,3.11-5,.89-9.26-1.27-13.05-4.06A21.21,21.21,0,0,1,356,162.25c-2.23,3-3.05,8.2-2.06,13.18,1.23,1,1,2.25.77,3.54,0,2.41-1.1,4-3.53,4.49s-3.91-1.22-4.92-3.13c-1.81-3.39-1-7-.51-10.53,1-6.89,1-6.89,7.8-8.59C355.17,160.8,356.82,160.44,358.46,160.06Z" transform="translate(-21.86 -12)"/><path class="cls-1" d="M369.75,188.64c-8.27-.86-15.9,1.24-23.25,4.88a10.44,10.44,0,0,1-5,1.25,5.68,5.68,0,0,1,3.59-9.07,2.3,2.3,0,0,1,.74,0c5.72,1.06,9.92-.92,12.25-6.74,3.64,4,6.49,8.59,12.55,6.12C371.34,186.69,370.05,187.53,369.75,188.64Z" transform="translate(-21.86 -12)"/><path class="cls-1" d="M365.5,151.13l1.27.19a5.16,5.16,0,0,0,5.84-.28c2.25-1.48,4.61-3.27,6.74.27.41.67,1.28.62,2,.7,1,.1,2.55-.39,2.38,1.42-.13,1.41-1.4,1.53-2.56,1.57-.37,0-.74.05-1.11.08l.07,0c-2.46-2.28-5-.08-7.37.11-2,.16-3.81.68-5.81,0a3.05,3.05,0,0,0-3.92,1.17c-1.93,2.91-4.5.27-6.75.56-.65.08-.51-1.16,0-1.41,2.15-1,1.51-3.07,1.83-5.21C360.65,152.47,363,152.75,365.5,151.13Z" transform="translate(-21.86 -12)"/><path class="cls-1" d="M348,200.64l.81,6c-2.09,1.74.69,3.65-.17,5.43-2.65-5-2.38-10.45-2.6-16.28,1.69,1.42.95,3.2,1.87,4.35.22.09.3.2.26.33S348.1,200.64,348,200.64Z" transform="translate(-21.86 -12)"/><path class="cls-1" d="M354.7,179a4.92,4.92,0,0,1-.77-3.54c.09-.85.18-1.7.3-2.79,1.87.83,2.88,2,2.79,4A2.22,2.22,0,0,1,354.7,179Z" transform="translate(-21.86 -12)"/><path class="cls-1" d="M388.44,148.94a2.81,2.81,0,0,1,2.23-.7c.9.56,2.16,1.07,1.89,2.31s-1.66.8-2.5.9C388.17,151.65,388.59,150.05,388.44,148.94Z" transform="translate(-21.86 -12)"/><path class="cls-1" d="M364.36,214.77c.25,0,.5,0,.74.08,1.17.26,2.7.17,2.78,1.83,0,.75-.89,1.25-1.69,1-1.52-.38-2.42-1.26-1.75-3Z" transform="translate(-21.86 -12)"/><path class="cls-1" d="M356.92,95.73c1.61,2.44.69,5,0,7.57V95.73Z" transform="translate(-21.86 -12)"/><path class="cls-1" d="M142.94,128.75a229.4,229.4,0,0,0,25.2-4.16c-7.24,3.61-14.7,6.33-22.89,6.46.94-1.4,2.65-.29,4-1.28C147.28,128,144.85,129.72,142.94,128.75Z" transform="translate(-21.86 -12)"/><path class="cls-1" d="M184.74,51.84a6.08,6.08,0,0,1-3.51-2.16,5.72,5.72,0,0,1,4.45,1.26Z" transform="translate(-21.86 -12)"/><path class="cls-1" d="M329.26,215c-1.3-3.76-.49-7.6-.59-12.48a14.42,14.42,0,0,1,1.33,7.94C328.69,211.77,329.94,213.52,329.26,215Z" transform="translate(-21.86 -12)"/><path class="cls-1" d="M143.68,265.53c-4,4.88,1.77,3.29,3.07,4.67-2.29,1-4.59,2.8-6.83-.08,1.64-2.25.94-4.2-.61-6.2A31.53,31.53,0,0,1,132.93,247c-1-10.47-6.21-19-11.94-27.41a83.54,83.54,0,0,1-12.83-30.8,18.36,18.36,0,0,1-.31-2.21,3.16,3.16,0,0,1,.46-2c1.24,2.87,2.52,5.73,3.73,8.62,4.53,10.83,10.4,20.92,16.59,30.88,4.29,6.92,7.38,14.33,8,22.68.38,5.37,2.6,10.37,4.46,15.38C141.52,263.4,141.87,265.14,143.68,265.53Z" transform="translate(-21.86 -12)"/><path class="cls-1" d="M133.28,272.48c-1.84-1-2,.5-2.34,1.63a45,45,0,0,1-2.67-13.71C131.15,263.94,131.79,268.39,133.28,272.48Z" transform="translate(-21.86 -12)"/><path class="cls-1" d="M144.41,208.93h4.16c-2.22,2.09-5,.69-7,2.18h-4.44C139.36,208.43,142.46,210.78,144.41,208.93Z" transform="translate(-21.86 -12)"/><path class="cls-1" d="M229,217.09c.19.57-.23,1.44.81,1.57a6.36,6.36,0,0,1-2.82,3.57C226.86,220,227.93,218.53,229,217.09Z" transform="translate(-21.86 -12)"/><path class="cls-2" d="M327.09,209.45a20.13,20.13,0,0,1-.47,4.42,19.07,19.07,0,0,0-.17,5.18c.12,2,3.14,2.19,3.16,3.79s-3.66.84-3.28,3.57c.29,2.07-1.75,2.86-2.58,4.31-.69,1.21-1.52,1.45-2.88,1.7-2.6.46-5.49,0-7.73,2.08-.94.87-2.1.48-3.12-.13a21.21,21.21,0,0,0-2.56-1.48c-4.68-2-4.69-2-1.45-5.61.24-.28.61-.61.6-.91-.09-3.53,1.92-6.36,2.9-9.49,1.62-5.13,5.52-7.06,9.36-9.27,1.41-.81,3.18-1.14,4.67-2.1,2.58-1.66,3.39-1.12,3.55,2.07C327.12,208.21,327.1,208.83,327.09,209.45Z" transform="translate(-21.86 -12)"/><path class="cls-2" d="M348,200.64a.34.34,0,0,1-.09-.54c-.33-3.49,1.48-4.42,4.64-5.74a34.87,34.87,0,0,1,12.18-2.86c4.57-.21,8,1.74,10.72,5.4a2.09,2.09,0,0,1,.05,2.93c-3.72,5.09-7.47,10-14.05,11.75-3.27.87-8.23-.84-8.61-4.11C352.46,204,350.45,202.34,348,200.64Z" transform="translate(-21.86 -12)"/><path class="cls-1" d="M177.51,54.57c-.64.17-1.33.25-1.67,1l-6.74-1.48C172.09,52.8,174.84,53.33,177.51,54.57Z" transform="translate(-21.86 -12)"/><path class="cls-1" d="M166.27,71.07l-.81.85c-1.5-.3-2.5-1.24-3.85-3C163.71,69.59,165.14,70,166.27,71.07Z" transform="translate(-21.86 -12)"/><path class="cls-2" d="M310.49,88.32c4,2.15,8.38,1.54,12.65,1.55,2,0,2.75.36,2.6,2.76-.34,5.43-.1,10.9-.16,16.35a6.58,6.58,0,0,0,1.79,4.75c1.77,1.88,1.05,2.67-1.21,3.11a45.79,45.79,0,0,1-20.16-.37c-5.12-1.32-9.72-4.87-13.52-9.34-3-3.49-3.15-7.89-5.58-11.45-1.09-1.59.25-2.87,2.45-2.83,5.24.1,10.47.11,15.71,0,2.9-.06,5.55-.75,5.51-4.54Z" transform="translate(-21.86 -12)"/><path class="cls-2" d="M332.9,99c2.54-2.7,1.18-6.54,2.1-10a2.43,2.43,0,0,1,2.94-2.11c3.57.41,7.13-.7,10.72,0a8,8,0,0,0,4.41-.49,2.11,2.11,0,0,1,2.7.61c.75,1.06,0,2-.6,2.7-2.37,2.63-2.54,5.42-2.12,8.92.52,4.37-.3,8.89-.59,13.35-.07,1.16-.92,1.63-2,2a8.44,8.44,0,0,0-2.34,1.13c-1,.73-4.24.38-5.34-.32-4.92-3.1-5.29-9.41-9.35-13.11C333,101.19,333.14,100.19,332.9,99Z" transform="translate(-21.86 -12)"/><g id="coin"><polygon class="cls-4" points="315.1 183.74 335.47 88.48 331.11 72.6 270.81 0.01 185.2 49.91 177.49 63.91 166.57 159.12 167.07 176.71 224.53 258.27 305.87 202.14 315.1 183.74"/><polygon class="cls-5" points="177.49 63.91 225.32 46.41 270.81 0.01 296.86 57.71 335.47 88.48 315.1 183.74 267.39 202.21 224.53 258.27 201.53 190.24 166.57 159.12 177.49 63.91"/><polygon class="cls-6" points="201.53 190.24 267.39 202.21 224.53 258.27 201.53 190.24"/><polygon class="cls-7" points="270.81 0.01 225.32 46.41 296.86 57.71 270.81 0.01"/><circle class="cls-8" cx="249.37" cy="121.9" r="52.76"/><path class="cls-5" d="M278.19,89.18a45.24,45.24,0,0,0-13.91,89.41h0a45.24,45.24,0,0,0,51.66-37.75h0A45.26,45.26,0,0,0,278.19,89.18Zm-11.45,73.5A29.13,29.13,0,1,1,300,138.38a29.14,29.14,0,0,1-33.28,24.3Z" transform="translate(-21.86 -12)"/><path class="cls-9" d="M300,138.38c1.05-4.44-.6-11.83-.6-11.83l16.81,2.61a33.57,33.57,0,0,1-.29,11.7Z" transform="translate(-21.86 -12)"/><path class="cls-10" d="M315.94,140.85l-44.71-6.95-2.45,15.77,41.84,6.51S315.4,148.41,315.94,140.85Z" transform="translate(-21.86 -12)"/></g><g id="shadows"><g id="left"><polygon class="cls-11" points="224.53 258.27 167.07 176.71 166.57 159.12 201.53 190.24 224.53 258.27"/><polygon class="cls-12" points="270.81 0 225.32 46.4 177.49 63.91 185.2 49.91 270.81 0"/><polygon class="cls-13" points="177.49 63.91 166.57 159.12 247.81 125.15 177.49 63.91"/><polygon class="cls-14" points="177.49 63.91 225.32 46.41 270.81 0.01 248.31 125.58 177.49 63.91"/><polygon class="cls-15" points="224.53 258.27 201.53 190.24 166.57 159.12 248.43 124.88 224.53 258.27"/></g><g id="right"><polygon class="cls-16" points="315.1 183.74 305.87 202.14 224.53 258.27 267.39 202.21 315.1 183.74"/><polygon class="cls-17" points="335.47 88.49 296.86 57.71 270.81 0 331.11 72.6 335.47 88.49"/><polygon class="cls-18" points="247.81 125.15 335.47 88.48 315.1 183.74 247.81 125.15"/><polygon class="cls-19" points="224.53 258.27 248.31 125.58 315.1 183.74 267.39 202.21 224.53 258.27"/><polygon class="cls-20" points="270.81 0.01 248.43 124.88 335.47 88.48 296.86 57.71 270.81 0.01"/></g></g></svg>