<svg id="Layer_1" data-name="Layer 1" xmlns="http://www.w3.org/2000/svg" viewBox="0 0 283.63 308.99"><defs><style>.cls-1{fill:#1f3235;}.cls-2{fill:#1e3d5b;}.cls-3{fill:#1e3d5a;}.cls-4{fill:#dbcc23;}.cls-5{fill:#f1ea12;}.cls-6{fill:#dccd22;}.cls-7{fill:#1e3a52;}.cls-8{fill:#040402;}.cls-9{fill:#070603;}</style></defs><path class="cls-1" d="M149.1,73.84l0-13c0-.37,0-.74,0-1.12a2.3,2.3,0,0,1,2.19-2.28c.41,0,.83,0,1.25,0,12.53,0,25.06,0,37.58,0a1.79,1.79,0,0,0,2-1.32A9.53,9.53,0,0,1,195.83,52a29.55,29.55,0,0,1,9-4c.8-.24,1.61-.46,2.42-.65a1,1,0,0,0,.88-1.2,7.85,7.85,0,0,1,0-1c0-6.15,0-12.3,0-18.45,0-2.14,1.11-2.91,2.78-3.09,4-.44,8-.95,11.93-1.37a1.87,1.87,0,0,0,1.54-1c1.55-2.49,3.13-5,4.7-7.44.72-1.13,1.19-1.28,2.43-.79a3.76,3.76,0,0,1,1.82,1.66c1.36,2.17,2.77,4.3,4.11,6.49a2.1,2.1,0,0,0,1.76,1.09c4,.41,8,.9,11.93,1.38,1.9.23,2.59,1,2.59,2.93V45.7c0,1.77-.1,1.39,1.42,1.84a58.53,58.53,0,0,1,5.94,2,21,21,0,0,1,5.47,3.31,7.78,7.78,0,0,1,2.58,3.42,1.39,1.39,0,0,0,1.73,1.14,8.69,8.69,0,0,1,1.25,0h35.77c.47,0,.93,0,1.4,0a2.22,2.22,0,0,1,2.28,2.43c0,.33,0,.65,0,1V80.69c0,1.8,0,1.81,1.76,1.81h26.27c2.4,0,3.16.78,3.22,3.18.41,16.07.18,32.14.2,48.21,0,.7,0,1.4.08,2.09a13,13,0,0,1,.32,5.81c-.29,3-.29,5.94-.43,8.91-.43,9.43-1.81,18.67-5.64,27.35-7.31,16.57-19.24,28.11-36.93,33.18a44.68,44.68,0,0,1-7,1.39,11.65,11.65,0,0,1-1.67,0c-3.21-.13-4.65-1.61-4.68-4.81,0-1.35,0-2.7,0-4.33-1.29,1.45-2.31,2.85-3.42,4.15a74,74,0,0,1-16.53,14.09c-1.63,1-1.64,1.14-.38,2.56,4.8,5.46,9.55,10.94,14.35,16.39a6,6,0,0,1,1.45,2.21c.33,1.21,1.11,1.4,2.21,1.39,3.95,0,7.91,0,11.87,0a9.94,9.94,0,0,1,1.81.1,3,3,0,0,1,2.59,2.87c0,.42,0,.84,0,1.26v59.25c0,.37,0,.75,0,1.12a3.14,3.14,0,0,1-3.39,3.28c-.51,0-1,0-1.54,0H164c-4.23,0-4.68-.44-4.68-4.62,0-19.75.05-39.5,0-59.25,0-3.32,1.39-4,4.1-4,4.19,0,8.38,0,12.57,0,1.1,0,1.87-.2,2.21-1.4a7,7,0,0,1,1.69-2.54c4.68-5.43,9.48-10.75,14.18-16.17.88-1,.88-1.26-.35-2a73.86,73.86,0,0,1-10.17-7.38A59.23,59.23,0,0,1,174,204.5c-.11-.12-.18-.38-.34-.33s-.07.31-.07.48c0,1.21,0,2.41,0,3.61,0,2.57-1.18,3.91-3.71,4.32a6,6,0,0,1-2.07,0,3.67,3.67,0,0,0-1.14-.18,43.45,43.45,0,0,1-12-3.1,51.29,51.29,0,0,1-17.94-11.79c-10.75-10.44-16.28-23.36-18.17-38-.62-4.8-.67-9.64-.9-14.46-.32-6.8-.07-13.58-.21-20.37a9.67,9.67,0,0,1,.34-3c0-3-.09-6-.1-9.06,0-8.28-.07-16.55.17-24.82,0-1,.07-2.05.16-3.07a2.21,2.21,0,0,1,2-2.13,4,4,0,0,1,.69,0q10,0,19.94,0c1.8-.72,3.68-.33,5.52-.38,2.51-.06,2.45,0,2.53-2.53C148.77,77.7,148.34,75.73,149.1,73.84Z" transform="translate(-84.5 -12.74)"/><path class="cls-2" d="M167.58,212.28a11.4,11.4,0,0,0,3-.26,3.12,3.12,0,0,0,2.57-3.27c0-1.53,0-3.05,0-4.58.22-.24.46-.44.82-.27a57.54,57.54,0,0,0,5.18,6.17,71.82,71.82,0,0,0,12.75,10.51c.93.61,1.87,1.19,2.82,1.78s.92.77.22,1.46c-1,1-1.77,2-2.67,3-1.71,1.89-3.33,3.86-5,5.77-.92,1-1.85,2.07-2.79,3.1-1.81,2-3.53,4.05-5.26,6.11a5.14,5.14,0,0,0-1,2.25.68.68,0,0,1-.77.62h-1.12c-4.51,0-9,0-13.55,0A4.06,4.06,0,0,0,161,245a2,2,0,0,0-1.3,2.06q0,31.16,0,62.32a2.14,2.14,0,0,0,2.26,2.38c.38,0,.75,0,1.12,0H297.79a2.57,2.57,0,0,0,2.78-2.51,10.46,10.46,0,0,0,0-1.12q0-30,0-60.08a8.81,8.81,0,0,0,0-1.26,2.72,2.72,0,0,0-2.88-2.11c-1.58,0-3.16,0-4.75,0-3.12,0-6.24,0-9.36,0-.67,0-1.07-.07-1.2-.93-.19-1.33-1.18-2.27-2-3.25-1.78-2.07-3.57-4.14-5.38-6.19-.77-.87-1.56-1.72-2.31-2.6-2.27-2.64-4.62-5.2-6.92-7.81a14.32,14.32,0,0,1-.87-1.27,73.34,73.34,0,0,0,22.31-20.16,1.6,1.6,0,0,1,.28,1.22c0,1.45.07,2.89,0,4.33-.14,2.74,1.44,4.16,4.18,4.22a27.61,27.61,0,0,0,6.58-.91,51.92,51.92,0,0,0,14-5.33,43.21,43.21,0,0,0,7.44-5.1c1.75-1.53,3.56-3,5.17-4.66a57.12,57.12,0,0,0,8.69-11.52,71,71,0,0,0,4.63-9.82,66.73,66.73,0,0,0,2.66-9.48c.63-2.89,1-5.83,1.39-8.76a23.16,23.16,0,0,0,.25-3.31c0-2.84.31-5.66.39-8.49s.26-5.93.23-8.91c1.57,2.37,2.89,4.88,4.31,7.33q7.19,12.39,14.31,24.79a48.67,48.67,0,0,1,0,48.42Q338.4,256.91,315,297.29c-7.52,12.93-18.82,20.73-33.48,23.63a41.82,41.82,0,0,1-8.06.73c-31.43,0-62.86.21-94.29-.08-18.18-.16-32.27-8.47-41.47-24.11-15.77-26.79-31.15-53.82-46.69-80.75a48.22,48.22,0,0,1-6.39-28.44,46.94,46.94,0,0,1,6.17-20Q104.24,145,117.7,121.73s.06-.06.1-.09q0,9.08,0,18.16c0,3.67.3,7.33.34,11a70.84,70.84,0,0,0,.82,9.53,66.46,66.46,0,0,0,7.71,23.53,58.92,58.92,0,0,0,6.12,8.94,69.65,69.65,0,0,0,5.92,6.1,48.5,48.5,0,0,0,13.1,8.84,59.13,59.13,0,0,0,12.28,4,10.49,10.49,0,0,0,2.61.28C167,212.26,167.35,212,167.58,212.28Z" transform="translate(-84.5 -12.74)"/><path class="cls-3" d="M149.1,73.84c0,2.59,0,5.18.05,7.78,0,.72-.27,1-1,1-2.5,0-5,0-7.5,0a51.74,51.74,0,0,1,7.24-7.77C148.29,74.45,148.7,74.15,149.1,73.84Z" transform="translate(-84.5 -12.74)"/><path class="cls-4" d="M229.35,87.58c6.83,0,12.84.14,18.84,0,11.64-.35,23.28-.07,34.92-.22,3.49,0,7,0,10.47,0,2.07,0,2.83.81,2.86,2.89.09,6.33.05,12.67.31,19,.3,7.59.24,15.18.15,22.77a103.93,103.93,0,0,1-7.17,37.2,91.35,91.35,0,0,1-6.4,13.48,69.19,69.19,0,0,1-22.82,23,71.63,71.63,0,0,1-18,8.44,53.6,53.6,0,0,1-11.09,2,38.21,38.21,0,0,1-7.08-.56c-6.84-.76-13-3.47-19-6.6a72.92,72.92,0,0,1-23.81-19.5A71,71,0,0,1,172,173a101.53,101.53,0,0,1-6.79-21.67,124.06,124.06,0,0,1-1.6-12.44c-.56-7.16-.5-14.33-.43-21.5.09-9,.48-18.06.47-27.09,0-2.1,1-3,3.1-3,7.13,0,14.25,0,21.37,0,6.52,0,13-.11,19.56.06C215.18,87.61,222.68,87.47,229.35,87.58Z" transform="translate(-84.5 -12.74)"/><path class="cls-4" d="M230.12,306h-62a15.7,15.7,0,0,1-1.68,0,2.25,2.25,0,0,1-2.17-2.15c0-.33,0-.66,0-1V287.33c0-.33,0-.65,0-1a2.16,2.16,0,0,1,1.79-2,6.19,6.19,0,0,1,1.66-.15h125a7.86,7.86,0,0,1,1,0,2.48,2.48,0,0,1,2.38,2.61c0,1,0,2.05,0,3.07q0,6.3,0,12.58a10.6,10.6,0,0,1,0,1.26,2.5,2.5,0,0,1-2.53,2.29c-.46,0-.93,0-1.39,0Z" transform="translate(-84.5 -12.74)"/><path class="cls-4" d="M324.19,97.69h10.89c2.37,0,3.08.64,3.32,3,.34,3.25.13,6.51.17,9.77.06,4.24-.13,8.47-.31,12.7a110.6,110.6,0,0,1-3.56,25.65,67.65,67.65,0,0,1-13.4,26,50.4,50.4,0,0,1-15.08,12.47,46.78,46.78,0,0,1-9.36,3.6,5.63,5.63,0,0,1-.68.17,1.31,1.31,0,0,1-1.39-.7,1.07,1.07,0,0,1,.15-1.28c1.45-2.27,2.9-4.55,4.33-6.84a52.71,52.71,0,0,0,6.34-16.46c1.36-6,2.29-12.06,3.12-18.14a187.25,187.25,0,0,0,1.65-27.29c0-3.12,0-6.24,0-9.36s-.23-6-.47-9.06c0-.47-.05-.93-.05-1.4a2.46,2.46,0,0,1,2.62-2.75c1.49,0,3,0,4.47,0Z" transform="translate(-84.5 -12.74)"/><path class="cls-4" d="M136.72,97.69H147.9a3.11,3.11,0,0,1,1.75.33,2.22,2.22,0,0,1,1.21,2c0,1.72-.15,3.44-.22,5.16-.24,6.7-.46,13.4-.29,20.11.12,4.79.29,9.59.78,14.36a209.42,209.42,0,0,0,4.63,28.48A53.7,53.7,0,0,0,164,186.24c.64.92,1.25,1.86,1.86,2.79a1,1,0,0,1,.12,1.29,1.35,1.35,0,0,1-1.3.66,11.66,11.66,0,0,1-1.63-.38,46.35,46.35,0,0,1-19.31-11.3c-9.49-9.16-15.18-20.36-18.31-33a106.35,106.35,0,0,1-2.66-18.9c-.56-8.89-.39-17.78-.46-26.67a2.81,2.81,0,0,1,3.11-3.06C129.18,97.73,133,97.69,136.72,97.69Z" transform="translate(-84.5 -12.74)"/><path class="cls-4" d="M230.3,77.57q-36.53,0-73,0c-2.73,0-3.91-.74-3.71-3.65.06-.83,0-1.67,0-2.51A2.44,2.44,0,0,1,156,68.92c.32,0,.65,0,1,0H303.63c.28,0,.56,0,.84,0a2.4,2.4,0,0,1,2.63,2.59c0,1.21,0,2.43,0,3.64a2.3,2.3,0,0,1-2.37,2.4c-.55,0-1.11,0-1.67,0Z" transform="translate(-84.5 -12.74)"/><path class="cls-4" d="M230.54,63.31H198.43c-.42,0-.84,0-1.26,0a1.47,1.47,0,0,1-1.32-1.08c-.23-.57.12-.95.52-1.32a23,23,0,0,1,9-5.1,65.77,65.77,0,0,1,13.11-2.54A115.88,115.88,0,0,1,235,52.72a76,76,0,0,1,20.49,3,24.15,24.15,0,0,1,8.38,4.32c.36.3.7.62,1,.93s.67.68.49,1.2a1.5,1.5,0,0,1-1.19,1.07,9.15,9.15,0,0,1-1.39,0Z" transform="translate(-84.5 -12.74)"/><path class="cls-4" d="M230.32,242.73h-16.2c-.89,0-1.84.08-2.29-.93s.3-1.48.77-2.1q6.68-8.78,13.38-17.54a5.29,5.29,0,0,1,4.19-2.4,4.79,4.79,0,0,1,4.19,2.06c1.66,2.19,3.33,4.37,5,6.56q4.24,5.54,8.48,11.09c.25.33.52.66.75,1a1.36,1.36,0,0,1-.83,2.16,3.45,3.45,0,0,1-1,.07Z" transform="translate(-84.5 -12.74)"/><path class="cls-4" d="M206.28,274H189.82a1.67,1.67,0,0,1-1.59-.92c-.38-.72,0-1.14.4-1.62q7.86-10.32,15.73-20.64c1.46-1.9,2.53-1.9,4,0q7.83,10.24,15.64,20.53c.39.52.88,1,.51,1.75a1.83,1.83,0,0,1-1.87.93C217.17,274,211.72,274,206.28,274Z" transform="translate(-84.5 -12.74)"/><path class="cls-4" d="M254.34,274H238.42a3.25,3.25,0,0,1-1.51-.19,1.24,1.24,0,0,1-.68-1.83,5.56,5.56,0,0,1,.63-.92L252.2,251c1.63-2.13,2.56-2.13,4.21,0q7.75,10.15,15.49,20.34c.38.5.87.94.49,1.72a1.74,1.74,0,0,1-1.84.95Z" transform="translate(-84.5 -12.74)"/><path class="cls-5" d="M237.4,44.86A18.46,18.46,0,0,1,234,43.25a6,6,0,0,0-6.24,0c-1.79,1-3.67,1.81-5.54,2.64-1.34.6-2.33-.13-2.12-1.61.27-1.84.56-3.69,1-5.49A4.3,4.3,0,0,0,219.54,34c-1.45-1.16-2.78-2.47-4.16-3.72-.26-1.18,0-1.67,1.18-2a13.09,13.09,0,0,1,3.72-.51,6.68,6.68,0,0,0,6.53-4.11c.45-.91,1-1.8,1.48-2.68,1-1.69,2.18-1.7,3.29,0a18.7,18.7,0,0,1,1.58,2.79,6,6,0,0,0,5.84,4c1,0,2,.28,3,.35a4.08,4.08,0,0,1,1.48.4c1.28.63,1.5,1.69.44,2.65s-2.1,2-3.26,2.83a4.42,4.42,0,0,0-1.9,5,16.33,16.33,0,0,1,.66,4.4C239.38,44.75,238.86,45.13,237.4,44.86Z" transform="translate(-84.5 -12.74)"/><path class="cls-6" d="M237.4,44.86c1.49-.12,1.69-.34,1.72-1.74a14.71,14.71,0,0,0-.67-4.09c-.68-2.55.31-4.21,2.25-5.59,1.1-.78,2-1.8,3-2.63s.72-1.73-.5-2.14a4.79,4.79,0,0,0-1.35-.29c-1.66-.07-3.29-.4-4.94-.6a4.34,4.34,0,0,1-3.1-2.16c-.87-1.36-1.61-2.81-2.4-4.23-.1-.16-.16-.33-.27-.49-.82-1.2-1.71-1.27-2.51-.06s-1.61,2.7-2.37,4.08a4.89,4.89,0,0,1-4,2.95c-1.77.17-3.57.34-5.34.65-1.06.19-1.56.7-1.54,1.75-.63-.46-1.44-.84-1.14-1.83s1.14-1.11,2-1.21c2.12-.26,4.23-.56,6.36-.79a4.74,4.74,0,0,0,3.76-2.55c1-1.74,2-3.49,2.93-5.23.28-.49.54-1,1.13-1.17a1.65,1.65,0,0,1,2.05,1c1,1.78,1.95,3.6,3,5.36a5,5,0,0,0,3.92,2.59c.36,0,.73.14,1.09.19,1.75.21,3.51.43,5.26.62a2.69,2.69,0,0,1,1.06.28,1.29,1.29,0,0,1,.35,2.24c-1.33,1.23-2.72,2.4-4.08,3.59-.42.37-.85.72-1.26,1.11a3.83,3.83,0,0,0-1.16,3.8c.4,1.95.76,3.92,1.1,5.89a1.48,1.48,0,0,1-.8,1.87,1,1,0,0,1-1,.06A18,18,0,0,1,237.4,44.86Z" transform="translate(-84.5 -12.74)"/><path class="cls-7" d="M174,203.9l-.82.27c0-.25-.11-.6.23-.71S173.87,203.65,174,203.9Z" transform="translate(-84.5 -12.74)"/><path class="cls-7" d="M167.58,212.28c-.3,0-.63.05-.84-.28C167.05,212,167.38,212,167.58,212.28Z" transform="translate(-84.5 -12.74)"/><path class="cls-1" d="M204.18,138.63c.29-5.92.55-11.45,1.95-16.85a28.92,28.92,0,0,1,2.58-6.91,9.33,9.33,0,0,1,3.14-3.49,4.4,4.4,0,0,1,4.88-.09,8.54,8.54,0,0,1,2.84,2.83,26.84,26.84,0,0,1,3.3,8.85,68.5,68.5,0,0,1,1.47,12.46,92.83,92.83,0,0,1-.34,12.81,47.09,47.09,0,0,1-3,13.29,13.1,13.1,0,0,1-2.63,4.25c-2.56,2.6-5.36,2.6-7.93,0a14.35,14.35,0,0,1-2.85-4.76,41.81,41.81,0,0,1-2.46-9.71A116.65,116.65,0,0,1,204.18,138.63Z" transform="translate(-84.5 -12.74)"/><path class="cls-1" d="M256.39,138.09a79,79,0,0,1,1.44-16.15,31.69,31.69,0,0,1,2-6.67,9.53,9.53,0,0,1,2.6-3.58,3.74,3.74,0,0,1,5.1-.19,8.48,8.48,0,0,1,2.74,3.47,32.49,32.49,0,0,1,2.36,8,101.91,101.91,0,0,1,1.19,12.22,99.22,99.22,0,0,1-.13,11.44,60.92,60.92,0,0,1-2.22,13.6,13,13,0,0,1-3.11,5.86c-2.2,2.19-4.4,2.18-6.55,0a10.55,10.55,0,0,1-2-3.14,30.12,30.12,0,0,1-2.17-7.78c-.33-2.25-.59-4.52-.88-6.78A84,84,0,0,1,256.39,138.09Z" transform="translate(-84.5 -12.74)"/><path class="cls-8" d="M226.57,31.77a10.19,10.19,0,0,1-.08,1.24,1,1,0,0,1-1.09.86.92.92,0,0,1-.88-.92,15.44,15.44,0,0,1,0-1.8c.06-.89.39-1.19,1.19-1.19s.87.26.89,1.25v.56Z" transform="translate(-84.5 -12.74)"/><path class="cls-9" d="M232.68,31.87a8.68,8.68,0,0,1,0,1.25.89.89,0,0,1-.95.81.87.87,0,0,1-.94-.83,16.45,16.45,0,0,1,0-2.22.89.89,0,0,1,1-.95.86.86,0,0,1,.93,1c0,.32,0,.65,0,1Z" transform="translate(-84.5 -12.74)"/></svg>